<?xml version="1.0" encoding="UTF-8" standalone="no"?>
<svg
   xmlns:dc="http://purl.org/dc/elements/1.1/"
   xmlns:cc="http://creativecommons.org/ns#"
   xmlns:rdf="http://www.w3.org/1999/02/22-rdf-syntax-ns#"
   xmlns:svg="http://www.w3.org/2000/svg"
   xmlns="http://www.w3.org/2000/svg"
   xmlns:xlink="http://www.w3.org/1999/xlink"
   xmlns:sodipodi="http://sodipodi.sourceforge.net/DTD/sodipodi-0.dtd"
   xmlns:inkscape="http://www.inkscape.org/namespaces/inkscape"
   height="84.422mm"
   width="170mm"
   version="1.2"
   viewBox="0 0 481.88975 239.30624"
   id="svg6876"
   inkscape:version="0.91+devel+osxmenu r12922"
   sodipodi:docname="Abb3.svg">
  <sodipodi:namedview
     pagecolor="#ffffff"
     bordercolor="#666666"
     borderopacity="1"
     objecttolerance="10"
     gridtolerance="10"
     guidetolerance="10"
     inkscape:pageopacity="0"
     inkscape:pageshadow="2"
     inkscape:window-width="640"
     inkscape:window-height="480"
     id="namedview7717"
     showgrid="false"
     inkscape:zoom="1"
     inkscape:cx="251.09202"
     inkscape:cy="157.15007"
     inkscape:current-layer="svg6876" />
  <metadata
     id="metadata6878">
    <rdf:RDF>
      <cc:Work
         rdf:about="">
        <dc:format>image/svg+xml</dc:format>
        <dc:type
           rdf:resource="http://purl.org/dc/dcmitype/StillImage" />
        <dc:title></dc:title>
      </cc:Work>
    </rdf:RDF>
  </metadata>
  <defs
     id="defs6880">
    <symbol
       id="a"
       overflow="visible" />
    <symbol
       id="bm"
       overflow="visible">
      <path
         d="m2.6406 0h2.1719v-14.422l10.5 14.422h2.2031v-17.953h-2.1562v14.641l-10.5-14.641h-2.2188z"
         id="path6884" />
    </symbol>
    <symbol
       id="bl"
       overflow="visible">
      <path
         d="m2.6406 0h2.2188v-6.8906h3c3.7812 0 6.4219-2.125 6.4219-5.75 0-2.8594-1.7812-5.3125-6.4219-5.3125h-5.2188zm2.2188-8.75v-7.3438h2.5938c3.2969 0 4.4531 1.625 4.4531 3.6406 0 2.3125-1.4062 3.7031-4.4531 3.7031z"
         id="path6887" />
    </symbol>
    <symbol
       id="bk"
       overflow="visible">
      <path
         d="m2.6406 0h10.859v-1.8594h-8.6406v-16.094h-2.2188z"
         id="path6890" />
    </symbol>
    <symbol
       id="bj"
       overflow="visible">
      <path
         d="m1.6406 0h1.0312v-8.9688l6.5938 8.9688h1.0312v-10.672h-1.0156v9.125l-6.5938-9.125h-1.0469z"
         id="path6893" />
    </symbol>
    <symbol
       id="ai"
       overflow="visible">
      <path
         d="m0.76562-3.6094c0 1.9062 1.2656 3.7969 3.4062 3.7969 2.2031 0 3.4375-1.9531 3.4375-3.8281 0-1.9375-1.2969-3.7188-3.4375-3.7188-2.1719 0-3.4062 1.8594-3.4062 3.75zm1.0469-0.1094c0-1.6094 0.90625-2.7344 2.3594-2.7344 1.6875 0 2.4062 1.4844 2.4062 2.9219 0 1.6406-0.96875 2.8125-2.3906 2.8125-1.6094 0-2.375-1.5-2.375-3z"
         id="path6896" />
    </symbol>
    <symbol
       id="ah"
       overflow="visible">
      <path
         d="m0.78125-3.3438c0 1.9844 1.2344 3.5312 3.0625 3.5312 1.125 0 1.9844-0.60938 2.3906-1.2812 0.0781 0.51568 0.2344 1.2032 0.2344 1.2032l1-0.1094s-0.3125-1.3438-0.3125-2.2188v-9.1875l-0.98438 0.1875v4.1094c-0.10938-0.046875-0.60938-0.25-1.4531-0.25-2.5781 0-3.9375 1.9375-3.9375 4.0156zm3.1562 2.5938c-1.1562 0-2.0938-0.98438-2.0938-2.6719 0-1.9062 1.2031-3.0469 2.875-3.0469 0.71875 0 1.4531 0.21875 1.4531 1.1562v3.1094c-0.0624 0.0938-0.828 1.4532-2.2343 1.4532z"
         id="path6899" />
    </symbol>
    <symbol
       id="ag"
       overflow="visible">
      <path
         d="m0.78125-3.3906c0 1.8594 1.1562 3.5781 3.5 3.5781 1.6719 0 2.6562-1 2.6562-1l-0.2968-0.8281s-1.0469 0.90625-2.2812 0.90625c-1.5312 0-2.4219-1.125-2.5-2.7656l4.4531-0.57812 0.65625-0.1875c0-1.9688-1.1719-3.0938-2.7969-3.0938-2 0-3.3906 1.6719-3.3906 3.9688zm3.3438-3.0938c1.5781 0 1.7656 1.5938 1.7656 1.5938l-3.9844 0.5c0.2032-1.1563 0.9688-2.0938 2.2188-2.0938z"
         id="path6902" />
    </symbol>
    <symbol
       id="bi"
       overflow="visible">
      <path
         d="m1.6406 0h6.2812v-0.875h-5.2188v-9.7969h-1.0625z"
         id="path6905" />
    </symbol>
    <symbol
       id="bh"
       overflow="visible">
      <path
         d="m0.625-1.5625c0 1.0156 0.76562 1.75 1.9688 1.75 1.5156 0 2.3438-1.1562 2.4375-1.2812 0.10938 0.625 0.42188 1.0469 1.3594 1.2031l0.3593-0.81252s-0.79688-0.015625-0.79688-1v-3.4062c0-1.6094-0.57812-2.25-1.9531-2.25-1.7031 0-2.8594 0.84375-2.8594 0.84375l0.34375 0.875s1.0312-0.78125 2.25-0.78125c1.2031 0 1.2344 0.8125 1.2344 1.6094v0.46875c-2.8282 0.3905-4.3438 1.328-4.3438 2.7811zm2.1094 0.79688c-0.57812 0-1.0156-0.26562-1.0156-0.85938 0-0.95312 1.0312-1.5 3.25-1.875v1.3906c-0.53125 0.59375-1.2344 1.3438-2.2344 1.3438z"
         id="path6908" />
    </symbol>
    <symbol
       id="bg"
       overflow="visible">
      <path
         d="m0.48438-6.3125h1.125v6.3125h0.98438v-6.3125h2.0625v-0.85938h-2.0625v-0.95312c0-1.8906 0.85938-2.5781 1.7656-2.5781 0.73438 0 1.4688 0.51562 1.4688 0.51562l0.53125-0.82812s-0.8125-0.57812-1.9375-0.57812c-1.7344 0-2.8125 1.25-2.8125 3.5156v0.8125l-1.125 0.45312z"
         id="path6911" />
    </symbol>
    <symbol
       id="bf"
       overflow="visible">
      <path
         d="m1.6406 0h1.0625v-4.2656h1.8125c2.2344 0 3.75-1.2188 3.75-3.3438 0-1.6406-1-3.0625-3.75-3.0625h-2.875zm1.0625-5.1562v-4.6406h1.5938c2.0938 0 2.8438 1.0312 2.8438 2.2969 0 1.4688-0.90625 2.3438-2.8438 2.3438z"
         id="path6914" />
    </symbol>
    <symbol
       id="be"
       overflow="visible">
      <path
         d="m1.1562 0h0.73438v-3.4219h2.7188v-0.67188h-2.7188v-2.7656h3.4375v-0.60938h-4.1719z"
         id="path6917" />
    </symbol>
    <symbol
       id="ac"
       overflow="visible">
      <path
         d="m3.7969-6.3906c0.26562 0 0.51562-0.23438 0.51562-0.51562 0-0.26562-0.25-0.51562-0.51562-0.51562-0.25 0-0.51562 0.25-0.51562 0.51562 0 0.28125 0.26562 0.51562 0.51562 0.51562zm-1.875 0c0.25 0 0.51562-0.23438 0.51562-0.51562 0-0.26562-0.26562-0.51562-0.51562-0.51562-0.26562 0-0.51562 0.25-0.51562 0.51562 0 0.28125 0.25 0.51562 0.51562 0.51562zm-1.0781 5.0312c0 1.0781 0.51562 1.5 1.3594 1.5 0.96875 0 1.7344-0.70312 2.0156-0.98438 0.046875 0.35938 0.17188 0.90625 0.17188 0.90625l0.6875-0.046875s-0.23438-0.95312-0.23438-1.5781v-3.4531h-0.67188v3.5c-0.375 0.35938-1.1406 1.0312-1.8594 1.0312-0.39062 0-0.78125-0.17188-0.78125-0.98438v-3.5469h-0.6875z"
         id="path6920" />
    </symbol>
    <symbol
       id="aa"
       overflow="visible">
      <path
         d="m0.90625 0h0.6875v-3.3906c0.3125-0.29688 1.2969-1.1406 2-1.1406 0.39062 0 0.75 0.20312 0.75 0.98438v3.5469h0.6875v-3.6719c0-1.0938-0.57812-1.4844-1.2969-1.4844-0.96875 0-1.8125 0.75-2.1406 1.0625v-3.8906l-0.6875 0.125z"
         id="path6923" />
    </symbol>
    <symbol
       id="i"
       overflow="visible">
      <path
         d="m0.89062 0h0.67188v-3.2344c0.2031-0.375 0.6875-1.1406 1.2813-1.1406 0.21875 0 0.42188 0.078125 0.42188 0.078125l0.20312-0.75s-0.15625-0.10938-0.4375-0.10938c-0.76562 0-1.2812 0.78125-1.4688 1.0781v-1.0156l-0.67188 0.14062z"
         id="path6926" />
    </symbol>
    <symbol
       id="h"
       overflow="visible">
      <path
         d="m1.0938-1.2969c0 1.0312 0.46875 1.4375 1.2031 1.4375 0.79688 0 1.3906-0.5 1.3906-0.5l-0.1719-0.60935s-0.54688 0.46875-1.0938 0.46875c-0.4218 0-0.6562-0.25-0.6562-0.9688v-2.9531h1.6719v-0.59375h-1.6719v-1.3594l-0.67188 0.1875v1.0938l-0.6875 0.29688v0.375h0.6875z"
         id="path6929" />
    </symbol>
    <symbol
       id="e"
       overflow="visible" />
    <symbol
       id="z"
       overflow="visible">
      <path
         d="m1.1562 0h0.73438v-2.9844h1.2656c1.5781 0 2.6406-0.85938 2.6406-2.3438 0-1.1406-0.70312-2.1406-2.6406-2.1406h-2zm0.73438-3.6094v-3.25h1.125c1.4532 0 1.9844 0.7188 1.9844 1.6094 0 1.0312-0.625 1.6406-1.9844 1.6406z"
         id="path6933" />
    </symbol>
    <symbol
       id="y"
       overflow="visible">
      <path
         d="m0.53125-2.5312c0 1.3438 0.89062 2.6719 2.3906 2.6719 1.5312 0 2.4062-1.375 2.4062-2.6875 0-1.3594-0.90625-2.6094-2.4062-2.6094-1.5156 0-2.3906 1.2969-2.3906 2.625zm0.73438-0.0625c0-1.1406 0.64062-1.9219 1.6562-1.9219 1.1719 0 1.6875 1.0312 1.6875 2.0469 0.0001 1.1406-0.6718 1.9687-1.6718 1.9687-1.1406 0-1.6719-1.0625-1.6719-2.0938z"
         id="path6936" />
    </symbol>
    <symbol
       id="x"
       overflow="visible">
      <path
         d="m0.84375-0.9375c0 0.34375 0.35938 0.54688 0.84375 0.6875-0.5625 0.26562-1.3438 0.75-1.3438 1.5312 0 0.92188 1.0469 1.375 2.0938 1.375 1.375 0 2.6406-0.8125 2.6406-1.8438 0-0.92188-0.96875-1.1719-1.9688-1.375-0.9062-0.17178-1.4687-0.26552-1.4687-0.5312 0-0.1562 0.2344-0.3281 0.4844-0.5156 0.1406 0.0469 0.2969 0.0469 0.4531 0.0469 0.9375 0 2.0625-0.5625 2.0625-1.7344 0-0.59375-0.28125-0.95312-0.375-1.0625 0.0782 0.0156 0.2344 0.0156 0.3906 0.0156h0.67188l-0.0781-0.7031s-0.34375 0.10938-0.65625 0.10938h-0.5c-0.54688 0-0.84375-0.21875-1.4531-0.21875-1.0469 0-2 0.65625-2 1.7656 0 0.6875 0.35938 1.2812 0.95312 1.5938-0.3125 0.20312-0.75 0.48438-0.75 0.85938zm2.25 0.98438c0.64062 0.125 1.2344 0.32812 1.2344 0.84375 0 0.625-0.8125 1.2031-1.8125 1.2031-0.5625 0-1.5-0.17188-1.5-0.89062 0-0.59375 0.67188-0.95312 1.3281-1.2969 0.25 0.046875 0.5 0.09375 0.75 0.14062zm-0.4532-2.1719c-0.85938 0-1.25-0.59375-1.25-1.2188 0-0.71875 0.46875-1.2344 1.2188-1.2344 0.875 0 1.2969 0.71875 1.2969 1.3438 0 0.71875-0.5625 1.1094-1.2656 1.1094z"
         id="path6939" />
    </symbol>
    <symbol
       id="r"
       overflow="visible">
      <path
         d="m0.4375-1.0938c0 0.71875 0.53125 1.2344 1.375 1.2344 1.0625 0 1.6562-0.82812 1.7031-0.90625 0.078125 0.4375 0.29688 0.73438 0.95312 0.84375l0.2657-0.5781s-0.5625 0-0.5625-0.6875v-2.3906c0-1.125-0.40625-1.5781-1.375-1.5781-1.1875 0-2 0.59375-2 0.59375l0.25 0.60938s0.71875-0.54688 1.5625-0.54688c0.85938 0 0.875 0.5625 0.875 1.125v0.34375c-1.9844 0.2656-3.0469 0.9218-3.0469 1.9374zm1.4844 0.5625c-0.40625 0-0.71875-0.1875-0.71875-0.60938 0-0.65625 0.71875-1.0469 2.2812-1.3125v0.96875c-0.375 0.42188-0.875 0.95312-1.5625 0.95312z"
         id="path6942" />
    </symbol>
    <symbol
       id="af"
       overflow="visible">
      <path
         d="m0.89062 0h0.67188v-3.3594c0.2813-0.2656 1.25-1.1718 1.9844-1.1718 0.32812 0 0.67188 0.20312 0.67188 0.98438v3.5469h0.67188v-3.5c0.3125-0.28125 1.2188-1.0312 1.875-1.0312 0.32812 0 0.65625 0.20312 0.65625 0.98438v3.5469h0.6875v-3.6719c0-1.0938-0.5625-1.4844-1.2188-1.4844-0.9375 0-1.7656 0.71875-2.0469 0.98438-0.1406-0.7033-0.6249-0.9845-1.1718-0.9845-0.9844 0-1.8281 0.8281-2.1094 1.0937v-1.0312l-0.67188 0.14062z"
         id="path6945" />
    </symbol>
    <symbol
       id="ae"
       overflow="visible">
      <path
         d="m0.53125-2.4375c0 1.4219 0.95312 2.5781 2.375 2.5781 1.0938 0 1.7188-0.65625 1.7188-0.65625l-0.25-0.5468s-0.53125 0.54688-1.375 0.54688c-1.0938 0-1.7344-0.9375-1.7344-2 0-1.0313 0.6094-1.9844 1.7032-1.9844 0.76562 0 1.2969 0.46875 1.2969 0.46875l0.3593-0.5626s-0.5625-0.5625-1.6094-0.5625c-1.625 0-2.4844 1.3438-2.4844 2.7188z"
         id="path6948" />
    </symbol>
    <symbol
       id="bd"
       overflow="visible">
      <path
         d="m0.54688-2.3438c0 1.3906 0.85938 2.4844 2.1406 2.4844 0.79688 0 1.3906-0.4375 1.6875-0.90625 0.046875 0.35938 0.15625 0.84375 0.15625 0.84375l0.7031-0.0782s-0.2344-0.9375-0.2344-1.5625v-6.4219l-0.67188 0.125v2.8906c-0.0781-0.0312-0.4219-0.1874-1.0156-0.1874-1.8125 0-2.7656 1.3594-2.7656 2.8125zm2.2031 1.8126c-0.79688 0-1.4688-0.67188-1.4688-1.8594 0-1.3438 0.84375-2.1406 2.0312-2.1406 0.5 0 1.0156 0.15625 1.0156 0.8125v2.1719c-0.0468 0.0625-0.5936 1.0156-1.578 1.0156z"
         id="path6951" />
    </symbol>
    <symbol
       id="f"
       overflow="visible">
      <path
         d="m0.54688-2.375c0 1.2969 0.8125 2.5156 2.4531 2.5156 1.1719 0 1.8594-0.71875 1.8594-0.71875l-0.2032-0.578s-0.73438 0.64062-1.6094 0.64062c-1.0625 0-1.6875-0.78125-1.75-1.9375l3.125-0.40625 0.46875-0.125c0-1.3906-0.82812-2.1719-1.9688-2.1719-1.3906 0-2.375 1.1719-2.375 2.7812zm2.3438-2.1562c1.0938 0 1.2344 1.1094 1.2344 1.1094l-2.797 0.3593c0.15625-0.82812 0.6875-1.4688 1.5625-1.4688z"
         id="path6954" />
    </symbol>
    <symbol
       id="ad"
       overflow="visible">
      <path
         d="m0.82812-1.3594c0 1.0781 0.51562 1.5 1.3594 1.5 0.96875 0 1.75-0.70312 2.0312-0.98438 0.0313 0.3594 0.1563 0.90628 0.1563 0.90628l0.6875-0.046875s-0.21875-0.95312-0.21875-1.5781v-3.4531h-0.6875v3.5c-0.375 0.35938-1.1406 1.0312-1.8594 1.0312-0.39062 0-0.78125-0.17188-0.78125-0.98438v-3.5469h-0.6875z"
         id="path6957" />
    </symbol>
    <symbol
       id="q"
       overflow="visible">
      <path
         d="m0.5-0.3125s0.57812 0.45312 1.5625 0.45312c1.0625 0 1.75-0.51562 1.75-1.4062 0-1.7031-2.5-1.4688-2.5-2.625 0-0.375 0.29688-0.65625 0.9375-0.65625 0.625 0 1.2344 0.26562 1.2344 0.26562l0.2187-0.5937s-0.54688-0.28125-1.3594-0.28125c-1.2188 0-1.7344 0.57812-1.7344 1.3281 0 1.625 2.5 1.3906 2.5 2.6094 0 0.45312-0.34375 0.75-0.98438 0.75-0.8125 0-1.4688-0.48438-1.4688-0.48438z"
         id="path6960" />
    </symbol>
    <symbol
       id="bc"
       overflow="visible">
      <path
         d="m0.57812-0.5s0.82812 0.64062 2.1094 0.64062c1.3281 0 2.4062-0.64062 2.4062-1.9062 0-2.375-3.6406-2.1719-3.6406-4.0469 0-0.75 0.6875-1.1406 1.5938-1.1406 0.85938 0 1.6719 0.39062 1.6719 0.39062l0.23438-0.70312s-0.89062-0.34375-1.8594-0.34375c-1.5312 0-2.375 0.82812-2.375 1.8906 0 2.2969 3.625 2.1719 3.625 4 0 0.78125-0.71875 1.1875-1.5938 1.1875-1.1094 0-1.9844-0.67188-1.9844-0.67188z"
         id="path6963" />
    </symbol>
    <symbol
       id="bb"
       overflow="visible">
      <path
         d="m0.90625 0h0.6875v-7.9844l-0.6875 0.125z"
         id="path6966" />
    </symbol>
    <symbol
       id="ba"
       overflow="visible">
      <path
         d="m0.90625 0h0.6875v-2.5h0.10938l2.3593 2.5h0.9375l-2.6719-2.7969 2.4219-2.2187h-0.9375l-2.125 2h-0.09375v-4.9688l-0.6875 0.125z"
         id="path6969" />
    </symbol>
    <symbol
       id="ab"
       overflow="visible">
      <path
         d="m1.2656-6.3594c0.28125 0 0.53125-0.25 0.53125-0.54688 0-0.28125-0.25-0.53125-0.53125-0.53125-0.29688 0-0.53125 0.25-0.53125 0.53125 0 0.29688 0.23438 0.54688 0.53125 0.54688zm-0.35935 6.3594h0.6875v-5.0156h-0.6875z"
         id="path6972" />
    </symbol>
    <symbol
       id="az"
       overflow="visible">
      <path
         d="m1.1562 0h1.7031c2.7031 0 4.5938-1.3438 4.5938-3.8594 0-2.6562-2.125-3.6094-4.1719-3.6094h-2.125zm0.73438-0.60938v-6.25h1.2344c2.2812 0 3.5312 1.2188 3.5312 3.125 0 1.7344-1.0312 3.125-3.9062 3.125z"
         id="path6975" />
    </symbol>
    <symbol
       id="ay"
       overflow="visible">
      <path
         d="m0.89062 0h0.67188v-3.3594c0.3125-0.2968 1.2969-1.1718 2.0313-1.1718 0.39062 0 0.73438 0.20312 0.73438 0.98438v3.5469h0.6875v-3.6719c0-1.0938-0.59375-1.4844-1.2812-1.4844-1.0156 0-1.875 0.82812-2.1719 1.0938v-1.0312l-0.67188 0.14062z"
         id="path6978" />
    </symbol>
    <symbol
       id="ax"
       overflow="visible">
      <path
         d="m0.4375-1.0938c0 0.71875 0.53125 1.2344 1.375 1.2344 1.0625 0 1.6562-0.82812 1.7031-0.90625 0.078125 0.4375 0.29688 0.73438 0.95312 0.84375l0.2657-0.5781s-0.5625 0-0.5625-0.6875v-2.3906c0-1.125-0.40625-1.5781-1.375-1.5781-1.1875 0-2 0.59375-2 0.59375l0.25 0.60938s0.71875-0.54688 1.5625-0.54688c0.85938 0 0.875 0.5625 0.875 1.125v0.34375c-1.9844 0.2656-3.0469 0.9218-3.0469 1.9374zm1.4844 0.5625c-0.40625 0-0.71875-0.1875-0.71875-0.60938 0-0.65625 0.71875-1.0469 2.2812-1.3125v0.96875c-0.375 0.42188-0.875 0.95312-1.5625 0.95312zm1.5156-5.8593c0.26562 0 0.51562-0.23438 0.51562-0.51562 0-0.26562-0.25-0.51562-0.51562-0.51562-0.25 0-0.51562 0.25-0.51562 0.51562 0 0.28125 0.26562 0.51562 0.51562 0.51562zm-1.875 0c0.25 0 0.51562-0.23438 0.51562-0.51562 0-0.26562-0.26562-0.51562-0.51562-0.51562-0.26562 0-0.51562 0.25-0.51562 0.51562 0 0.28125 0.25 0.51562 0.51562 0.51562z"
         id="path6981" />
    </symbol>
    <symbol
       id="aw"
       overflow="visible">
      <path
         d="m0.48438 0h3.8438v-0.60938h-2.9219l2.8125-4v-0.40625h-3.6406v0.60938h2.6875l-2.7812 3.9844z"
         id="path6984" />
    </symbol>
    <symbol
       id="av"
       overflow="visible">
      <path
         d="m0.34375-4.4219h0.78125v4.4219h0.6875v-4.4219h1.4531v-0.59375h-1.4531v-0.67188c0-1.3281 0.60938-1.8125 1.2344-1.8125 0.51562 0 1.0312 0.35938 1.0312 0.35938l0.375-0.5625s-0.5625-0.42188-1.3594-0.42188c-1.2188 0-1.9688 0.89062-1.9688 2.4688v0.5625l-0.78125 0.32812z"
         id="path6987" />
    </symbol>
    <symbol
       id="au"
       overflow="visible">
      <path
         d="m0.40625 0h5.5469v-0.60938h-4.5312l4.5-6.4531v-0.40625h-5.2344v0.60938h4.2656l-4.5469 6.4531z"
         id="path6990" />
    </symbol>
    <symbol
       id="at"
       overflow="visible">
      <path
         d="m0.34375-4.4219h0.78125v4.4219h0.6875v-4.4844h2.4844v4.4844h0.7031v-4.4219h1.4375v-0.59375h-1.4375v-0.6719c0-1.3125 0.5938-1.7813 1.2344-1.7813 0.5156 0 1.0156 0.3594 1.0156 0.3594l0.375-0.59375s-0.5625-0.42188-1.3594-0.42188c-0.64062 0-1.1406 0.26562-1.5 0.71875-0.25-0.15625-0.8125-0.4375-1.4688-0.4375-1.328 0-2.1718 0.8907-2.1718 2.4688v0.28125l-0.78125 0.32812zm3.9531-1.2344v0.64062h-2.4844v-0.39062c0-1.3125 0.70312-1.7812 1.4531-1.7812 0.5 0 1.0156 0.28125 1.2031 0.39062-0.1092 0.3281-0.1717 0.7031-0.1717 1.1407z"
         id="path6993" />
    </symbol>
    <symbol
       id="c"
       overflow="visible">
      <path
         d="m0.4375-0.26562s0.48438 0.375 1.3281 0.375c0.90625 0 1.5-0.4375 1.5-1.1875 0-1.4688-2.1406-1.2656-2.1406-2.25 0-0.32812 0.25-0.5625 0.79688-0.5625 0.53125 0 1.0625 0.21875 1.0625 0.21875l0.1875-0.5s-0.46875-0.23438-1.1719-0.23438c-1.0312 0-1.4844 0.48438-1.4844 1.125 0 1.4062 2.1562 1.2031 2.1562 2.2344 0 0.39062-0.29688 0.64062-0.85938 0.64062-0.6875 0-1.25-0.40625-1.25-0.40625z"
         id="path6996" />
    </symbol>
    <symbol
       id="b"
       overflow="visible">
      <path
         d="m0.46875-2.0312c0 1.1094 0.6875 2.1406 2.1094 2.1406 0.98438 0 1.5781-0.59375 1.5781-0.59375l-0.17188-0.5s-0.625 0.54688-1.375 0.54688c-0.90625 0-1.4531-0.67188-1.5-1.6562l2.6876-0.3594 0.3906-0.1094c0-1.1719-0.71875-1.8438-1.6875-1.8438-1.1875 0-2.0312 1-2.0312 2.375zm2-1.8594c0.95312 0 1.0625 0.95312 1.0625 0.95312l-2.3907 0.3125c0.125-0.70312 0.59375-1.2656 1.3281-1.2656z"
         id="path6999" />
    </symbol>
    <symbol
       id="k"
       overflow="visible">
      <path
         d="m0.76562 0h0.57812v-2.875c0.26562-0.26562 1.1094-1.0156 1.7344-1.0156 0.32812 0 0.64062 0.1875 0.64062 0.84375v3.0469h0.57812v-3.1406c0-0.9375-0.5-1.2656-1.1094-1.2656-0.85938 0-1.5938 0.6875-1.8438 0.92188v-0.875l-0.57812 0.125z"
         id="path7002" />
    </symbol>
    <symbol
       id="s"
       overflow="visible">
      <path
         d="m0.46875-2c0 1.1875 0.73438 2.1094 1.8281 2.1094 0.6875 0 1.1875-0.35938 1.4375-0.76562 0.0625 0.31245 0.1406 0.7187 0.1406 0.7187l0.6094-0.0625s-0.20312-0.8125-0.20312-1.3281v-5.5156l-0.57812 0.125v2.4531c-0.0626-0.0156-0.3594-0.1406-0.8751-0.1406-1.5469 0-2.3594 1.1562-2.3594 2.4062zm1.8906 1.5469c-0.6875 0-1.25-0.57812-1.25-1.5938 0-1.1406 0.71875-1.8281 1.7188-1.8281 0.4375 0 0.875 0.125 0.875 0.6875v1.8594c-0.03125 0.0625-0.5 0.875-1.3438 0.875z"
         id="path7005" />
    </symbol>
    <symbol
       id="d"
       overflow="visible">
      <path
         d="m0.9375-1.1094c0 0.875 0.39062 1.2188 1.0312 1.2188 0.67188 0 1.1875-0.42188 1.1875-0.42188l-0.1406-0.51564s-0.46875 0.40625-0.9375 0.40625c-0.375 0-0.5625-0.21875-0.5625-0.82812v-2.5469h1.4219v-0.5h-1.4219v-1.1562l-0.57812 0.15625v0.9375l-0.59375 0.25v0.3125h0.59375z"
         id="path7008" />
    </symbol>
    <symbol
       id="g"
       overflow="visible" />
    <symbol
       id="n"
       overflow="visible">
      <path
         d="m0.98438 0h0.64062v-2.7969h1.0625l1.9219 2.7969h0.75l-1.9844-2.9062c0.60938-0.26562 1.3906-0.82812 1.3906-1.7969 0-0.85938-0.60938-1.7031-2.25-1.7031h-1.5312zm0.64062-3.3281v-2.5469h0.76562c1.25 0 1.6875 0.625 1.6875 1.2344 0 0.875-0.8125 1.3125-1.3438 1.3125z"
         id="path7012" />
    </symbol>
    <symbol
       id="m"
       overflow="visible">
      <path
         d="m0.45312-2.0156c0 1.2344 0.75 2.125 1.8438 2.125 0.67188 0 1.1406-0.34375 1.3125-0.64062v2.75l0.57812-0.125v-6.3125s-0.67188-0.1875-1.3281-0.1875c-1.625 0-2.4062 1.1562-2.4062 2.3906zm1.9063 1.5781c-0.7344 0-1.2656-0.6406-1.2656-1.6094 0-1.2031 0.7343-1.8281 1.7031-1.8281 0.46875 0 0.8125 0.10938 0.8125 0.10938v2.6406c-0.125 0.17188-0.57812 0.6875-1.25 0.6875z"
         id="path7015" />
    </symbol>
    <symbol
       id="j"
       overflow="visible">
      <path
         d="m0.70312-1.1719c0 0.9375 0.45312 1.2812 1.1719 1.2812 0.82812 0 1.5-0.59375 1.7344-0.82812 0.0312 0.31257 0.1406 0.78132 0.1406 0.78132l0.5938-0.046875s-0.20312-0.82812-0.20312-1.3438v-2.9688h-0.57812v3c-0.3126 0.31262-0.9845 0.89075-1.5938 0.89075-0.3438 0-0.6719-0.15625-0.6719-0.84375v-3.0469h-0.59375z"
         id="path7018" />
    </symbol>
    <symbol
       id="as"
       overflow="visible">
      <path
         d="m2.2344 0.046875h0.64062l1.625-5.5 1.6094 5.5h0.64062l1.9844-6.4531h-0.625l-1.6875 5.5156-1.5469-5.5156h-0.73438l-1.5781 5.5312-1.6562-5.5312h-0.64062z"
         id="path7021" />
    </symbol>
    <symbol
       id="o"
       overflow="visible">
      <path
         d="m1.0781-5.4375c0.25 0 0.45312-0.21875 0.45312-0.46875s-0.20312-0.46875-0.45312-0.46875-0.45312 0.21875-0.45312 0.46875 0.20312 0.46875 0.45312 0.46875zm-0.29685 5.4375h0.57812v-4.2969h-0.57812z"
         id="path7024" />
    </symbol>
    <symbol
       id="p"
       overflow="visible">
      <path
         d="m0.76562 0h0.57812v-2.7656c0.1719-0.3282 0.5782-0.9844 1.0938-0.9844 0.1875 0 0.35938 0.0625 0.35938 0.0625l0.1719-0.6406s-0.125-0.078125-0.375-0.078125c-0.65625 0-1.0938 0.65625-1.25 0.92188v-0.875l-0.57812 0.125z"
         id="path7027" />
    </symbol>
    <symbol
       id="l"
       overflow="visible">
      <path
         d="m0.78125 0h0.57812v-6.8438l-0.57812 0.125z"
         id="path7030" />
    </symbol>
    <symbol
       id="w"
       overflow="visible">
      <path
         d="m0.73438-0.8125c0 0.29688 0.29688 0.48438 0.71875 0.59375-0.48438 0.23438-1.1562 0.64062-1.1562 1.3281 0 0.78125 0.89062 1.1719 1.7812 1.1719 1.1875 0 2.2656-0.70312 2.2656-1.5938 0-0.78125-0.82812-1-1.6875-1.1719-0.78125-0.15625-1.25-0.21875-1.25-0.45312 0-0.14062 0.20312-0.28125 0.42188-0.4375 0.10938 0.03125 0.25 0.046875 0.375 0.046875 0.8125 0 1.7656-0.5 1.7656-1.5 0-0.5-0.23438-0.8125-0.3125-0.90625 0.0625 0.015625 0.1875 0.015625 0.32812 0.015625h0.57812l-0.0625-0.6092s-0.29688 0.09375-0.5625 0.09375h-0.42188c-0.46875 0-0.73438-0.17188-1.25-0.17188-0.90625 0-1.7188 0.54688-1.7188 1.5 0 0.59375 0.3125 1.1094 0.8125 1.375-0.25 0.17188-0.625 0.40625-0.625 0.71875zm1.9062 0.84375c0.5625 0.125 1.0781 0.28125 1.0781 0.73438 0 0.53125-0.70312 1.0312-1.5625 1.0312-0.48438 0-1.2969-0.15625-1.2969-0.76562 0-0.5 0.57812-0.8125 1.1406-1.125 0.21875 0.0625 0.4375 0.09375 0.64062 0.125zm-0.375-1.8594c-0.73438 0-1.0781-0.5-1.0781-1.0469 0-0.59375 0.40625-1.0469 1.0469-1.0469 0.75 0 1.1094 0.60938 1.1094 1.1562 0 0.60938-0.46875 0.9375-1.0781 0.9375z"
         id="path7033" />
    </symbol>
    <symbol
       id="ar"
       overflow="visible">
      <path
         d="m0.375-0.9375c0 0.60938 0.45312 1.0469 1.1719 1.0469 0.92188 0 1.4219-0.6875 1.4688-0.76562 0.0625 0.375 0.25 0.625 0.8125 0.71875l0.21875-0.48438s-0.48438-0.015625-0.48438-0.59375v-2.0469c0-0.96875-0.34375-1.3438-1.1719-1.3438-1.0156 0-1.7031 0.5-1.7031 0.5l0.20312 0.51562s0.60938-0.45312 1.3438-0.45312c0.73438 0 0.75 0.46875 0.75 0.95312v0.29688c-1.7033 0.2188-2.6095 0.7969-2.6095 1.6563zm1.2656 0.48438c-0.34375 0-0.60938-0.15625-0.60938-0.53125 0-0.5625 0.625-0.89062 1.9531-1.1094v0.82812c-0.32812 0.35938-0.75 0.8125-1.3438 0.8125z"
         id="path7036" />
    </symbol>
    <symbol
       id="aq"
       overflow="visible">
      <path
         d="m0.98438 0h0.64062v-2.5625h1.0781c1.3438 0 2.25-0.73438 2.25-2 0-0.98438-0.59375-1.8438-2.25-1.8438h-1.7188zm0.64062-3.0938v-2.7812h0.95312c1.25 0 1.7031 0.625 1.7031 1.375 0 0.89062-0.54688 1.4062-1.7031 1.4062z"
         id="path7039" />
    </symbol>
    <symbol
       id="ap"
       overflow="visible">
      <path
         d="m0.45312-2.1719c0 1.1562 0.76562 2.2812 2.0469 2.2812 1.3125 0 2.0625-1.1719 2.0625-2.2969 0-1.1562-0.76562-2.2188-2.0625-2.2188s-2.0469 1.1094-2.0469 2.2344zm0.625-0.046875c0-0.96875 0.54688-1.6406 1.4219-1.6406 1.0156 0 1.4375 0.875 1.4375 1.7344 0 1-0.5625 1.6875-1.4219 1.6875-0.96875 0-1.4375-0.89062-1.4375-1.7812z"
         id="path7042" />
    </symbol>
    <symbol
       id="ao"
       overflow="visible">
      <path
         d="m1.7188 0.0625h0.57812l1.8438-4.3594h-0.625l-1.4688 3.5781-1.2188-3.5781h-0.60938z"
         id="path7045" />
    </symbol>
    <symbol
       id="v"
       overflow="visible">
      <path
         d="m0.45312-2.0938c0 1.2344 0.82812 2.2031 2.0469 2.2031 0.92188 0 1.4688-0.54688 1.4688-0.54688l-0.2344-0.46865s-0.4375 0.46875-1.1562 0.46875c-0.95312 0-1.5-0.8125-1.5-1.7188 0-0.89062 0.53125-1.7031 1.4688-1.7031 0.65625 0 1.1094 0.40625 1.1094 0.40625l0.3124-0.4845s-0.48438-0.46875-1.3906-0.46875c-1.3906 0-2.125 1.1406-2.125 2.3125z"
         id="path7048" />
    </symbol>
    <symbol
       id="u"
       overflow="visible">
      <path
         d="m0.78125 0h0.57812v-2.9062c0.26562-0.25 1.1094-0.98438 1.7188-0.98438 0.32812 0 0.64062 0.1875 0.64062 0.84375v3.0469h0.59375v-3.1406c0-0.9375-0.5-1.2656-1.125-1.2656-0.8125 0-1.5469 0.625-1.8281 0.89062v-3.3281l-0.57812 0.125z"
         id="path7051" />
    </symbol>
    <symbol
       id="t"
       overflow="visible">
      <path
         d="m3.25-5.4688c0.23438 0 0.4375-0.20312 0.4375-0.4375s-0.20312-0.4375-0.4375-0.4375c-0.21875 0-0.4375 0.20312-0.4375 0.4375s0.21875 0.4375 0.4375 0.4375zm-1.5938 0c0.20312 0 0.42188-0.20312 0.42188-0.4375s-0.21875-0.4375-0.42188-0.4375c-0.23438 0-0.45312 0.20312-0.45312 0.4375s0.21875 0.4375 0.45312 0.4375zm-0.9375 4.2969c0 0.9375 0.4375 1.2812 1.1562 1.2812 0.84375 0 1.5-0.59375 1.7344-0.82812 0.046875 0.3125 0.15625 0.78125 0.15625 0.78125l0.5783-0.046775s-0.1875-0.82812-0.1875-1.3438v-2.9688h-0.59375v3c-0.3126 0.31262-0.9688 0.89075-1.5938 0.89075-0.3282 0-0.6563-0.15625-0.6563-0.84375v-3.0469h-0.59375z"
         id="path7054" />
    </symbol>
    <filter
       id="aj"
       height="1"
       width="1"
       y="0"
       x="0"
       filterUnits="objectBoundingBox">
      <feColorMatrix
         values="0 0 0 0 1 0 0 0 0 1 0 0 0 0 1 0 0 0 1 0"
         type="matrix"
         in="SourceGraphic"
         id="feColorMatrix7057" />
    </filter>
    <mask
       id="an">
      <g
         filter="url(#aj)"
         id="g7060">
        <rect
           fill-opacity="0.98"
           height="842"
           width="595"
           y="0"
           x="0"
           id="rect7062" />
      </g>
    </mask>
    <clipPath
       id="bp">
      <path
         d="m0.80078 0.19922h16v23.199h-16z"
         id="path7065" />
    </clipPath>
    <clipPath
       id="bq">
      <rect
         y="0"
         width="17"
         x="0"
         height="24"
         id="rect7068" />
    </clipPath>
    <g
       id="al"
       clip-path="url(#bq)">
      <g
         clip-path="url(#bp)"
         id="g7071">
        <path
           d="m8.6016 0.30078c-3.4024 0.09766-6.1016 2.8984-6.1016 6.3008v2.6992h-1.6992v9.0977 0.20312c0 2.5977 2 4.6992 4.3984 4.6992h7.1992c2.4023 0 4.3008-2.1016 4.3008-4.6992v-0.20312-9.0977h-1.5977v-2.6992c0-3.5-2.8008-6.3008-6.3008-6.3008h-0.19922zm0 1.8008h0.097657c2 0 4 1.5 4.4023 3.3984 0 1.3008 0.09766 2.5 0.09766 3.8008h-8.8008v-1.8008c-0.5974-2.6016 1.6018-5.3008 4.2034-5.3984zm0.19922 10.5h0.30078c1 0.19922 1.6992 1.0977 1.5 2.1992 0 0.39844-0.30078 0.80078-0.60156 1.0977l0.602 4.101h-3.7036l0.7032-4.102c-0.5-0.39844-0.80078-1-0.70312-1.6992 0.20312-0.89844 1-1.5977 1.9023-1.5977z"
           fill-rule="evenodd"
           id="path7073" />
      </g>
    </g>
    <mask
       id="am">
      <g
         filter="url(#aj)"
         id="g7076">
        <rect
           fill-opacity="0.98"
           height="842"
           width="595"
           y="0"
           x="0"
           id="rect7078" />
      </g>
    </mask>
    <clipPath
       id="bn">
      <path
         d="m0.19922 0.19922h15.801v23.199h-15.801z"
         id="path7081" />
    </clipPath>
    <clipPath
       id="bo">
      <rect
         y="0"
         width="17"
         x="0"
         height="24"
         id="rect7084" />
    </clipPath>
    <g
       id="ak"
       clip-path="url(#bo)">
      <g
         clip-path="url(#bn)"
         id="g7087">
        <path
           d="m7.8984 0.30078c-3.3984 0.09766-6.0976 2.8984-6.0976 6.3008v2.6992h-1.6016v9.0977 0.20312c0 2.5977 1.9023 4.6992 4.3008 4.6992h7.1992c2.403 0 4.301-2.102 4.301-4.699v-0.204-9.0977h-1.6016v-2.6992c0-3.5-2.7969-6.3008-6.2969-6.3008h-0.20312zm0 1.8008h0.10156c2 0 4 1.5 4.3984 3.3984 0.102 1.3008 0.102 2.5 0.102 3.8008h-8.8008v-1.8008c-0.5-2.6016 1.6016-5.3008 4.1992-5.3984zm0.20312 10.5h0.29688c1 0.19922 1.7031 1.0977 1.6016 2.1992-0.10156 0.39844-0.39844 0.80078-0.69922 1.0977l0.6992 4.101h-3.6992l0.5976-4.102c-0.5-0.39844-0.69922-1-0.59766-1.6992 0.097657-0.89844 0.89844-1.5977 1.8008-1.5977z"
           fill-rule="evenodd"
           id="path7089" />
      </g>
    </g>
  </defs>
  <use
     xlink:href="#a"
     transform="translate(-65.041 -99.694)"
     height="100%"
     width="100%"
     y="67.099998"
     x="72.100998"
     fill="#000000"
     id="use7091" />
  <use
     xlink:href="#a"
     transform="translate(-65.041 -99.694)"
     height="100%"
     width="100%"
     y="67.099998"
     x="115.122"
     fill="#000000"
     id="use7093" />
  <use
     xlink:href="#a"
     transform="translate(-65.041 -99.694)"
     height="100%"
     width="100%"
     y="67.099998"
     x="150.355"
     fill="#000000"
     id="use7095" />
  <use
     xlink:href="#a"
     transform="translate(-65.041 -99.694)"
     height="100%"
     width="100%"
     y="67.099998"
     x="169.726"
     fill="#000000"
     id="use7097" />
  <use
     xlink:href="#a"
     transform="translate(-65.041 -99.694)"
     height="100%"
     width="100%"
     y="67.099998"
     x="198.78799"
     fill="#000000"
     id="use7099" />
  <use
     xlink:href="#a"
     transform="translate(-65.041 -99.694)"
     height="100%"
     width="100%"
     y="67.099998"
     x="246.286"
     fill="#000000"
     id="use7101" />
  <use
     xlink:href="#a"
     transform="translate(-65.041 -99.694)"
     height="100%"
     width="100%"
     y="67.099998"
     x="263.952"
     fill="#000000"
     id="use7103" />
  <use
     xlink:href="#a"
     transform="translate(-65.041 -99.694)"
     height="100%"
     width="100%"
     y="67.099998"
     x="290.30801"
     fill="#000000"
     id="use7105" />
  <use
     xlink:href="#a"
     transform="translate(-65.041 -99.694)"
     height="100%"
     width="100%"
     y="67.099998"
     x="309.67899"
     fill="#000000"
     id="use7107" />
  <use
     xlink:href="#a"
     transform="translate(-65.041 -99.694)"
     height="100%"
     width="100%"
     y="67.099998"
     x="406.479"
     fill="#000000"
     id="use7109" />
  <use
     xlink:href="#a"
     transform="translate(-65.041 -99.694)"
     height="100%"
     width="100%"
     y="67.099998"
     x="459.27899"
     fill="#000000"
     id="use7111" />
  <use
     xlink:href="#a"
     transform="translate(-65.041 -99.694)"
     height="100%"
     width="100%"
     y="67.099998"
     x="497.548"
     fill="#000000"
     id="use7113" />
  <use
     xlink:href="#a"
     transform="translate(-65.041 -99.694)"
     height="100%"
     width="100%"
     y="67.099998"
     x="519.50403"
     fill="#000000"
     id="use7115" />
  <use
     xlink:href="#a"
     transform="translate(-65.041 -99.694)"
     height="100%"
     width="100%"
     y="82.900002"
     x="127.827"
     fill="#000000"
     id="use7117" />
  <use
     xlink:href="#a"
     transform="translate(-65.041 -99.694)"
     height="100%"
     width="100%"
     y="82.900002"
     x="145.416"
     fill="#000000"
     id="use7119" />
  <use
     xlink:href="#a"
     transform="translate(-65.041 -99.694)"
     height="100%"
     width="100%"
     y="82.900002"
     x="167.911"
     fill="#000000"
     id="use7121" />
  <use
     xlink:href="#a"
     transform="translate(-65.041 -99.694)"
     height="100%"
     width="100%"
     y="82.900002"
     x="195.675"
     fill="#000000"
     id="use7123" />
  <use
     xlink:href="#e"
     transform="translate(-65.041 -99.694)"
     height="100%"
     width="100%"
     y="326.39999"
     x="172.272"
     fill="#000000"
     id="use7125" />
  <use
     xlink:href="#e"
     transform="translate(-65.041 -99.694)"
     height="100%"
     width="100%"
     y="326.39999"
     x="245.19521"
     fill="#000000"
     id="use7127" />
  <use
     xlink:href="#g"
     transform="translate(-65.041 -99.694)"
     height="100%"
     width="100%"
     y="257.60001"
     x="232.16319"
     fill="#000000"
     id="use7129" />
  <use
     xlink:href="#g"
     transform="translate(-65.041 -99.694)"
     height="100%"
     width="100%"
     y="258"
     x="367.75439"
     fill="#000000"
     id="use7131" />
  <use
     xlink:href="#e"
     transform="translate(-65.041 -99.694)"
     height="100%"
     width="100%"
     y="134.89999"
     x="375.14481"
     fill="#000000"
     id="use7133" />
  <use
     xlink:href="#e"
     transform="translate(-65.041 -99.694)"
     height="100%"
     width="100%"
     y="134.89999"
     x="429.70001"
     fill="#000000"
     id="use7135" />
  <use
     xlink:href="#e"
     transform="translate(-65.041 -99.694)"
     height="100%"
     width="100%"
     y="148.89999"
     x="354.6824"
     fill="#000000"
     id="use7137" />
  <use
     xlink:href="#g"
     transform="translate(-65.041 -99.694)"
     height="100%"
     width="100%"
     y="289.20001"
     x="229.06641"
     fill="#000000"
     id="use7139" />
  <use
     xlink:href="#g"
     transform="translate(-65.041 -99.694)"
     height="100%"
     width="100%"
     y="289.20001"
     x="386.4552"
     fill="#000000"
     id="use7141" />
  <path
     style="fill-rule:evenodd"
     inkscape:connector-curvature="0"
     id="path7145"
     d="m 247.6468,55.00499 12.098,0 c 1.8008,0 3.2031,-1.3984 3.2031,-3.1992 l 0,-24.301 c 0,-1.8008 -1.4023,-3.1992 -3.2031,-3.1992 l -24.297,0 c -1.8008,0 -3.2031,1.3984 -3.2031,3.1992 l 0,24.301 c 0,1.8008 1.4023,3.1992 3.2031,3.1992 z" />
  <use
     style="fill:#ffffff"
     id="use7147"
     x="293.89999"
     y="148.3"
     width="100%"
     height="100%"
     transform="translate(-56.6542,-99.69401)"
     xlink:href="#bm" />
  <path
     style="fill-rule:evenodd"
     inkscape:connector-curvature="0"
     id="path7149"
     d="m 422.2468,239.30999 12.203,0 c 1.7969,0 3.1992,-1.5 3.1992,-3.1992 l 0,-24.301 c 0,-1.8008 -1.4023,-3.1992 -3.1992,-3.1992 l -24.301,0 c -1.8008,0 -3.1992,1.3984 -3.1992,3.1992 l 0,24.301 c 0,1.6992 1.3984,3.1992 3.1992,3.1992 z" />
  <use
     style="fill:#ffffff"
     id="use7151"
     x="470.20001"
     y="332.60001"
     width="100%"
     height="100%"
     transform="translate(-56.6542,-99.69401)"
     xlink:href="#bl" />
  <path
     style="fill-rule:evenodd"
     inkscape:connector-curvature="0"
     id="path7153"
     d="m 63.3458,239.30999 12.102,0 c 1.7969,0 3.1992,-1.5 3.1992,-3.1992 l 0,-24.301 c 0,-1.8008 -1.4023,-3.1992 -3.1992,-3.1992 l -24.301,0 c -1.8008,0 -3.1992,1.3984 -3.1992,3.1992 l 0,24.301 c 0,1.6992 1.3984,3.1992 3.1992,3.1992 z" />
  <use
     style="fill:#ffffff"
     id="use7155"
     x="112.2"
     y="332.60001"
     width="100%"
     height="100%"
     transform="translate(-56.6542,-99.69401)"
     xlink:href="#bk" />
  <use
     style="fill:#000000"
     id="use7157"
     x="285.29999"
     y="111.1"
     width="100%"
     height="100%"
     transform="translate(-56.6542,-99.69401)"
     xlink:href="#bj" />
  <use
     xlink:href="#ai"
     height="100%"
     width="100%"
     y="111.1"
     x="297.20401"
     id="use7161"
     transform="translate(-56.6542,-99.69401)" />
  <use
     xlink:href="#ah"
     height="100%"
     width="100%"
     y="111.1"
     x="305.58801"
     id="use7163"
     transform="translate(-56.6542,-99.69401)" />
  <use
     xlink:href="#ag"
     height="100%"
     width="100%"
     y="111.1"
     x="314.06799"
     id="use7165"
     transform="translate(-56.6542,-99.69401)" />
  <use
     xlink:href="#bi"
     height="100%"
     width="100%"
     y="328.60001"
     x="63.400002"
     id="use7169"
     transform="translate(-56.6542,-99.69401)" />
  <use
     style="fill:#000000"
     id="use7171"
     x="71.592003"
     y="328.60001"
     width="100%"
     height="100%"
     transform="translate(-56.6542,-99.69401)"
     xlink:href="#ag" />
  <use
     style="fill:#000000"
     id="use7173"
     x="79.384003"
     y="328.60001"
     width="100%"
     height="100%"
     transform="translate(-56.6542,-99.69401)"
     xlink:href="#bh" />
  <use
     style="fill:#000000"
     id="use7175"
     x="86.776001"
     y="328.60001"
     width="100%"
     height="100%"
     transform="translate(-56.6542,-99.69401)"
     xlink:href="#bg" />
  <use
     style="fill:#000000"
     id="use7177"
     x="505.60001"
     y="329"
     width="100%"
     height="100%"
     transform="translate(-56.6542,-99.69401)"
     xlink:href="#bf" />
  <use
     xlink:href="#ai"
     height="100%"
     width="100%"
     y="329"
     x="514.30402"
     id="use7181"
     transform="translate(-56.6542,-99.69401)" />
  <use
     xlink:href="#ah"
     height="100%"
     width="100%"
     y="329"
     x="522.68799"
     id="use7183"
     transform="translate(-56.6542,-99.69401)" />
  <use
     style="fill:#000000"
     id="use7185"
     x="147.8"
     y="326.39999"
     width="100%"
     height="100%"
     transform="translate(-56.6542,-99.69401)"
     xlink:href="#be" />
  <use
     style="fill:#000000"
     id="use7187"
     x="153.0976"
     y="326.39999"
     width="100%"
     height="100%"
     transform="translate(-56.6542,-99.69401)"
     xlink:href="#ac" />
  <use
     style="fill:#000000"
     id="use7189"
     x="158.888"
     y="326.39999"
     width="100%"
     height="100%"
     transform="translate(-56.6542,-99.69401)"
     xlink:href="#aa" />
  <use
     style="fill:#000000"
     id="use7191"
     x="164.77921"
     y="326.39999"
     width="100%"
     height="100%"
     transform="translate(-56.6542,-99.69401)"
     xlink:href="#i" />
  <use
     style="fill:#000000"
     id="use7193"
     x="168.3744"
     y="326.39999"
     width="100%"
     height="100%"
     transform="translate(-56.6542,-99.69401)"
     xlink:href="#h" />
  <use
     style="fill:#000000"
     id="use7195"
     x="175.06081"
     y="326.39999"
     width="100%"
     height="100%"
     transform="translate(-56.6542,-99.69401)"
     xlink:href="#z" />
  <use
     style="fill:#000000"
     id="use7197"
     x="181.26559"
     y="326.39999"
     width="100%"
     height="100%"
     transform="translate(-56.6542,-99.69401)"
     xlink:href="#i" />
  <use
     style="fill:#000000"
     id="use7199"
     x="184.75999"
     y="326.39999"
     width="100%"
     height="100%"
     transform="translate(-56.6542,-99.69401)"
     xlink:href="#y" />
  <use
     style="fill:#000000"
     id="use7201"
     x="190.6512"
     y="326.39999"
     width="100%"
     height="100%"
     transform="translate(-56.6542,-99.69401)"
     xlink:href="#x" />
  <use
     style="fill:#000000"
     id="use7203"
     x="196.24001"
     y="326.39999"
     width="100%"
     height="100%"
     transform="translate(-56.6542,-99.69401)"
     xlink:href="#i" />
  <use
     style="fill:#000000"
     id="use7205"
     x="199.83521"
     y="326.39999"
     width="100%"
     height="100%"
     transform="translate(-56.6542,-99.69401)"
     xlink:href="#r" />
  <use
     style="fill:#000000"
     id="use7207"
     x="205.0208"
     y="326.39999"
     width="100%"
     height="100%"
     transform="translate(-56.6542,-99.69401)"
     xlink:href="#af" />
  <use
     style="fill:#000000"
     id="use7209"
     x="214.0144"
     y="326.39999"
     width="100%"
     height="100%"
     transform="translate(-56.6542,-99.69401)"
     xlink:href="#af" />
  <use
     style="fill:#000000"
     id="use7211"
     x="223.008"
     y="326.39999"
     width="100%"
     height="100%"
     transform="translate(-56.6542,-99.69401)"
     xlink:href="#ae" />
  <use
     style="fill:#000000"
     id="use7213"
     x="228.0032"
     y="326.39999"
     width="100%"
     height="100%"
     transform="translate(-56.6542,-99.69401)"
     xlink:href="#y" />
  <use
     style="fill:#000000"
     id="use7215"
     x="233.89439"
     y="326.39999"
     width="100%"
     height="100%"
     transform="translate(-56.6542,-99.69401)"
     xlink:href="#bd" />
  <use
     style="fill:#000000"
     id="use7217"
     x="239.7968"
     y="326.39999"
     width="100%"
     height="100%"
     transform="translate(-56.6542,-99.69401)"
     xlink:href="#f" />
  <use
     style="fill:#000000"
     id="use7219"
     x="247.88319"
     y="326.39999"
     width="100%"
     height="100%"
     transform="translate(-56.6542,-99.69401)"
     xlink:href="#r" />
  <use
     style="fill:#000000"
     id="use7221"
     x="253.0688"
     y="326.39999"
     width="100%"
     height="100%"
     transform="translate(-56.6542,-99.69401)"
     xlink:href="#ad" />
  <use
     style="fill:#000000"
     id="use7223"
     x="258.85919"
     y="326.39999"
     width="100%"
     height="100%"
     transform="translate(-56.6542,-99.69401)"
     xlink:href="#q" />
  <path
     style="fill:none;stroke:#000000;stroke-width:1.59969997;stroke-miterlimit:7.66130018"
     inkscape:connector-curvature="0"
     id="path7225"
     stroke-miterlimit="7.6613"
     d="m 93.0458,203.80999 134.4,-134.4" />
  <use
     style="fill:#000000"
     id="use7227"
     x="205.60001"
     y="257.60001"
     width="100%"
     height="100%"
     transform="translate(-56.6542,-99.69401)"
     xlink:href="#c" />
  <use
     style="fill:#000000"
     id="use7229"
     x="209.29601"
     y="257.60001"
     width="100%"
     height="100%"
     transform="translate(-56.6542,-99.69401)"
     xlink:href="#b" />
  <use
     style="fill:#000000"
     id="use7231"
     x="213.9904"
     y="257.60001"
     width="100%"
     height="100%"
     transform="translate(-56.6542,-99.69401)"
     xlink:href="#k" />
  <use
     style="fill:#000000"
     id="use7233"
     x="218.992"
     y="257.60001"
     width="100%"
     height="100%"
     transform="translate(-56.6542,-99.69401)"
     xlink:href="#s" />
  <use
     style="fill:#000000"
     id="use7235"
     x="224.08"
     y="257.60001"
     width="100%"
     height="100%"
     transform="translate(-56.6542,-99.69401)"
     xlink:href="#b" />
  <use
     style="fill:#000000"
     id="use7237"
     x="228.7744"
     y="257.60001"
     width="100%"
     height="100%"
     transform="translate(-56.6542,-99.69401)"
     xlink:href="#d" />
  <use
     style="fill:#000000"
     id="use7239"
     x="234.5536"
     y="257.60001"
     width="100%"
     height="100%"
     transform="translate(-56.6542,-99.69401)"
     xlink:href="#n" />
  <use
     style="fill:#000000"
     id="use7241"
     x="240.0544"
     y="257.60001"
     width="100%"
     height="100%"
     transform="translate(-56.6542,-99.69401)"
     xlink:href="#b" />
  <use
     style="fill:#000000"
     id="use7243"
     x="244.74879"
     y="257.60001"
     width="100%"
     height="100%"
     transform="translate(-56.6542,-99.69401)"
     xlink:href="#m" />
  <use
     style="fill:#000000"
     id="use7245"
     x="249.7408"
     y="257.60001"
     width="100%"
     height="100%"
     transform="translate(-56.6542,-99.69401)"
     xlink:href="#j" />
  <use
     style="fill:#000000"
     id="use7247"
     x="254.6368"
     y="257.60001"
     width="100%"
     height="100%"
     transform="translate(-56.6542,-99.69401)"
     xlink:href="#b" />
  <use
     style="fill:#000000"
     id="use7249"
     x="259.33121"
     y="257.60001"
     width="100%"
     height="100%"
     transform="translate(-56.6542,-99.69401)"
     xlink:href="#c" />
  <use
     style="fill:#000000"
     id="use7251"
     x="263.02719"
     y="257.60001"
     width="100%"
     height="100%"
     transform="translate(-56.6542,-99.69401)"
     xlink:href="#d" />
  <path
     style="fill:none;stroke:#000000;stroke-width:1.59969997;stroke-miterlimit:7.66130018"
     inkscape:connector-curvature="0"
     id="path7253"
     stroke-miterlimit="7.6613"
     d="m 267.7468,69.40799 124.8,134.4" />
  <use
     style="fill:#000000"
     id="use7255"
     x="314.10001"
     y="258"
     width="100%"
     height="100%"
     transform="translate(-56.6542,-99.69401)"
     xlink:href="#as" />
  <use
     style="fill:#000000"
     id="use7257"
     x="322.79761"
     y="258"
     width="100%"
     height="100%"
     transform="translate(-56.6542,-99.69401)"
     xlink:href="#b" />
  <use
     style="fill:#000000"
     id="use7259"
     x="327.492"
     y="258"
     width="100%"
     height="100%"
     transform="translate(-56.6542,-99.69401)"
     xlink:href="#o" />
  <use
     style="fill:#000000"
     id="use7261"
     x="329.59439"
     y="258"
     width="100%"
     height="100%"
     transform="translate(-56.6542,-99.69401)"
     xlink:href="#d" />
  <use
     style="fill:#000000"
     id="use7263"
     x="332.98318"
     y="258"
     width="100%"
     height="100%"
     transform="translate(-56.6542,-99.69401)"
     xlink:href="#b" />
  <use
     style="fill:#000000"
     id="use7265"
     x="337.67761"
     y="258"
     width="100%"
     height="100%"
     transform="translate(-56.6542,-99.69401)"
     xlink:href="#p" />
  <use
     style="fill:#000000"
     id="use7267"
     x="340.77841"
     y="258"
     width="100%"
     height="100%"
     transform="translate(-56.6542,-99.69401)"
     xlink:href="#l" />
  <use
     style="fill:#000000"
     id="use7269"
     x="342.8808"
     y="258"
     width="100%"
     height="100%"
     transform="translate(-56.6542,-99.69401)"
     xlink:href="#b" />
  <use
     style="fill:#000000"
     id="use7271"
     x="347.5752"
     y="258"
     width="100%"
     height="100%"
     transform="translate(-56.6542,-99.69401)"
     xlink:href="#o" />
  <use
     style="fill:#000000"
     id="use7273"
     x="349.67761"
     y="258"
     width="100%"
     height="100%"
     transform="translate(-56.6542,-99.69401)"
     xlink:href="#d" />
  <use
     style="fill:#000000"
     id="use7275"
     x="353.06641"
     y="258"
     width="100%"
     height="100%"
     transform="translate(-56.6542,-99.69401)"
     xlink:href="#j" />
  <use
     style="fill:#000000"
     id="use7277"
     x="357.9624"
     y="258"
     width="100%"
     height="100%"
     transform="translate(-56.6542,-99.69401)"
     xlink:href="#k" />
  <use
     style="fill:#000000"
     id="use7279"
     x="362.96399"
     y="258"
     width="100%"
     height="100%"
     transform="translate(-56.6542,-99.69401)"
     xlink:href="#w" />
  <use
     style="fill:#000000"
     id="use7281"
     x="370.05841"
     y="258"
     width="100%"
     height="100%"
     transform="translate(-56.6542,-99.69401)"
     xlink:href="#ar" />
  <use
     style="fill:#000000"
     id="use7283"
     x="374.4552"
     y="258"
     width="100%"
     height="100%"
     transform="translate(-56.6542,-99.69401)"
     xlink:href="#k" />
  <use
     style="fill:#000000"
     id="use7285"
     x="381.8472"
     y="258"
     width="100%"
     height="100%"
     transform="translate(-56.6542,-99.69401)"
     xlink:href="#aq" />
  <use
     style="fill:#000000"
     id="use7287"
     x="387.05042"
     y="258"
     width="100%"
     height="100%"
     transform="translate(-56.6542,-99.69401)"
     xlink:href="#ap" />
  <use
     style="fill:#000000"
     id="use7289"
     x="392.052"
     y="258"
     width="100%"
     height="100%"
     transform="translate(-56.6542,-99.69401)"
     xlink:href="#s" />
  <use
     style="fill:#000000"
     id="use7291"
     x="331.70001"
     y="134.89999"
     width="100%"
     height="100%"
     transform="translate(-56.6542,-91.322814)"
     xlink:href="#bc" />
  <use
     style="fill:#000000"
     id="use7293"
     x="337.49039"
     y="134.89999"
     width="100%"
     height="100%"
     transform="translate(-56.6542,-91.322814)"
     xlink:href="#f" />
  <use
     style="fill:#000000"
     id="use7295"
     x="342.88879"
     y="134.89999"
     width="100%"
     height="100%"
     transform="translate(-56.6542,-91.322814)"
     xlink:href="#bb" />
  <use
     style="fill:#000000"
     id="use7297"
     x="345.37521"
     y="134.89999"
     width="100%"
     height="100%"
     transform="translate(-56.6542,-91.322814)"
     xlink:href="#f" />
  <use
     style="fill:#000000"
     id="use7299"
     x="350.77359"
     y="134.89999"
     width="100%"
     height="100%"
     transform="translate(-56.6542,-91.322814)"
     xlink:href="#ba" />
  <use
     style="fill:#000000"
     id="use7301"
     x="355.8696"
     y="134.89999"
     width="100%"
     height="100%"
     transform="translate(-56.6542,-91.322814)"
     xlink:href="#h" />
  <use
     style="fill:#000000"
     id="use7303"
     x="359.76721"
     y="134.89999"
     width="100%"
     height="100%"
     transform="translate(-56.6542,-91.322814)"
     xlink:href="#ab" />
  <use
     style="fill:#000000"
     id="use7305"
     x="362.2536"
     y="134.89999"
     width="100%"
     height="100%"
     transform="translate(-56.6542,-91.322814)"
     xlink:href="#f" />
  <use
     style="fill:#000000"
     id="use7307"
     x="367.65201"
     y="134.89999"
     width="100%"
     height="100%"
     transform="translate(-56.6542,-91.322814)"
     xlink:href="#i" />
  <use
     style="fill:#000000"
     id="use7309"
     x="371.24719"
     y="134.89999"
     width="100%"
     height="100%"
     transform="translate(-56.6542,-91.322814)"
     xlink:href="#h" />
  <use
     style="fill:#000000"
     id="use7311"
     x="377.93359"
     y="134.89999"
     width="100%"
     height="100%"
     transform="translate(-56.6542,-91.322814)"
     xlink:href="#az" />
  <use
     style="fill:#000000"
     id="use7313"
     x="386.01999"
     y="134.89999"
     width="100%"
     height="100%"
     transform="translate(-56.6542,-91.322814)"
     xlink:href="#r" />
  <use
     style="fill:#000000"
     id="use7315"
     x="391.116"
     y="134.89999"
     width="100%"
     height="100%"
     transform="translate(-56.6542,-91.322814)"
     xlink:href="#h" />
  <use
     style="fill:#000000"
     id="use7317"
     x="395.01361"
     y="134.89999"
     width="100%"
     height="100%"
     transform="translate(-56.6542,-91.322814)"
     xlink:href="#f" />
  <use
     style="fill:#000000"
     id="use7319"
     x="400.41199"
     y="134.89999"
     width="100%"
     height="100%"
     transform="translate(-56.6542,-91.322814)"
     xlink:href="#ay" />
  <use
     style="fill:#000000"
     id="use7321"
     x="406.30319"
     y="134.89999"
     width="100%"
     height="100%"
     transform="translate(-56.6542,-91.322814)"
     xlink:href="#q" />
  <use
     style="fill:#000000"
     id="use7323"
     x="410.604"
     y="134.89999"
     width="100%"
     height="100%"
     transform="translate(-56.6542,-91.322814)"
     xlink:href="#ax" />
  <use
     style="fill:#000000"
     id="use7325"
     x="415.70001"
     y="134.89999"
     width="100%"
     height="100%"
     transform="translate(-56.6542,-91.322814)"
     xlink:href="#h" />
  <use
     style="fill:#000000"
     id="use7327"
     x="419.5976"
     y="134.89999"
     width="100%"
     height="100%"
     transform="translate(-56.6542,-91.322814)"
     xlink:href="#aw" />
  <use
     style="fill:#000000"
     id="use7329"
     x="424.30161"
     y="134.89999"
     width="100%"
     height="100%"
     transform="translate(-56.6542,-91.322814)"
     xlink:href="#f" />
  <use
     id="use7367"
     x="0"
     y="0"
     width="100%"
     height="100%"
     transform="translate(101.3458,171.30999)"
     mask="url(#an)"
     xlink:href="#al" />
  <use
     style="fill:#000000"
     id="use7369"
     x="179.3"
     y="289.20001"
     width="100%"
     height="100%"
     transform="translate(-56.6542,-99.69401)"
     xlink:href="#ao" />
  <use
     style="fill:#000000"
     id="use7371"
     x="183.6008"
     y="289.20001"
     width="100%"
     height="100%"
     transform="translate(-56.6542,-99.69401)"
     xlink:href="#b" />
  <use
     style="fill:#000000"
     id="use7373"
     x="188.2952"
     y="289.20001"
     width="100%"
     height="100%"
     transform="translate(-56.6542,-99.69401)"
     xlink:href="#p" />
  <use
     style="fill:#000000"
     id="use7375"
     x="191.396"
     y="289.20001"
     width="100%"
     height="100%"
     transform="translate(-56.6542,-99.69401)"
     xlink:href="#c" />
  <use
     style="fill:#000000"
     id="use7377"
     x="195.092"
     y="289.20001"
     width="100%"
     height="100%"
     transform="translate(-56.6542,-99.69401)"
     xlink:href="#v" />
  <use
     style="fill:#000000"
     id="use7379"
     x="199.39281"
     y="289.20001"
     width="100%"
     height="100%"
     transform="translate(-56.6542,-99.69401)"
     xlink:href="#u" />
  <use
     style="fill:#000000"
     id="use7381"
     x="204.39439"
     y="289.20001"
     width="100%"
     height="100%"
     transform="translate(-56.6542,-99.69401)"
     xlink:href="#l" />
  <use
     style="fill:#000000"
     id="use7383"
     x="206.4968"
     y="289.20001"
     width="100%"
     height="100%"
     transform="translate(-56.6542,-99.69401)"
     xlink:href="#t" />
  <use
     style="fill:#000000"
     id="use7385"
     x="211.4888"
     y="289.20001"
     width="100%"
     height="100%"
     transform="translate(-56.6542,-99.69401)"
     xlink:href="#c" />
  <use
     style="fill:#000000"
     id="use7387"
     x="215.1848"
     y="289.20001"
     width="100%"
     height="100%"
     transform="translate(-56.6542,-99.69401)"
     xlink:href="#c" />
  <use
     style="fill:#000000"
     id="use7389"
     x="218.8808"
     y="289.20001"
     width="100%"
     height="100%"
     transform="translate(-56.6542,-99.69401)"
     xlink:href="#b" />
  <use
     style="fill:#000000"
     id="use7391"
     x="223.5752"
     y="289.20001"
     width="100%"
     height="100%"
     transform="translate(-56.6542,-99.69401)"
     xlink:href="#l" />
  <use
     style="fill:#000000"
     id="use7393"
     x="225.6776"
     y="289.20001"
     width="100%"
     height="100%"
     transform="translate(-56.6542,-99.69401)"
     xlink:href="#d" />
  <use
     style="fill:#000000"
     id="use7395"
     x="231.4568"
     y="289.20001"
     width="100%"
     height="100%"
     transform="translate(-56.6542,-99.69401)"
     xlink:href="#n" />
  <use
     style="fill:#000000"
     id="use7397"
     x="236.9576"
     y="289.20001"
     width="100%"
     height="100%"
     transform="translate(-56.6542,-99.69401)"
     xlink:href="#b" />
  <use
     style="fill:#000000"
     id="use7399"
     x="241.65199"
     y="289.20001"
     width="100%"
     height="100%"
     transform="translate(-56.6542,-99.69401)"
     xlink:href="#m" />
  <use
     style="fill:#000000"
     id="use7401"
     x="246.644"
     y="289.20001"
     width="100%"
     height="100%"
     transform="translate(-56.6542,-99.69401)"
     xlink:href="#j" />
  <use
     style="fill:#000000"
     id="use7403"
     x="251.53999"
     y="289.20001"
     width="100%"
     height="100%"
     transform="translate(-56.6542,-99.69401)"
     xlink:href="#b" />
  <use
     style="fill:#000000"
     id="use7405"
     x="256.23441"
     y="289.20001"
     width="100%"
     height="100%"
     transform="translate(-56.6542,-99.69401)"
     xlink:href="#c" />
  <use
     style="fill:#000000"
     id="use7407"
     x="259.93039"
     y="289.20001"
     width="100%"
     height="100%"
     transform="translate(-56.6542,-99.69401)"
     xlink:href="#d" />
  <use
     style="fill:#000000"
     id="use7409"
     x="352.10001"
     y="187"
     width="100%"
     height="100%"
     transform="translate(-56.6542,-99.69401)"
     xlink:href="#c" />
  <use
     style="fill:#000000"
     id="use7411"
     x="355.79599"
     y="187"
     width="100%"
     height="100%"
     transform="translate(-56.6542,-99.69401)"
     xlink:href="#o" />
  <use
     style="fill:#000000"
     id="use7413"
     x="357.89841"
     y="187"
     width="100%"
     height="100%"
     transform="translate(-56.6542,-99.69401)"
     xlink:href="#w" />
  <use
     style="fill:#000000"
     id="use7415"
     x="362.68881"
     y="187"
     width="100%"
     height="100%"
     transform="translate(-56.6542,-99.69401)"
     xlink:href="#k" />
  <use
     style="fill:#000000"
     id="use7417"
     x="367.6904"
     y="187"
     width="100%"
     height="100%"
     transform="translate(-56.6542,-99.69401)"
     xlink:href="#o" />
  <use
     style="fill:#000000"
     id="use7419"
     x="369.79279"
     y="187"
     width="100%"
     height="100%"
     transform="translate(-56.6542,-99.69401)"
     xlink:href="#b" />
  <use
     style="fill:#000000"
     id="use7421"
     x="374.48721"
     y="187"
     width="100%"
     height="100%"
     transform="translate(-56.6542,-99.69401)"
     xlink:href="#p" />
  <use
     style="fill:#000000"
     id="use7423"
     x="377.58801"
     y="187"
     width="100%"
     height="100%"
     transform="translate(-56.6542,-99.69401)"
     xlink:href="#d" />
  <use
     style="fill:#000000"
     id="use7425"
     x="383.36719"
     y="187"
     width="100%"
     height="100%"
     transform="translate(-56.6542,-99.69401)"
     xlink:href="#n" />
  <use
     style="fill:#000000"
     id="use7427"
     x="388.86801"
     y="187"
     width="100%"
     height="100%"
     transform="translate(-56.6542,-99.69401)"
     xlink:href="#b" />
  <use
     style="fill:#000000"
     id="use7429"
     x="393.56241"
     y="187"
     width="100%"
     height="100%"
     transform="translate(-56.6542,-99.69401)"
     xlink:href="#m" />
  <use
     style="fill:#000000"
     id="use7431"
     x="398.55441"
     y="187"
     width="100%"
     height="100%"
     transform="translate(-56.6542,-99.69401)"
     xlink:href="#j" />
  <use
     style="fill:#000000"
     id="use7433"
     x="403.45041"
     y="187"
     width="100%"
     height="100%"
     transform="translate(-56.6542,-99.69401)"
     xlink:href="#b" />
  <use
     style="fill:#000000"
     id="use7435"
     x="408.14481"
     y="187"
     width="100%"
     height="100%"
     transform="translate(-56.6542,-99.69401)"
     xlink:href="#c" />
  <use
     style="fill:#000000"
     id="use7437"
     x="411.84079"
     y="187"
     width="100%"
     height="100%"
     transform="translate(-56.6542,-99.69401)"
     xlink:href="#d" />
  <path
     style="fill-rule:evenodd"
     inkscape:connector-curvature="0"
     id="path7439"
     d="m 272.4468,89.40799 c 0,0.0977 -5.4023,3 -5.4023,3 l 2.9023,-5.4023 c 0.0977,0 2.5,2.4023 2.5,2.4023 z m -1.7031,-3.7031 c 0,-0.0977 3,-3.0977 6.6016,-6.6992 l 6.6016,-6.5977 1.5977,1.5 1.5,1.5977 -6.5977,6.6016 c -3.6016,3.5977 -6.6016,6.5977 -6.7031,6.5977 l -1.5,-1.5 -1.5,-1.5 z m 15.801,-12.797 -1.5977,-1.5 1.0977,-1 c 0.5,-0.60156 1,-1.1016 1,-1.1016 0.10156,0 3.1016,3 3.1016,3.1016 0,0 -0.5,0.5 -1.1016,1 l -1,1 z" />
  <use
     id="use7441"
     x="0"
     y="0"
     width="100%"
     height="100%"
     transform="translate(368.3468,171.30999)"
     mask="url(#am)"
     xlink:href="#ak" />
  <use
     style="fill:#000000"
     id="use7443"
     x="335.70001"
     y="289.20001"
     width="100%"
     height="100%"
     transform="translate(-56.6542,-99.69401)"
     xlink:href="#b" />
  <use
     style="fill:#000000"
     id="use7445"
     x="340.39441"
     y="289.20001"
     width="100%"
     height="100%"
     transform="translate(-56.6542,-99.69401)"
     xlink:href="#k" />
  <use
     style="fill:#000000"
     id="use7447"
     x="345.396"
     y="289.20001"
     width="100%"
     height="100%"
     transform="translate(-56.6542,-99.69401)"
     xlink:href="#d" />
  <use
     style="fill:#000000"
     id="use7449"
     x="348.78479"
     y="289.20001"
     width="100%"
     height="100%"
     transform="translate(-56.6542,-99.69401)"
     xlink:href="#c" />
  <use
     style="fill:#000000"
     id="use7451"
     x="352.4808"
     y="289.20001"
     width="100%"
     height="100%"
     transform="translate(-56.6542,-99.69401)"
     xlink:href="#v" />
  <use
     style="fill:#000000"
     id="use7453"
     x="356.78159"
     y="289.20001"
     width="100%"
     height="100%"
     transform="translate(-56.6542,-99.69401)"
     xlink:href="#u" />
  <use
     style="fill:#000000"
     id="use7455"
     x="361.7832"
     y="289.20001"
     width="100%"
     height="100%"
     transform="translate(-56.6542,-99.69401)"
     xlink:href="#l" />
  <use
     style="fill:#000000"
     id="use7457"
     x="363.88559"
     y="289.20001"
     width="100%"
     height="100%"
     transform="translate(-56.6542,-99.69401)"
     xlink:href="#t" />
  <use
     style="fill:#000000"
     id="use7459"
     x="368.87759"
     y="289.20001"
     width="100%"
     height="100%"
     transform="translate(-56.6542,-99.69401)"
     xlink:href="#c" />
  <use
     style="fill:#000000"
     id="use7461"
     x="372.57361"
     y="289.20001"
     width="100%"
     height="100%"
     transform="translate(-56.6542,-99.69401)"
     xlink:href="#c" />
  <use
     style="fill:#000000"
     id="use7463"
     x="376.26959"
     y="289.20001"
     width="100%"
     height="100%"
     transform="translate(-56.6542,-99.69401)"
     xlink:href="#b" />
  <use
     style="fill:#000000"
     id="use7465"
     x="380.96399"
     y="289.20001"
     width="100%"
     height="100%"
     transform="translate(-56.6542,-99.69401)"
     xlink:href="#l" />
  <use
     style="fill:#000000"
     id="use7467"
     x="383.06641"
     y="289.20001"
     width="100%"
     height="100%"
     transform="translate(-56.6542,-99.69401)"
     xlink:href="#d" />
  <use
     style="fill:#000000"
     id="use7469"
     x="388.84561"
     y="289.20001"
     width="100%"
     height="100%"
     transform="translate(-56.6542,-99.69401)"
     xlink:href="#n" />
  <use
     style="fill:#000000"
     id="use7471"
     x="394.34641"
     y="289.20001"
     width="100%"
     height="100%"
     transform="translate(-56.6542,-99.69401)"
     xlink:href="#b" />
  <use
     style="fill:#000000"
     id="use7473"
     x="399.0408"
     y="289.20001"
     width="100%"
     height="100%"
     transform="translate(-56.6542,-99.69401)"
     xlink:href="#m" />
  <use
     style="fill:#000000"
     id="use7475"
     x="404.03281"
     y="289.20001"
     width="100%"
     height="100%"
     transform="translate(-56.6542,-99.69401)"
     xlink:href="#j" />
  <use
     style="fill:#000000"
     id="use7477"
     x="408.9288"
     y="289.20001"
     width="100%"
     height="100%"
     transform="translate(-56.6542,-99.69401)"
     xlink:href="#b" />
  <use
     style="fill:#000000"
     id="use7479"
     x="413.6232"
     y="289.20001"
     width="100%"
     height="100%"
     transform="translate(-56.6542,-99.69401)"
     xlink:href="#c" />
  <use
     style="fill:#000000"
     id="use7481"
     x="417.31921"
     y="289.20001"
     width="100%"
     height="100%"
     transform="translate(-56.6542,-99.69401)"
     xlink:href="#d" />
  <use
     xlink:href="#a"
     transform="translate(-65.041 -99.694)"
     height="100%"
     width="100%"
     y="363.29999"
     x="87.248001"
     fill="#000000"
     id="use7483" />
  <use
     xlink:href="#a"
     transform="translate(-65.041 -99.694)"
     height="100%"
     width="100%"
     y="363.29999"
     x="105.024"
     fill="#000000"
     id="use7485" />
  <use
     xlink:href="#a"
     transform="translate(-65.041 -99.694)"
     height="100%"
     width="100%"
     y="363.29999"
     x="127.695"
     fill="#000000"
     id="use7487" />
  <use
     xlink:href="#a"
     transform="translate(-65.041 -99.694)"
     height="100%"
     width="100%"
     y="363.29999"
     x="158.67101"
     fill="#000000"
     id="use7489" />
  <use
     xlink:href="#a"
     transform="translate(-65.041 -99.694)"
     height="100%"
     width="100%"
     y="363.29999"
     x="176.02901"
     fill="#000000"
     id="use7491" />
  <use
     xlink:href="#a"
     transform="translate(-65.041 -99.694)"
     height="100%"
     width="100%"
     y="363.29999"
     x="201.494"
     fill="#000000"
     id="use7493" />
  <use
     xlink:href="#a"
     transform="translate(-65.041 -99.694)"
     height="100%"
     width="100%"
     y="363.29999"
     x="240.533"
     fill="#000000"
     id="use7495" />
  <use
     xlink:href="#a"
     transform="translate(-65.041 -99.694)"
     height="100%"
     width="100%"
     y="363.29999"
     x="284.24701"
     fill="#000000"
     id="use7497" />
  <use
     xlink:href="#a"
     transform="translate(-65.041 -99.694)"
     height="100%"
     width="100%"
     y="363.29999"
     x="307.017"
     fill="#000000"
     id="use7499" />
  <use
     xlink:href="#a"
     transform="translate(-65.041 -99.694)"
     height="100%"
     width="100%"
     y="363.29999"
     x="328.896"
     fill="#000000"
     id="use7501" />
  <use
     xlink:href="#a"
     transform="translate(-65.041 -99.694)"
     height="100%"
     width="100%"
     y="363.29999"
     x="367.616"
     fill="#000000"
     id="use7503" />
  <use
     xlink:href="#a"
     transform="translate(-65.041 -99.694)"
     height="100%"
     width="100%"
     y="363.29999"
     x="418.02899"
     fill="#000000"
     id="use7505" />
  <use
     xlink:href="#a"
     transform="translate(-65.041 -99.694)"
     height="100%"
     width="100%"
     y="363.29999"
     x="480.45401"
     fill="#000000"
     id="use7507" />
  <use
     xlink:href="#a"
     transform="translate(-65.041 -99.694)"
     height="100%"
     width="100%"
     y="363.29999"
     x="516.50098"
     fill="#000000"
     id="use7509" />
  <use
     xlink:href="#a"
     transform="translate(-65.041 -99.694)"
     height="100%"
     width="100%"
     y="379.10001"
     x="67.679001"
     fill="#000000"
     id="use7511" />
  <use
     xlink:href="#a"
     transform="translate(-65.041 -99.694)"
     height="100%"
     width="100%"
     y="379.10001"
     x="92.649002"
     fill="#000000"
     id="use7513" />
  <use
     xlink:href="#a"
     transform="translate(-65.041 -99.694)"
     height="100%"
     width="100%"
     y="379.10001"
     x="125.913"
     fill="#000000"
     id="use7515" />
  <use
     xlink:href="#a"
     transform="translate(-65.041 -99.694)"
     height="100%"
     width="100%"
     y="379.10001"
     x="177.84399"
     fill="#000000"
     id="use7517" />
  <use
     xlink:href="#a"
     transform="translate(-65.041 -99.694)"
     height="100%"
     width="100%"
     y="379.10001"
     x="223.45"
     fill="#000000"
     id="use7519" />
  <use
     xlink:href="#a"
     transform="translate(-65.041 -99.694)"
     height="100%"
     width="100%"
     y="379.10001"
     x="248.80499"
     fill="#000000"
     id="use7521" />
  <use
     xlink:href="#a"
     transform="translate(-65.041 -99.694)"
     height="100%"
     width="100%"
     y="379.10001"
     x="328.44501"
     fill="#000000"
     id="use7523" />
  <use
     xlink:href="#a"
     transform="translate(-65.041 -99.694)"
     height="100%"
     width="100%"
     y="379.10001"
     x="373.66599"
     fill="#000000"
     id="use7525" />
  <use
     xlink:href="#a"
     transform="translate(-65.041 -99.694)"
     height="100%"
     width="100%"
     y="379.10001"
     x="406.02802"
     fill="#000000"
     id="use7527" />
  <use
     xlink:href="#a"
     transform="translate(-65.041 -99.694)"
     height="100%"
     width="100%"
     y="379.10001"
     x="429.194"
     fill="#000000"
     id="use7529" />
  <use
     xlink:href="#a"
     transform="translate(-65.041 -99.694)"
     height="100%"
     width="100%"
     y="379.10001"
     x="457.17801"
     fill="#000000"
     id="use7531" />
  <use
     xlink:href="#a"
     transform="translate(-65.041 -99.694)"
     height="100%"
     width="100%"
     y="394.89999"
     x="123.845"
     fill="#000000"
     id="use7533" />
  <use
     xlink:href="#a"
     transform="translate(-65.041 -99.694)"
     height="100%"
     width="100%"
     y="394.89999"
     x="143.99699"
     fill="#000000"
     id="use7535" />
  <use
     xlink:href="#a"
     transform="translate(-65.041 -99.694)"
     height="100%"
     width="100%"
     y="394.89999"
     x="164.886"
     fill="#000000"
     id="use7537" />
  <use
     xlink:href="#a"
     transform="translate(-65.041 -99.694)"
     height="100%"
     width="100%"
     y="394.89999"
     x="210.91"
     fill="#000000"
     id="use7539" />
  <use
     xlink:href="#a"
     transform="translate(-65.041 -99.694)"
     height="100%"
     width="100%"
     y="394.89999"
     x="265.569"
     fill="#000000"
     id="use7541" />
  <use
     xlink:href="#a"
     transform="translate(-65.041 -99.694)"
     height="100%"
     width="100%"
     y="394.89999"
     x="294.63101"
     fill="#000000"
     id="use7543" />
  <use
     xlink:href="#a"
     transform="translate(-65.041 -99.694)"
     height="100%"
     width="100%"
     y="394.89999"
     x="315.51999"
     fill="#000000"
     id="use7545" />
  <use
     xlink:href="#a"
     transform="translate(-65.041 -99.694)"
     height="100%"
     width="100%"
     y="394.89999"
     x="358.54099"
     fill="#000000"
     id="use7547" />
  <use
     xlink:href="#a"
     transform="translate(-65.041 -99.694)"
     height="100%"
     width="100%"
     y="394.89999"
     x="409.59201"
     fill="#000000"
     id="use7549" />
  <use
     xlink:href="#a"
     transform="translate(-65.041 -99.694)"
     height="100%"
     width="100%"
     y="394.89999"
     x="439.336"
     fill="#000000"
     id="use7551" />
  <use
     xlink:href="#a"
     transform="translate(-65.041 -99.694)"
     height="100%"
     width="100%"
     y="394.89999"
     x="461.72101"
     fill="#000000"
     id="use7553" />
  <use
     xlink:href="#a"
     transform="translate(-65.041 -99.694)"
     height="100%"
     width="100%"
     y="394.89999"
     x="489.01199"
     fill="#000000"
     id="use7555" />
  <use
     xlink:href="#a"
     transform="translate(-65.041 -99.694)"
     height="100%"
     width="100%"
     y="410.70001"
     x="178.05299"
     fill="#000000"
     id="use7557" />
  <use
     xlink:href="#a"
     transform="translate(-65.041 -99.694)"
     height="100%"
     width="100%"
     y="410.70001"
     x="217.39999"
     fill="#000000"
     id="use7559" />
  <use
     xlink:href="#a"
     transform="translate(-65.041 -99.694)"
     height="100%"
     width="100%"
     y="410.70001"
     x="259.85999"
     fill="#000000"
     id="use7561" />
  <use
     xlink:href="#a"
     transform="translate(-65.041 -99.694)"
     height="100%"
     width="100%"
     y="410.70001"
     x="280.73801"
     fill="#000000"
     id="use7563" />
  <use
     xlink:href="#a"
     transform="translate(-65.041 -99.694)"
     height="100%"
     width="100%"
     y="410.70001"
     x="305.91699"
     fill="#000000"
     id="use7565" />
  <use
     xlink:href="#a"
     transform="translate(-65.041 -99.694)"
     height="100%"
     width="100%"
     y="410.70001"
     x="361.26901"
     fill="#000000"
     id="use7567" />
  <use
     xlink:href="#a"
     transform="translate(-65.041 -99.694)"
     height="100%"
     width="100%"
     y="410.70001"
     x="441.55801"
     fill="#000000"
     id="use7569" />
  <use
     xlink:href="#a"
     transform="translate(-65.041 -99.694)"
     height="100%"
     width="100%"
     y="410.70001"
     x="462.216"
     fill="#000000"
     id="use7571" />
  <use
     xlink:href="#a"
     transform="translate(-65.041 -99.694)"
     height="100%"
     width="100%"
     y="410.70001"
     x="488.50601"
     fill="#000000"
     id="use7573" />
  <use
     xlink:href="#a"
     transform="translate(-65.041 -99.694)"
     height="100%"
     width="100%"
     y="410.70001"
     x="520.07599"
     fill="#000000"
     id="use7575" />
  <use
     xlink:href="#a"
     transform="translate(-65.041 -99.694)"
     height="100%"
     width="100%"
     y="426.5"
     x="112.427"
     fill="#000000"
     id="use7577" />
  <use
     xlink:href="#a"
     transform="translate(-65.041 -99.694)"
     height="100%"
     width="100%"
     y="426.5"
     x="125.187"
     fill="#000000"
     id="use7579" />
  <use
     xlink:href="#a"
     transform="translate(-65.041 -99.694)"
     height="100%"
     width="100%"
     y="426.5"
     x="158.847"
     fill="#000000"
     id="use7581" />
  <use
     xlink:href="#a"
     transform="translate(-65.041 -99.694)"
     height="100%"
     width="100%"
     y="447.89999"
     x="73.674004"
     fill="#000000"
     id="use7583" />
  <use
     xlink:href="#a"
     transform="translate(-65.041 -99.694)"
     height="100%"
     width="100%"
     y="447.89999"
     x="102.142"
     fill="#000000"
     id="use7585" />
  <use
     xlink:href="#a"
     transform="translate(-65.041 -99.694)"
     height="100%"
     width="100%"
     y="447.89999"
     x="127.684"
     fill="#000000"
     id="use7587" />
  <use
     xlink:href="#a"
     transform="translate(-65.041 -99.694)"
     height="100%"
     width="100%"
     y="447.89999"
     x="197.996"
     fill="#000000"
     id="use7589" />
  <use
     xlink:href="#a"
     transform="translate(-65.041 -99.694)"
     height="100%"
     width="100%"
     y="447.89999"
     x="214.782"
     fill="#000000"
     id="use7591" />
  <use
     xlink:href="#a"
     transform="translate(-65.041 -99.694)"
     height="100%"
     width="100%"
     y="447.89999"
     x="281.10101"
     fill="#000000"
     id="use7593" />
  <use
     xlink:href="#a"
     transform="translate(-65.041 -99.694)"
     height="100%"
     width="100%"
     y="447.89999"
     x="301.66"
     fill="#000000"
     id="use7595" />
  <use
     xlink:href="#a"
     transform="translate(-65.041 -99.694)"
     height="100%"
     width="100%"
     y="447.89999"
     x="341.70001"
     fill="#000000"
     id="use7597" />
  <use
     xlink:href="#a"
     transform="translate(-65.041 -99.694)"
     height="100%"
     width="100%"
     y="447.89999"
     x="358.48599"
     fill="#000000"
     id="use7599" />
  <use
     xlink:href="#a"
     transform="translate(-65.041 -99.694)"
     height="100%"
     width="100%"
     y="447.89999"
     x="437.85101"
     fill="#000000"
     id="use7601" />
  <use
     xlink:href="#a"
     transform="translate(-65.041 -99.694)"
     height="100%"
     width="100%"
     y="447.89999"
     x="476.27399"
     fill="#000000"
     id="use7603" />
  <use
     xlink:href="#a"
     transform="translate(-65.041 -99.694)"
     height="100%"
     width="100%"
     y="447.89999"
     x="494.24799"
     fill="#000000"
     id="use7605" />
  <use
     xlink:href="#a"
     transform="translate(-65.041 -99.694)"
     height="100%"
     width="100%"
     y="463.70001"
     x="67.975998"
     fill="#000000"
     id="use7607" />
  <use
     xlink:href="#a"
     transform="translate(-65.041 -99.694)"
     height="100%"
     width="100%"
     y="463.70001"
     x="97.433998"
     fill="#000000"
     id="use7609" />
  <use
     xlink:href="#a"
     transform="translate(-65.041 -99.694)"
     height="100%"
     width="100%"
     y="463.70001"
     x="119.907"
     fill="#000000"
     id="use7611" />
  <use
     xlink:href="#a"
     transform="translate(-65.041 -99.694)"
     height="100%"
     width="100%"
     y="463.70001"
     x="152.87399"
     fill="#000000"
     id="use7613" />
  <use
     xlink:href="#a"
     transform="translate(-65.041 -99.694)"
     height="100%"
     width="100%"
     y="463.70001"
     x="183.12399"
     fill="#000000"
     id="use7615" />
  <use
     xlink:href="#a"
     transform="translate(-65.041 -99.694)"
     height="100%"
     width="100%"
     y="463.70001"
     x="207.797"
     fill="#000000"
     id="use7617" />
  <use
     xlink:href="#a"
     transform="translate(-65.041 -99.694)"
     height="100%"
     width="100%"
     y="463.70001"
     x="253.623"
     fill="#000000"
     id="use7619" />
  <use
     xlink:href="#a"
     transform="translate(-65.041 -99.694)"
     height="100%"
     width="100%"
     y="463.70001"
     x="305.05899"
     fill="#000000"
     id="use7621" />
  <use
     xlink:href="#a"
     transform="translate(-65.041 -99.694)"
     height="100%"
     width="100%"
     y="463.70001"
     x="326.34399"
     fill="#000000"
     id="use7623" />
  <use
     xlink:href="#a"
     transform="translate(-65.041 -99.694)"
     height="100%"
     width="100%"
     y="463.70001"
     x="369.76099"
     fill="#000000"
     id="use7625" />
  <use
     xlink:href="#a"
     transform="translate(-65.041 -99.694)"
     height="100%"
     width="100%"
     y="463.70001"
     x="392.54199"
     fill="#000000"
     id="use7627" />
  <use
     xlink:href="#a"
     transform="translate(-65.041 -99.694)"
     height="100%"
     width="100%"
     y="463.70001"
     x="420.229"
     fill="#000000"
     id="use7629" />
  <use
     xlink:href="#a"
     transform="translate(-65.041 -99.694)"
     height="100%"
     width="100%"
     y="463.70001"
     x="500.353"
     fill="#000000"
     id="use7631" />
  <use
     xlink:href="#a"
     transform="translate(-65.041 -99.694)"
     height="100%"
     width="100%"
     y="479.5"
     x="178.05299"
     fill="#000000"
     id="use7633" />
  <use
     xlink:href="#a"
     transform="translate(-65.041 -99.694)"
     height="100%"
     width="100%"
     y="479.5"
     x="220.81"
     fill="#000000"
     id="use7635" />
  <use
     xlink:href="#a"
     transform="translate(-65.041 -99.694)"
     height="100%"
     width="100%"
     y="479.5"
     x="240.67599"
     fill="#000000"
     id="use7637" />
  <use
     xlink:href="#a"
     transform="translate(-65.041 -99.694)"
     height="100%"
     width="100%"
     y="479.5"
     x="265.73401"
     fill="#000000"
     id="use7639" />
  <use
     xlink:href="#a"
     transform="translate(-65.041 -99.694)"
     height="100%"
     width="100%"
     y="479.5"
     x="279.20901"
     fill="#000000"
     id="use7641" />
  <use
     xlink:href="#a"
     transform="translate(-65.041 -99.694)"
     height="100%"
     width="100%"
     y="479.5"
     x="298.69"
     fill="#000000"
     id="use7643" />
  <use
     xlink:href="#a"
     transform="translate(-65.041 -99.694)"
     height="100%"
     width="100%"
     y="479.5"
     x="318.952"
     fill="#000000"
     id="use7645" />
  <use
     xlink:href="#a"
     transform="translate(-65.041 -99.694)"
     height="100%"
     width="100%"
     y="479.5"
     x="336.233"
     fill="#000000"
     id="use7647" />
  <use
     xlink:href="#a"
     transform="translate(-65.041 -99.694)"
     height="100%"
     width="100%"
     y="479.5"
     x="374.76599"
     fill="#000000"
     id="use7649" />
  <use
     xlink:href="#g"
     transform="translate(-65.041 -99.694)"
     height="100%"
     width="100%"
     y="606"
     x="171.1544"
     fill="#000000"
     id="use7651" />
  <use
     xlink:href="#e"
     transform="translate(-65.041 -99.694)"
     height="100%"
     width="100%"
     y="538.70001"
     x="372.44559"
     fill="#000000"
     id="use7653" />
  <use
     xlink:href="#e"
     transform="translate(-65.041 -99.694)"
     height="100%"
     width="100%"
     y="715.40002"
     x="407.88239"
     fill="#000000"
     id="use7655" />
  <use
     xlink:href="#e"
     transform="translate(-65.041 -99.694)"
     height="100%"
     width="100%"
     y="715.40002"
     x="448.70639"
     fill="#000000"
     id="use7657" />
  <use
     xlink:href="#e"
     transform="translate(-65.041 -99.694)"
     height="100%"
     width="100%"
     y="729.40002"
     x="412.5336"
     fill="#000000"
     id="use7659" />
  <use
     xlink:href="#g"
     transform="translate(-65.041 -99.694)"
     height="100%"
     width="100%"
     y="666.29999"
     x="142.2552"
     fill="#000000"
     id="use7661" />
  <use
     xlink:href="#g"
     transform="translate(-65.041 -99.694)"
     height="100%"
     width="100%"
     y="665.90002"
     x="501.86401"
     fill="#000000"
     id="use7663" />
  <use
     xlink:href="#e"
     transform="translate(-65.041 -99.694)"
     height="100%"
     width="100%"
     y="722.59998"
     x="198.74719"
     fill="#000000"
     id="use7665" />
  <use
     xlink:href="#a"
     transform="translate(-65.041 -99.694)"
     height="100%"
     width="100%"
     y="759.5"
     x="73.674004"
     fill="#000000"
     id="use7667" />
  <use
     xlink:href="#a"
     transform="translate(-65.041 -99.694)"
     height="100%"
     width="100%"
     y="759.5"
     x="96.641998"
     fill="#000000"
     id="use7669" />
  <use
     xlink:href="#a"
     transform="translate(-65.041 -99.694)"
     height="100%"
     width="100%"
     y="759.5"
     x="124.186"
     fill="#000000"
     id="use7671" />
  <use
     xlink:href="#a"
     transform="translate(-65.041 -99.694)"
     height="100%"
     width="100%"
     y="759.5"
     x="169.517"
     fill="#000000"
     id="use7673" />
  <use
     xlink:href="#a"
     transform="translate(-65.041 -99.694)"
     height="100%"
     width="100%"
     y="759.5"
     x="188.30499"
     fill="#000000"
     id="use7675" />
  <use
     xlink:href="#a"
     transform="translate(-65.041 -99.694)"
     height="100%"
     width="100%"
     y="759.5"
     x="256.923"
     fill="#000000"
     id="use7677" />
  <use
     xlink:href="#a"
     transform="translate(-65.041 -99.694)"
     height="100%"
     width="100%"
     y="759.5"
     x="276.70099"
     fill="#000000"
     id="use7679" />
  <use
     xlink:href="#a"
     transform="translate(-65.041 -99.694)"
     height="100%"
     width="100%"
     y="759.5"
     x="350.31299"
     fill="#000000"
     id="use7681" />
  <use
     xlink:href="#a"
     transform="translate(-65.041 -99.694)"
     height="100%"
     width="100%"
     y="759.5"
     x="374.89801"
     fill="#000000"
     id="use7683" />
  <use
     xlink:href="#a"
     transform="translate(-65.041 -99.694)"
     height="100%"
     width="100%"
     y="759.5"
     x="398.97699"
     fill="#000000"
     id="use7685" />
  <use
     xlink:href="#a"
     transform="translate(-65.041 -99.694)"
     height="100%"
     width="100%"
     y="759.5"
     x="434.82599"
     fill="#000000"
     id="use7687" />
  <use
     xlink:href="#a"
     transform="translate(-65.041 -99.694)"
     height="100%"
     width="100%"
     y="759.5"
     x="475.746"
     fill="#000000"
     id="use7689" />
  <use
     xlink:href="#a"
     transform="translate(-65.041 -99.694)"
     height="100%"
     width="100%"
     y="759.5"
     x="514.68597"
     fill="#000000"
     id="use7691" />
  <use
     xlink:href="#a"
     transform="translate(-65.041 -99.694)"
     height="100%"
     width="100%"
     y="775.29999"
     x="99.315002"
     fill="#000000"
     id="use7693" />
  <use
     xlink:href="#a"
     transform="translate(-65.041 -99.694)"
     height="100%"
     width="100%"
     y="775.29999"
     x="125.671"
     fill="#000000"
     id="use7695" />
  <use
     xlink:href="#a"
     transform="translate(-65.041 -99.694)"
     height="100%"
     width="100%"
     y="775.29999"
     x="143.062"
     fill="#000000"
     id="use7697" />
  <use
     xlink:href="#a"
     transform="translate(-65.041 -99.694)"
     height="100%"
     width="100%"
     y="775.29999"
     x="210.877"
     fill="#000000"
     id="use7699" />
  <use
     xlink:href="#a"
     transform="translate(-65.041 -99.694)"
     height="100%"
     width="100%"
     y="775.29999"
     x="232.041"
     fill="#000000"
     id="use7701" />
  <use
     xlink:href="#a"
     transform="translate(-65.041 -99.694)"
     height="100%"
     width="100%"
     y="775.29999"
     x="303.629"
     fill="#000000"
     id="use7703" />
  <use
     xlink:href="#a"
     transform="translate(-65.041 -99.694)"
     height="100%"
     width="100%"
     y="775.29999"
     x="318.52301"
     fill="#000000"
     id="use7705" />
  <use
     xlink:href="#a"
     transform="translate(-65.041 -99.694)"
     height="100%"
     width="100%"
     y="775.29999"
     x="340.116"
     fill="#000000"
     id="use7707" />
  <use
     xlink:href="#a"
     transform="translate(-65.041 -99.694)"
     height="100%"
     width="100%"
     y="775.29999"
     x="394.53299"
     fill="#000000"
     id="use7709" />
  <use
     xlink:href="#a"
     transform="translate(-65.041 -99.694)"
     height="100%"
     width="100%"
     y="775.29999"
     x="418.10599"
     fill="#000000"
     id="use7711" />
  <use
     xlink:href="#a"
     transform="translate(-65.041 -99.694)"
     height="100%"
     width="100%"
     y="775.29999"
     x="435.49701"
     fill="#000000"
     id="use7713" />
  <use
     xlink:href="#a"
     transform="translate(-65.041 -99.694)"
     height="100%"
     width="100%"
     y="775.29999"
     x="475.01999"
     fill="#000000"
     id="use7715" />
</svg>
