<?xml version="1.0" encoding="UTF-8" standalone="no"?>
<svg
   xmlns:dc="http://purl.org/dc/elements/1.1/"
   xmlns:cc="http://creativecommons.org/ns#"
   xmlns:rdf="http://www.w3.org/1999/02/22-rdf-syntax-ns#"
   xmlns:svg="http://www.w3.org/2000/svg"
   xmlns="http://www.w3.org/2000/svg"
   xmlns:xlink="http://www.w3.org/1999/xlink"
   xmlns:sodipodi="http://sodipodi.sourceforge.net/DTD/sodipodi-0.dtd"
   xmlns:inkscape="http://www.inkscape.org/namespaces/inkscape"
   height="84.281mm"
   width="170mm"
   version="1.2"
   viewBox="0 0 481.88975 238.90546"
   id="svg8915"
   inkscape:version="0.91+devel+osxmenu r12922"
   sodipodi:docname="Abb4.svg">
  <sodipodi:namedview
     pagecolor="#ffffff"
     bordercolor="#666666"
     borderopacity="1"
     objecttolerance="10"
     gridtolerance="10"
     guidetolerance="10"
     inkscape:pageopacity="0"
     inkscape:pageshadow="2"
     inkscape:window-width="640"
     inkscape:window-height="480"
     id="namedview9719"
     showgrid="false"
     inkscape:zoom="1"
     inkscape:cx="251.09202"
     inkscape:cy="156.88361"
     inkscape:current-layer="svg8915" />
  <metadata
     id="metadata8917">
    <rdf:RDF>
      <cc:Work
         rdf:about="">
        <dc:format>image/svg+xml</dc:format>
        <dc:type
           rdf:resource="http://purl.org/dc/dcmitype/StillImage" />
        <dc:title></dc:title>
      </cc:Work>
    </rdf:RDF>
  </metadata>
  <defs
     id="defs8919">
    <symbol
       id="a"
       overflow="visible" />
    <symbol
       id="bf"
       overflow="visible">
      <path
         d="m1.6406 0h1.0312v-8.9688l6.5938 8.9688h1.0312v-10.672h-1.0156v9.125l-6.5938-9.125h-1.0469z"
         id="path8923" />
    </symbol>
    <symbol
       id="ae"
       overflow="visible">
      <path
         d="m0.76562-3.6094c0 1.9062 1.2656 3.7969 3.4062 3.7969 2.2031 0 3.4375-1.9531 3.4375-3.8281 0-1.9375-1.2969-3.7188-3.4375-3.7188-2.1719 0-3.4062 1.8594-3.4062 3.75zm1.0469-0.1094c0-1.6094 0.90625-2.7344 2.3594-2.7344 1.6875 0 2.4062 1.4844 2.4062 2.9219 0 1.6406-0.96875 2.8125-2.3906 2.8125-1.6094 0-2.375-1.5-2.375-3z"
         id="path8926" />
    </symbol>
    <symbol
       id="ad"
       overflow="visible">
      <path
         d="m0.78125-3.3438c0 1.9844 1.2344 3.5312 3.0625 3.5312 1.125 0 1.9844-0.60938 2.3906-1.2812 0.0781 0.51568 0.2344 1.2032 0.2344 1.2032l1-0.1094s-0.3125-1.3438-0.3125-2.2188v-9.1875l-0.98438 0.1875v4.1094c-0.10938-0.046875-0.60938-0.25-1.4531-0.25-2.5781 0-3.9375 1.9375-3.9375 4.0156zm3.1562 2.5938c-1.1562 0-2.0938-0.98438-2.0938-2.6719 0-1.9062 1.2031-3.0469 2.875-3.0469 0.71875 0 1.4531 0.21875 1.4531 1.1562v3.1094c-0.0624 0.0938-0.828 1.4532-2.2343 1.4532z"
         id="path8929" />
    </symbol>
    <symbol
       id="ac"
       overflow="visible">
      <path
         d="m0.78125-3.3906c0 1.8594 1.1562 3.5781 3.5 3.5781 1.6719 0 2.6562-1 2.6562-1l-0.2968-0.8281s-1.0469 0.90625-2.2812 0.90625c-1.5312 0-2.4219-1.125-2.5-2.7656l4.4531-0.57812 0.65625-0.1875c0-1.9688-1.1719-3.0938-2.7969-3.0938-2 0-3.3906 1.6719-3.3906 3.9688zm3.3438-3.0938c1.5781 0 1.7656 1.5938 1.7656 1.5938l-3.9844 0.5c0.2032-1.1563 0.9688-2.0938 2.2188-2.0938z"
         id="path8932" />
    </symbol>
    <symbol
       id="be"
       overflow="visible">
      <path
         d="m1.6406 0h6.2812v-0.875h-5.2188v-9.7969h-1.0625z"
         id="path8935" />
    </symbol>
    <symbol
       id="bd"
       overflow="visible">
      <path
         d="m0.625-1.5625c0 1.0156 0.76562 1.75 1.9688 1.75 1.5156 0 2.3438-1.1562 2.4375-1.2812 0.10938 0.625 0.42188 1.0469 1.3594 1.2031l0.3593-0.81252s-0.79688-0.015625-0.79688-1v-3.4062c0-1.6094-0.57812-2.25-1.9531-2.25-1.7031 0-2.8594 0.84375-2.8594 0.84375l0.34375 0.875s1.0312-0.78125 2.25-0.78125c1.2031 0 1.2344 0.8125 1.2344 1.6094v0.46875c-2.8282 0.3905-4.3438 1.328-4.3438 2.7811zm2.1094 0.79688c-0.57812 0-1.0156-0.26562-1.0156-0.85938 0-0.95312 1.0312-1.5 3.25-1.875v1.3906c-0.53125 0.59375-1.2344 1.3438-2.2344 1.3438z"
         id="path8938" />
    </symbol>
    <symbol
       id="bc"
       overflow="visible">
      <path
         d="m0.48438-6.3125h1.125v6.3125h0.98438v-6.3125h2.0625v-0.85938h-2.0625v-0.95312c0-1.8906 0.85938-2.5781 1.7656-2.5781 0.73438 0 1.4688 0.51562 1.4688 0.51562l0.53125-0.82812s-0.8125-0.57812-1.9375-0.57812c-1.7344 0-2.8125 1.25-2.8125 3.5156v0.8125l-1.125 0.45312z"
         id="path8941" />
    </symbol>
    <symbol
       id="bb"
       overflow="visible">
      <path
         d="m1.6406 0h1.0625v-4.2656h1.8125c2.2344 0 3.75-1.2188 3.75-3.3438 0-1.6406-1-3.0625-3.75-3.0625h-2.875zm1.0625-5.1562v-4.6406h1.5938c2.0938 0 2.8438 1.0312 2.8438 2.2969 0 1.4688-0.90625 2.3438-2.8438 2.3438z"
         id="path8944" />
    </symbol>
    <symbol
       id="ay"
       overflow="visible">
      <path
         d="m3.7969-6.3906c0.26562 0 0.51562-0.23438 0.51562-0.51562 0-0.26562-0.25-0.51562-0.51562-0.51562-0.25 0-0.51562 0.25-0.51562 0.51562 0 0.28125 0.26562 0.51562 0.51562 0.51562zm-1.875 0c0.25 0 0.51562-0.23438 0.51562-0.51562 0-0.26562-0.26562-0.51562-0.51562-0.51562-0.26562 0-0.51562 0.25-0.51562 0.51562 0 0.28125 0.25 0.51562 0.51562 0.51562zm-1.0781 5.0312c0 1.0781 0.51562 1.5 1.3594 1.5 0.96875 0 1.7344-0.70312 2.0156-0.98438 0.046875 0.35938 0.17188 0.90625 0.17188 0.90625l0.6875-0.046875s-0.23438-0.95312-0.23438-1.5781v-3.4531h-0.67188v3.5c-0.375 0.35938-1.1406 1.0312-1.8594 1.0312-0.39062 0-0.78125-0.17188-0.78125-0.98438v-3.5469h-0.6875z"
         id="path8947" />
    </symbol>
    <symbol
       id="j"
       overflow="visible">
      <path
         d="m0.89062 0h0.67188v-3.2344c0.2031-0.375 0.6875-1.1406 1.2813-1.1406 0.21875 0 0.42188 0.078125 0.42188 0.078125l0.20312-0.75s-0.15625-0.10938-0.4375-0.10938c-0.76562 0-1.2812 0.78125-1.4688 1.0781v-1.0156l-0.67188 0.14062z"
         id="path8950" />
    </symbol>
    <symbol
       id="f"
       overflow="visible">
      <path
         d="m1.0938-1.2969c0 1.0312 0.46875 1.4375 1.2031 1.4375 0.79688 0 1.3906-0.5 1.3906-0.5l-0.1719-0.60935s-0.54688 0.46875-1.0938 0.46875c-0.4218 0-0.6562-0.25-0.6562-0.9688v-2.9531h1.6719v-0.59375h-1.6719v-1.3594l-0.67188 0.1875v1.0938l-0.6875 0.29688v0.375h0.6875z"
         id="path8953" />
    </symbol>
    <symbol
       id="e"
       overflow="visible" />
    <symbol
       id="ar"
       overflow="visible">
      <path
         d="m1.1562 0h0.73438v-2.9844h1.2656c1.5781 0 2.6406-0.85938 2.6406-2.3438 0-1.1406-0.70312-2.1406-2.6406-2.1406h-2zm0.73438-3.6094v-3.25h1.125c1.4532 0 1.9844 0.7188 1.9844 1.6094 0 1.0312-0.625 1.6406-1.9844 1.6406z"
         id="path8957" />
    </symbol>
    <symbol
       id="aq"
       overflow="visible">
      <path
         d="m0.53125-2.5312c0 1.3438 0.89062 2.6719 2.3906 2.6719 1.5312 0 2.4062-1.375 2.4062-2.6875 0-1.3594-0.90625-2.6094-2.4062-2.6094-1.5156 0-2.3906 1.2969-2.3906 2.625zm0.73438-0.0625c0-1.1406 0.64062-1.9219 1.6562-1.9219 1.1719 0 1.6875 1.0312 1.6875 2.0469 0.0001 1.1406-0.6718 1.9687-1.6718 1.9687-1.1406 0-1.6719-1.0625-1.6719-2.0938z"
         id="path8960" />
    </symbol>
    <symbol
       id="x"
       overflow="visible">
      <path
         d="m0.84375-0.9375c0 0.34375 0.35938 0.54688 0.84375 0.6875-0.5625 0.26562-1.3438 0.75-1.3438 1.5312 0 0.92188 1.0469 1.375 2.0938 1.375 1.375 0 2.6406-0.8125 2.6406-1.8438 0-0.92188-0.96875-1.1719-1.9688-1.375-0.9062-0.17178-1.4687-0.26552-1.4687-0.5312 0-0.1562 0.2344-0.3281 0.4844-0.5156 0.1406 0.0469 0.2969 0.0469 0.4531 0.0469 0.9375 0 2.0625-0.5625 2.0625-1.7344 0-0.59375-0.28125-0.95312-0.375-1.0625 0.0782 0.0156 0.2344 0.0156 0.3906 0.0156h0.67188l-0.0781-0.7031s-0.34375 0.10938-0.65625 0.10938h-0.5c-0.54688 0-0.84375-0.21875-1.4531-0.21875-1.0469 0-2 0.65625-2 1.7656 0 0.6875 0.35938 1.2812 0.95312 1.5938-0.3125 0.20312-0.75 0.48438-0.75 0.85938zm2.25 0.98438c0.64062 0.125 1.2344 0.32812 1.2344 0.84375 0 0.625-0.8125 1.2031-1.8125 1.2031-0.5625 0-1.5-0.17188-1.5-0.89062 0-0.59375 0.67188-0.95312 1.3281-1.2969 0.25 0.046875 0.5 0.09375 0.75 0.14062zm-0.4532-2.1719c-0.85938 0-1.25-0.59375-1.25-1.2188 0-0.71875 0.46875-1.2344 1.2188-1.2344 0.875 0 1.2969 0.71875 1.2969 1.3438 0 0.71875-0.5625 1.1094-1.2656 1.1094z"
         id="path8963" />
    </symbol>
    <symbol
       id="k"
       overflow="visible">
      <path
         d="m0.4375-1.0938c0 0.71875 0.53125 1.2344 1.375 1.2344 1.0625 0 1.6562-0.82812 1.7031-0.90625 0.078125 0.4375 0.29688 0.73438 0.95312 0.84375l0.2657-0.5781s-0.5625 0-0.5625-0.6875v-2.3906c0-1.125-0.40625-1.5781-1.375-1.5781-1.1875 0-2 0.59375-2 0.59375l0.25 0.60938s0.71875-0.54688 1.5625-0.54688c0.85938 0 0.875 0.5625 0.875 1.125v0.34375c-1.9844 0.2656-3.0469 0.9218-3.0469 1.9374zm1.4844 0.5625c-0.40625 0-0.71875-0.1875-0.71875-0.60938 0-0.65625 0.71875-1.0469 2.2812-1.3125v0.96875c-0.375 0.42188-0.875 0.95312-1.5625 0.95312z"
         id="path8966" />
    </symbol>
    <symbol
       id="ab"
       overflow="visible">
      <path
         d="m0.89062 0h0.67188v-3.3594c0.2813-0.2656 1.25-1.1718 1.9844-1.1718 0.32812 0 0.67188 0.20312 0.67188 0.98438v3.5469h0.67188v-3.5c0.3125-0.28125 1.2188-1.0312 1.875-1.0312 0.32812 0 0.65625 0.20312 0.65625 0.98438v3.5469h0.6875v-3.6719c0-1.0938-0.5625-1.4844-1.2188-1.4844-0.9375 0-1.7656 0.71875-2.0469 0.98438-0.1406-0.7033-0.6249-0.9845-1.1718-0.9845-0.9844 0-1.8281 0.8281-2.1094 1.0937v-1.0312l-0.67188 0.14062z"
         id="path8969" />
    </symbol>
    <symbol
       id="d"
       overflow="visible">
      <path
         d="m0.54688-2.375c0 1.2969 0.8125 2.5156 2.4531 2.5156 1.1719 0 1.8594-0.71875 1.8594-0.71875l-0.2032-0.578s-0.73438 0.64062-1.6094 0.64062c-1.0625 0-1.6875-0.78125-1.75-1.9375l3.125-0.40625 0.46875-0.125c0-1.3906-0.82812-2.1719-1.9688-2.1719-1.3906 0-2.375 1.1719-2.375 2.7812zm2.3438-2.1562c1.0938 0 1.2344 1.1094 1.2344 1.1094l-2.797 0.3593c0.15625-0.82812 0.6875-1.4688 1.5625-1.4688z"
         id="path8972" />
    </symbol>
    <symbol
       id="ba"
       overflow="visible">
      <path
         d="m0.82812-1.3594c0 1.0781 0.51562 1.5 1.3594 1.5 0.96875 0 1.75-0.70312 2.0312-0.98438 0.0313 0.3594 0.1563 0.90628 0.1563 0.90628l0.6875-0.046875s-0.21875-0.95312-0.21875-1.5781v-3.4531h-0.6875v3.5c-0.375 0.35938-1.1406 1.0312-1.8594 1.0312-0.39062 0-0.78125-0.17188-0.78125-0.98438v-3.5469h-0.6875z"
         id="path8975" />
    </symbol>
    <symbol
       id="s"
       overflow="visible">
      <path
         d="m0.5-0.3125s0.57812 0.45312 1.5625 0.45312c1.0625 0 1.75-0.51562 1.75-1.4062 0-1.7031-2.5-1.4688-2.5-2.625 0-0.375 0.29688-0.65625 0.9375-0.65625 0.625 0 1.2344 0.26562 1.2344 0.26562l0.2187-0.5937s-0.54688-0.28125-1.3594-0.28125c-1.2188 0-1.7344 0.57812-1.7344 1.3281 0 1.625 2.5 1.3906 2.5 2.6094 0 0.45312-0.34375 0.75-0.98438 0.75-0.8125 0-1.4688-0.48438-1.4688-0.48438z"
         id="path8978" />
    </symbol>
    <symbol
       id="aa"
       overflow="visible">
      <path
         d="m0.57812-0.5s0.82812 0.64062 2.1094 0.64062c1.3281 0 2.4062-0.64062 2.4062-1.9062 0-2.375-3.6406-2.1719-3.6406-4.0469 0-0.75 0.6875-1.1406 1.5938-1.1406 0.85938 0 1.6719 0.39062 1.6719 0.39062l0.23438-0.70312s-0.89062-0.34375-1.8594-0.34375c-1.5312 0-2.375 0.82812-2.375 1.8906 0 2.2969 3.625 2.1719 3.625 4 0 0.78125-0.71875 1.1875-1.5938 1.1875-1.1094 0-1.9844-0.67188-1.9844-0.67188z"
         id="path8981" />
    </symbol>
    <symbol
       id="az"
       overflow="visible">
      <path
         d="m0.90625 0h0.6875v-7.9844l-0.6875 0.125z"
         id="path8984" />
    </symbol>
    <symbol
       id="r"
       overflow="visible">
      <path
         d="m1.2656-6.3594c0.28125 0 0.53125-0.25 0.53125-0.54688 0-0.28125-0.25-0.53125-0.53125-0.53125-0.29688 0-0.53125 0.25-0.53125 0.53125 0 0.29688 0.23438 0.54688 0.53125 0.54688zm-0.35935 6.3594h0.6875v-5.0156h-0.6875z"
         id="path8987" />
    </symbol>
    <symbol
       id="ax"
       overflow="visible">
      <path
         d="m1.1562 0h1.7031c2.7031 0 4.5938-1.3438 4.5938-3.8594 0-2.6562-2.125-3.6094-4.1719-3.6094h-2.125zm0.73438-0.60938v-6.25h1.2344c2.2812 0 3.5312 1.2188 3.5312 3.125 0 1.7344-1.0312 3.125-3.9062 3.125z"
         id="path8990" />
    </symbol>
    <symbol
       id="o"
       overflow="visible">
      <path
         d="m0.89062 0h0.67188v-3.3594c0.3125-0.2968 1.2969-1.1718 2.0313-1.1718 0.39062 0 0.73438 0.20312 0.73438 0.98438v3.5469h0.6875v-3.6719c0-1.0938-0.59375-1.4844-1.2812-1.4844-1.0156 0-1.875 0.82812-2.1719 1.0938v-1.0312l-0.67188 0.14062z"
         id="path8993" />
    </symbol>
    <symbol
       id="z"
       overflow="visible">
      <path
         d="m0.34375-4.4219h0.78125v4.4219h0.6875v-4.4219h1.4531v-0.59375h-1.4531v-0.67188c0-1.3281 0.60938-1.8125 1.2344-1.8125 0.51562 0 1.0312 0.35938 1.0312 0.35938l0.375-0.5625s-0.5625-0.42188-1.3594-0.42188c-1.2188 0-1.9688 0.89062-1.9688 2.4688v0.5625l-0.78125 0.32812z"
         id="path8996" />
    </symbol>
    <symbol
       id="aw"
       overflow="visible">
      <path
         d="m1.1562 0h0.73438v-3.2656h1.25l2.2344 3.2656h0.875l-2.3125-3.3906c0.7187-0.3125 1.625-0.9844 1.625-2.1094 0-1-0.70312-1.9688-2.625-1.9688h-1.7812zm0.73438-3.8906v-2.9688h0.90625c1.4531 0 1.9688 0.71875 1.9688 1.4531 0 1.0156-0.95312 1.5156-1.5781 1.5156z"
         id="path8999" />
    </symbol>
    <symbol
       id="av"
       overflow="visible">
      <path
         d="m0.89062 2.5938 0.67188-0.1407v-2.6719c0.20312 0.15625 0.59375 0.35938 1.1562 0.35938 1.5312 0 2.5469-1.25 2.5469-2.7969 0-1.3906-0.8125-2.5-2.125-2.5-0.8125 0-1.3438 0.42188-1.5781 0.84375v-0.78125l-0.67188 0.14062zm2.1875-7.0625c0.82812 0 1.4531 0.6875 1.4531 1.875 0 1.2969-0.75 2.0938-1.8594 2.0938-0.6406-0.0001-1.078-0.2501-1.1093-0.7501v-2.3281c0.125-0.15625 0.67188-0.89062 1.5156-0.89062z"
         id="path9002" />
    </symbol>
    <symbol
       id="au"
       overflow="visible">
      <path
         d="m1.1562 0h2.2031c1.5 0 2.5625-0.84375 2.5625-2.1719 0.0001-1.2656-0.9843-1.6875-1.3906-1.8281 0.3907-0.2969 0.9063-0.8594 0.9063-1.6875 0-0.85938-0.59375-1.7812-2.5312-1.7812h-1.75zm0.73438-0.60938v-2.9375h1.2969c1.3438 0 1.9219 0.59375 1.9219 1.4688 0 0.875-0.59375 1.4688-1.9219 1.4688zm0-6.25h0.85938c1.4844 0 1.9062 0.53125 1.9062 1.1875 0 1.0156-0.95312 1.5-0.95312 1.5h-1.8125z"
         id="path9005" />
    </symbol>
    <symbol
       id="y"
       overflow="visible">
      <path
         d="m0.89062-0.09375c0.64058 0.15625 1.1094 0.23437 1.5625 0.23437 1.9219-0.04687 2.7969-1.3437 2.7969-2.7968 0-1.4375-0.875-2.5-2.1406-2.5-0.75 0-1.3125 0.40625-1.5469 0.73438v-3.5625l-0.67188 0.125zm2.1406-4.4062c0.875 0 1.4688 0.7188 1.4688 1.8906 0 1.375-0.8438 2.1094-2.0312 2.1094-0.5313 0-0.9063-0.125-0.9063-0.125v-3.0938c0.1875-0.2187 0.7187-0.7812 1.4687-0.7812z"
         id="path9008" />
    </symbol>
    <symbol
       id="at"
       overflow="visible">
      <path
         d="m0.1875 0h0.75l0.9375-2.4531h3.0938l0.9218 2.4531h0.7813l-2.8907-7.5312h-0.70312zm3.2344-6.5312 1.3125 3.4531h-2.625z"
         id="path9011" />
    </symbol>
    <symbol
       id="as"
       overflow="visible">
      <path
         d="m2.9062 0.0625h0.71875l2.7188-7.5312h-0.75l-2.3281 6.4531-2.2969-6.4531h-0.78125z"
         id="path9014" />
    </symbol>
    <symbol
       id="c"
       overflow="visible">
      <path
         d="m0.4375-0.26562s0.48438 0.375 1.3281 0.375c0.90625 0 1.5-0.4375 1.5-1.1875 0-1.4688-2.1406-1.2656-2.1406-2.25 0-0.32812 0.25-0.5625 0.79688-0.5625 0.53125 0 1.0625 0.21875 1.0625 0.21875l0.1875-0.5s-0.46875-0.23438-1.1719-0.23438c-1.0312 0-1.4844 0.48438-1.4844 1.125 0 1.4062 2.1562 1.2031 2.1562 2.2344 0 0.39062-0.29688 0.64062-0.85938 0.64062-0.6875 0-1.25-0.40625-1.25-0.40625z"
         id="path9017" />
    </symbol>
    <symbol
       id="b"
       overflow="visible">
      <path
         d="m0.46875-2.0312c0 1.1094 0.6875 2.1406 2.1094 2.1406 0.98438 0 1.5781-0.59375 1.5781-0.59375l-0.17188-0.5s-0.625 0.54688-1.375 0.54688c-0.90625 0-1.4531-0.67188-1.5-1.6562l2.6876-0.3594 0.3906-0.1094c0-1.1719-0.71875-1.8438-1.6875-1.8438-1.1875 0-2.0312 1-2.0312 2.375zm2-1.8594c0.95312 0 1.0625 0.95312 1.0625 0.95312l-2.3907 0.3125c0.125-0.70312 0.59375-1.2656 1.3281-1.2656z"
         id="path9020" />
    </symbol>
    <symbol
       id="h"
       overflow="visible">
      <path
         d="m0.76562 0h0.57812v-2.875c0.26562-0.26562 1.1094-1.0156 1.7344-1.0156 0.32812 0 0.64062 0.1875 0.64062 0.84375v3.0469h0.57812v-3.1406c0-0.9375-0.5-1.2656-1.1094-1.2656-0.85938 0-1.5938 0.6875-1.8438 0.92188v-0.875l-0.57812 0.125z"
         id="path9023" />
    </symbol>
    <symbol
       id="aj"
       overflow="visible">
      <path
         d="m0.46875-2c0 1.1875 0.73438 2.1094 1.8281 2.1094 0.6875 0 1.1875-0.35938 1.4375-0.76562 0.0625 0.31245 0.1406 0.7187 0.1406 0.7187l0.6094-0.0625s-0.20312-0.8125-0.20312-1.3281v-5.5156l-0.57812 0.125v2.4531c-0.0626-0.0156-0.3594-0.1406-0.8751-0.1406-1.5469 0-2.3594 1.1562-2.3594 2.4062zm1.8906 1.5469c-0.6875 0-1.25-0.57812-1.25-1.5938 0-1.1406 0.71875-1.8281 1.7188-1.8281 0.4375 0 0.875 0.125 0.875 0.6875v1.8594c-0.03125 0.0625-0.5 0.875-1.3438 0.875z"
         id="path9026" />
    </symbol>
    <symbol
       id="i"
       overflow="visible">
      <path
         d="m0.9375-1.1094c0 0.875 0.39062 1.2188 1.0312 1.2188 0.67188 0 1.1875-0.42188 1.1875-0.42188l-0.1406-0.51564s-0.46875 0.40625-0.9375 0.40625c-0.375 0-0.5625-0.21875-0.5625-0.82812v-2.5469h1.4219v-0.5h-1.4219v-1.1562l-0.57812 0.15625v0.9375l-0.59375 0.25v0.3125h0.59375z"
         id="path9029" />
    </symbol>
    <symbol
       id="g"
       overflow="visible" />
    <symbol
       id="p"
       overflow="visible">
      <path
         d="m0.98438 0h0.64062v-2.7969h1.0625l1.9219 2.7969h0.75l-1.9844-2.9062c0.60938-0.26562 1.3906-0.82812 1.3906-1.7969 0-0.85938-0.60938-1.7031-2.25-1.7031h-1.5312zm0.64062-3.3281v-2.5469h0.76562c1.25 0 1.6875 0.625 1.6875 1.2344 0 0.875-0.8125 1.3125-1.3438 1.3125z"
         id="path9033" />
    </symbol>
    <symbol
       id="ai"
       overflow="visible">
      <path
         d="m0.70312-1.1719c0 0.9375 0.45312 1.2812 1.1719 1.2812 0.82812 0 1.5-0.59375 1.7344-0.82812 0.0312 0.31257 0.1406 0.78132 0.1406 0.78132l0.5938-0.046875s-0.20312-0.82812-0.20312-1.3438v-2.9688h-0.57812v3c-0.3126 0.31262-0.9845 0.89075-1.5938 0.89075-0.3438 0-0.6719-0.15625-0.6719-0.84375v-3.0469h-0.59375z"
         id="path9036" />
    </symbol>
    <symbol
       id="ap"
       overflow="visible">
      <path
         d="m2.2344 0.046875h0.64062l1.625-5.5 1.6094 5.5h0.64062l1.9844-6.4531h-0.625l-1.6875 5.5156-1.5469-5.5156h-0.73438l-1.5781 5.5312-1.6562-5.5312h-0.64062z"
         id="path9039" />
    </symbol>
    <symbol
       id="w"
       overflow="visible">
      <path
         d="m1.0781-5.4375c0.25 0 0.45312-0.21875 0.45312-0.46875s-0.20312-0.46875-0.45312-0.46875-0.45312 0.21875-0.45312 0.46875 0.20312 0.46875 0.45312 0.46875zm-0.29685 5.4375h0.57812v-4.2969h-0.57812z"
         id="path9042" />
    </symbol>
    <symbol
       id="n"
       overflow="visible">
      <path
         d="m0.76562 0h0.57812v-2.7656c0.1719-0.3282 0.5782-0.9844 1.0938-0.9844 0.1875 0 0.35938 0.0625 0.35938 0.0625l0.1719-0.6406s-0.125-0.078125-0.375-0.078125c-0.65625 0-1.0938 0.65625-1.25 0.92188v-0.875l-0.57812 0.125z"
         id="path9045" />
    </symbol>
    <symbol
       id="m"
       overflow="visible">
      <path
         d="m0.78125 0h0.57812v-6.8438l-0.57812 0.125z"
         id="path9048" />
    </symbol>
    <symbol
       id="ao"
       overflow="visible">
      <path
         d="m0.73438-0.8125c0 0.29688 0.29688 0.48438 0.71875 0.59375-0.48438 0.23438-1.1562 0.64062-1.1562 1.3281 0 0.78125 0.89062 1.1719 1.7812 1.1719 1.1875 0 2.2656-0.70312 2.2656-1.5938 0-0.78125-0.82812-1-1.6875-1.1719-0.78125-0.15625-1.25-0.21875-1.25-0.45312 0-0.14062 0.20312-0.28125 0.42188-0.4375 0.10938 0.03125 0.25 0.046875 0.375 0.046875 0.8125 0 1.7656-0.5 1.7656-1.5 0-0.5-0.23438-0.8125-0.3125-0.90625 0.0625 0.015625 0.1875 0.015625 0.32812 0.015625h0.57812l-0.0625-0.6092s-0.29688 0.09375-0.5625 0.09375h-0.42188c-0.46875 0-0.73438-0.17188-1.25-0.17188-0.90625 0-1.7188 0.54688-1.7188 1.5 0 0.59375 0.3125 1.1094 0.8125 1.375-0.25 0.17188-0.625 0.40625-0.625 0.71875zm1.9062 0.84375c0.5625 0.125 1.0781 0.28125 1.0781 0.73438 0 0.53125-0.70312 1.0312-1.5625 1.0312-0.48438 0-1.2969-0.15625-1.2969-0.76562 0-0.5 0.57812-0.8125 1.1406-1.125 0.21875 0.0625 0.4375 0.09375 0.64062 0.125zm-0.375-1.8594c-0.73438 0-1.0781-0.5-1.0781-1.0469 0-0.59375 0.40625-1.0469 1.0469-1.0469 0.75 0 1.1094 0.60938 1.1094 1.1562 0 0.60938-0.46875 0.9375-1.0781 0.9375z"
         id="path9051" />
    </symbol>
    <symbol
       id="an"
       overflow="visible">
      <path
         d="m0.375-0.9375c0 0.60938 0.45312 1.0469 1.1719 1.0469 0.92188 0 1.4219-0.6875 1.4688-0.76562 0.0625 0.375 0.25 0.625 0.8125 0.71875l0.21875-0.48438s-0.48438-0.015625-0.48438-0.59375v-2.0469c0-0.96875-0.34375-1.3438-1.1719-1.3438-1.0156 0-1.7031 0.5-1.7031 0.5l0.20312 0.51562s0.60938-0.45312 1.3438-0.45312c0.73438 0 0.75 0.46875 0.75 0.95312v0.29688c-1.7033 0.2188-2.6095 0.7969-2.6095 1.6563zm1.2656 0.48438c-0.34375 0-0.60938-0.15625-0.60938-0.53125 0-0.5625 0.625-0.89062 1.9531-1.1094v0.82812c-0.32812 0.35938-0.75 0.8125-1.3438 0.8125z"
         id="path9054" />
    </symbol>
    <symbol
       id="l"
       overflow="visible">
      <path
         d="m0.45312-2.1719c0 1.1562 0.76562 2.2812 2.0469 2.2812 1.3125 0 2.0625-1.1719 2.0625-2.2969 0-1.1562-0.76562-2.2188-2.0625-2.2188s-2.0469 1.1094-2.0469 2.2344zm0.625-0.046875c0-0.96875 0.54688-1.6406 1.4219-1.6406 1.0156 0 1.4375 0.875 1.4375 1.7344 0 1-0.5625 1.6875-1.4219 1.6875-0.96875 0-1.4375-0.89062-1.4375-1.7812z"
         id="path9057" />
    </symbol>
    <symbol
       id="am"
       overflow="visible">
      <path
         d="m1.7188 0.0625h0.57812l1.8438-4.3594h-0.625l-1.4688 3.5781-1.2188-3.5781h-0.60938z"
         id="path9060" />
    </symbol>
    <symbol
       id="v"
       overflow="visible">
      <path
         d="m0.45312-2.0938c0 1.2344 0.82812 2.2031 2.0469 2.2031 0.92188 0 1.4688-0.54688 1.4688-0.54688l-0.2344-0.46865s-0.4375 0.46875-1.1562 0.46875c-0.95312 0-1.5-0.8125-1.5-1.7188 0-0.89062 0.53125-1.7031 1.4688-1.7031 0.65625 0 1.1094 0.40625 1.1094 0.40625l0.3124-0.4845s-0.48438-0.46875-1.3906-0.46875c-1.3906 0-2.125 1.1406-2.125 2.3125z"
         id="path9063" />
    </symbol>
    <symbol
       id="u"
       overflow="visible">
      <path
         d="m0.78125 0h0.57812v-2.9062c0.26562-0.25 1.1094-0.98438 1.7188-0.98438 0.32812 0 0.64062 0.1875 0.64062 0.84375v3.0469h0.59375v-3.1406c0-0.9375-0.5-1.2656-1.125-1.2656-0.8125 0-1.5469 0.625-1.8281 0.89062v-3.3281l-0.57812 0.125z"
         id="path9066" />
    </symbol>
    <symbol
       id="t"
       overflow="visible">
      <path
         d="m3.25-5.4688c0.23438 0 0.4375-0.20312 0.4375-0.4375s-0.20312-0.4375-0.4375-0.4375c-0.21875 0-0.4375 0.20312-0.4375 0.4375s0.21875 0.4375 0.4375 0.4375zm-1.5938 0c0.20312 0 0.42188-0.20312 0.42188-0.4375s-0.21875-0.4375-0.42188-0.4375c-0.23438 0-0.45312 0.20312-0.45312 0.4375s0.21875 0.4375 0.45312 0.4375zm-0.9375 4.2969c0 0.9375 0.4375 1.2812 1.1562 1.2812 0.84375 0 1.5-0.59375 1.7344-0.82812 0.046875 0.3125 0.15625 0.78125 0.15625 0.78125l0.5783-0.046775s-0.1875-0.82812-0.1875-1.3438v-2.9688h-0.59375v3c-0.3126 0.31262-0.9688 0.89075-1.5938 0.89075-0.3282 0-0.6563-0.15625-0.6563-0.84375v-3.0469h-0.59375z"
         id="path9069" />
    </symbol>
    <symbol
       id="al"
       overflow="visible">
      <path
         d="m0.98438 0h1.8906c1.2812 0 2.1875-0.73438 2.1875-1.8594 0-1.0781-0.8281-1.4531-1.1719-1.5625 0.3282-0.2656 0.7656-0.7343 0.7656-1.4375 0-0.75-0.51562-1.5469-2.1562-1.5469h-1.5156zm0.64062-0.53125v-2.5156h1.1094c1.1406 0 1.6406 0.53125 1.6406 1.2656 0 0.75-0.51562 1.25-1.6406 1.25zm0-5.3438h0.71875c1.2812 0 1.6406 0.45312 1.6406 1.0156 0 0.875-0.8125 1.2812-0.8125 1.2812h-1.5469z"
         id="path9072" />
    </symbol>
    <symbol
       id="ak"
       overflow="visible">
      <path
         d="m1.6094 0.0625h0.5625l1.3125-3.4844 1.0469 3.4844h0.5625l1.7656-4.3594h-0.64062l-1.3594 3.6094-1.0312-3.6094h-0.5625l-1.3125 3.6094-1.0938-3.6094h-0.625z"
         id="path9075" />
    </symbol>
    <symbol
       id="q"
       overflow="visible">
      <path
         d="m0.76562 2.2188 0.57812-0.125v-2.2812c0.15625 0.14062 0.5 0.29688 0.98438 0.29688 1.3125 0 2.1875-1.0625 2.1875-2.3906 0-1.1875-0.70312-2.125-1.8281-2.125-0.6875 0-1.1562 0.34375-1.3594 0.71875v-0.67188l-0.5625 0.125zm1.875-6.0469c0.70312 0 1.2344 0.57812 1.2344 1.6094 0 1.1094-0.64062 1.7969-1.5938 1.7969-0.53125 0-0.92188-0.21875-0.9375-0.64062v-2c0.09375-0.14062 0.5625-0.76562 1.2969-0.76562z"
         id="path9078" />
    </symbol>
    <symbol
       id="ah"
       overflow="visible">
      <path
         d="m2.6406 0h2.1562v-14.422l10.453 14.422h2.2188v-17.953h-2.1562v14.641l-10.469-14.641h-2.2031z"
         id="path9081" />
    </symbol>
    <symbol
       id="ag"
       overflow="visible">
      <path
         d="m2.6406 0h2.2031v-6.8906h2.9844c3.7656 0 6.4062-2.125 6.4062-5.75 0-2.8594-1.7812-5.3125-6.4062-5.3125h-5.1875zm2.2031-8.75v-7.3438h2.5781c3.2812 0 4.4375 1.625 4.4375 3.6406 0 2.3125-1.3906 3.7031-4.4375 3.7031z"
         id="path9084" />
    </symbol>
    <symbol
       id="af"
       overflow="visible">
      <path
         d="m2.6406 0h10.812v-1.8594h-8.6094v-16.094h-2.2031z"
         id="path9087" />
    </symbol>
    <clipPath
       id="clipPath9089">
      <path
         d="m0.80078 0.19922h16v23.199h-16z"
         id="path9091" />
    </clipPath>
    <clipPath
       id="bh">
      <rect
         y="0"
         width="17"
         x="0"
         height="24"
         id="rect9094" />
    </clipPath>
    <g
       clip-path="url(#bh)"
       id="g9096" />
    <clipPath
       id="clipPath9098">
      <path
         d="m0.19922 0.19922h15.801v23.199h-15.801z"
         id="path9100" />
    </clipPath>
    <clipPath
       id="bg">
      <rect
         y="0"
         width="17"
         x="0"
         height="24"
         id="rect9103" />
    </clipPath>
    <g
       clip-path="url(#bg)"
       id="g9105" />
  </defs>
  <use
     xlink:href="#a"
     transform="translate(-65.241 -496.29)"
     height="100%"
     width="100%"
     y="67.099998"
     x="72.100998"
     fill="#000000"
     id="use9107" />
  <use
     xlink:href="#a"
     transform="translate(-65.241 -496.29)"
     height="100%"
     width="100%"
     y="67.099998"
     x="115.122"
     fill="#000000"
     id="use9109" />
  <use
     xlink:href="#a"
     transform="translate(-65.241 -496.29)"
     height="100%"
     width="100%"
     y="67.099998"
     x="150.355"
     fill="#000000"
     id="use9111" />
  <use
     xlink:href="#a"
     transform="translate(-65.241 -496.29)"
     height="100%"
     width="100%"
     y="67.099998"
     x="169.726"
     fill="#000000"
     id="use9113" />
  <use
     xlink:href="#a"
     transform="translate(-65.241 -496.29)"
     height="100%"
     width="100%"
     y="67.099998"
     x="198.78799"
     fill="#000000"
     id="use9115" />
  <use
     xlink:href="#a"
     transform="translate(-65.241 -496.29)"
     height="100%"
     width="100%"
     y="67.099998"
     x="246.286"
     fill="#000000"
     id="use9117" />
  <use
     xlink:href="#a"
     transform="translate(-65.241 -496.29)"
     height="100%"
     width="100%"
     y="67.099998"
     x="263.952"
     fill="#000000"
     id="use9119" />
  <use
     xlink:href="#a"
     transform="translate(-65.241 -496.29)"
     height="100%"
     width="100%"
     y="67.099998"
     x="290.30801"
     fill="#000000"
     id="use9121" />
  <use
     xlink:href="#a"
     transform="translate(-65.241 -496.29)"
     height="100%"
     width="100%"
     y="67.099998"
     x="309.67899"
     fill="#000000"
     id="use9123" />
  <use
     xlink:href="#a"
     transform="translate(-65.241 -496.29)"
     height="100%"
     width="100%"
     y="67.099998"
     x="406.479"
     fill="#000000"
     id="use9125" />
  <use
     xlink:href="#a"
     transform="translate(-65.241 -496.29)"
     height="100%"
     width="100%"
     y="67.099998"
     x="459.27899"
     fill="#000000"
     id="use9127" />
  <use
     xlink:href="#a"
     transform="translate(-65.241 -496.29)"
     height="100%"
     width="100%"
     y="67.099998"
     x="497.548"
     fill="#000000"
     id="use9129" />
  <use
     xlink:href="#a"
     transform="translate(-65.241 -496.29)"
     height="100%"
     width="100%"
     y="67.099998"
     x="519.50403"
     fill="#000000"
     id="use9131" />
  <use
     xlink:href="#a"
     transform="translate(-65.241 -496.29)"
     height="100%"
     width="100%"
     y="82.900002"
     x="127.827"
     fill="#000000"
     id="use9133" />
  <use
     xlink:href="#a"
     transform="translate(-65.241 -496.29)"
     height="100%"
     width="100%"
     y="82.900002"
     x="145.416"
     fill="#000000"
     id="use9135" />
  <use
     xlink:href="#a"
     transform="translate(-65.241 -496.29)"
     height="100%"
     width="100%"
     y="82.900002"
     x="167.911"
     fill="#000000"
     id="use9137" />
  <use
     xlink:href="#a"
     transform="translate(-65.241 -496.29)"
     height="100%"
     width="100%"
     y="82.900002"
     x="195.675"
     fill="#000000"
     id="use9139" />
  <use
     xlink:href="#e"
     transform="translate(-65.241 -496.29)"
     height="100%"
     width="100%"
     y="326.39999"
     x="172.272"
     fill="#000000"
     id="use9141" />
  <use
     xlink:href="#e"
     transform="translate(-65.241 -496.29)"
     height="100%"
     width="100%"
     y="326.39999"
     x="245.19521"
     fill="#000000"
     id="use9143" />
  <use
     xlink:href="#g"
     transform="translate(-65.241 -496.29)"
     height="100%"
     width="100%"
     y="257.60001"
     x="232.16319"
     fill="#000000"
     id="use9145" />
  <use
     xlink:href="#g"
     transform="translate(-65.241 -496.29)"
     height="100%"
     width="100%"
     y="258"
     x="367.75439"
     fill="#000000"
     id="use9147" />
  <use
     xlink:href="#e"
     transform="translate(-65.241 -496.29)"
     height="100%"
     width="100%"
     y="134.89999"
     x="375.14481"
     fill="#000000"
     id="use9149" />
  <use
     xlink:href="#e"
     transform="translate(-65.241 -496.29)"
     height="100%"
     width="100%"
     y="134.89999"
     x="429.70001"
     fill="#000000"
     id="use9151" />
  <use
     xlink:href="#e"
     transform="translate(-65.241 -496.29)"
     height="100%"
     width="100%"
     y="148.89999"
     x="354.6824"
     fill="#000000"
     id="use9153" />
  <use
     xlink:href="#g"
     transform="translate(-65.241 -496.29)"
     height="100%"
     width="100%"
     y="289.20001"
     x="229.06641"
     fill="#000000"
     id="use9155" />
  <use
     xlink:href="#g"
     transform="translate(-65.241 -496.29)"
     height="100%"
     width="100%"
     y="289.20001"
     x="386.4552"
     fill="#000000"
     id="use9157" />
  <use
     xlink:href="#a"
     transform="translate(-65.241 -496.29)"
     height="100%"
     width="100%"
     y="363.29999"
     x="87.248001"
     fill="#000000"
     id="use9159" />
  <use
     xlink:href="#a"
     transform="translate(-65.241 -496.29)"
     height="100%"
     width="100%"
     y="363.29999"
     x="105.024"
     fill="#000000"
     id="use9161" />
  <use
     xlink:href="#a"
     transform="translate(-65.241 -496.29)"
     height="100%"
     width="100%"
     y="363.29999"
     x="127.695"
     fill="#000000"
     id="use9163" />
  <use
     xlink:href="#a"
     transform="translate(-65.241 -496.29)"
     height="100%"
     width="100%"
     y="363.29999"
     x="158.67101"
     fill="#000000"
     id="use9165" />
  <use
     xlink:href="#a"
     transform="translate(-65.241 -496.29)"
     height="100%"
     width="100%"
     y="363.29999"
     x="176.02901"
     fill="#000000"
     id="use9167" />
  <use
     xlink:href="#a"
     transform="translate(-65.241 -496.29)"
     height="100%"
     width="100%"
     y="363.29999"
     x="201.494"
     fill="#000000"
     id="use9169" />
  <use
     xlink:href="#a"
     transform="translate(-65.241 -496.29)"
     height="100%"
     width="100%"
     y="363.29999"
     x="240.533"
     fill="#000000"
     id="use9171" />
  <use
     xlink:href="#a"
     transform="translate(-65.241 -496.29)"
     height="100%"
     width="100%"
     y="363.29999"
     x="284.24701"
     fill="#000000"
     id="use9173" />
  <use
     xlink:href="#a"
     transform="translate(-65.241 -496.29)"
     height="100%"
     width="100%"
     y="363.29999"
     x="307.017"
     fill="#000000"
     id="use9175" />
  <use
     xlink:href="#a"
     transform="translate(-65.241 -496.29)"
     height="100%"
     width="100%"
     y="363.29999"
     x="328.896"
     fill="#000000"
     id="use9177" />
  <use
     xlink:href="#a"
     transform="translate(-65.241 -496.29)"
     height="100%"
     width="100%"
     y="363.29999"
     x="367.616"
     fill="#000000"
     id="use9179" />
  <use
     xlink:href="#a"
     transform="translate(-65.241 -496.29)"
     height="100%"
     width="100%"
     y="363.29999"
     x="418.02899"
     fill="#000000"
     id="use9181" />
  <use
     xlink:href="#a"
     transform="translate(-65.241 -496.29)"
     height="100%"
     width="100%"
     y="363.29999"
     x="480.45401"
     fill="#000000"
     id="use9183" />
  <use
     xlink:href="#a"
     transform="translate(-65.241 -496.29)"
     height="100%"
     width="100%"
     y="363.29999"
     x="516.50098"
     fill="#000000"
     id="use9185" />
  <use
     xlink:href="#a"
     transform="translate(-65.241 -496.29)"
     height="100%"
     width="100%"
     y="379.10001"
     x="67.679001"
     fill="#000000"
     id="use9187" />
  <use
     xlink:href="#a"
     transform="translate(-65.241 -496.29)"
     height="100%"
     width="100%"
     y="379.10001"
     x="92.649002"
     fill="#000000"
     id="use9189" />
  <use
     xlink:href="#a"
     transform="translate(-65.241 -496.29)"
     height="100%"
     width="100%"
     y="379.10001"
     x="125.913"
     fill="#000000"
     id="use9191" />
  <use
     xlink:href="#a"
     transform="translate(-65.241 -496.29)"
     height="100%"
     width="100%"
     y="379.10001"
     x="177.84399"
     fill="#000000"
     id="use9193" />
  <use
     xlink:href="#a"
     transform="translate(-65.241 -496.29)"
     height="100%"
     width="100%"
     y="379.10001"
     x="223.45"
     fill="#000000"
     id="use9195" />
  <use
     xlink:href="#a"
     transform="translate(-65.241 -496.29)"
     height="100%"
     width="100%"
     y="379.10001"
     x="248.80499"
     fill="#000000"
     id="use9197" />
  <use
     xlink:href="#a"
     transform="translate(-65.241 -496.29)"
     height="100%"
     width="100%"
     y="379.10001"
     x="328.44501"
     fill="#000000"
     id="use9199" />
  <use
     xlink:href="#a"
     transform="translate(-65.241 -496.29)"
     height="100%"
     width="100%"
     y="379.10001"
     x="373.66599"
     fill="#000000"
     id="use9201" />
  <use
     xlink:href="#a"
     transform="translate(-65.241 -496.29)"
     height="100%"
     width="100%"
     y="379.10001"
     x="406.02802"
     fill="#000000"
     id="use9203" />
  <use
     xlink:href="#a"
     transform="translate(-65.241 -496.29)"
     height="100%"
     width="100%"
     y="379.10001"
     x="429.194"
     fill="#000000"
     id="use9205" />
  <use
     xlink:href="#a"
     transform="translate(-65.241 -496.29)"
     height="100%"
     width="100%"
     y="379.10001"
     x="457.17801"
     fill="#000000"
     id="use9207" />
  <use
     xlink:href="#a"
     transform="translate(-65.241 -496.29)"
     height="100%"
     width="100%"
     y="394.89999"
     x="123.845"
     fill="#000000"
     id="use9209" />
  <use
     xlink:href="#a"
     transform="translate(-65.241 -496.29)"
     height="100%"
     width="100%"
     y="394.89999"
     x="143.99699"
     fill="#000000"
     id="use9211" />
  <use
     xlink:href="#a"
     transform="translate(-65.241 -496.29)"
     height="100%"
     width="100%"
     y="394.89999"
     x="164.886"
     fill="#000000"
     id="use9213" />
  <use
     xlink:href="#a"
     transform="translate(-65.241 -496.29)"
     height="100%"
     width="100%"
     y="394.89999"
     x="210.91"
     fill="#000000"
     id="use9215" />
  <use
     xlink:href="#a"
     transform="translate(-65.241 -496.29)"
     height="100%"
     width="100%"
     y="394.89999"
     x="265.569"
     fill="#000000"
     id="use9217" />
  <use
     xlink:href="#a"
     transform="translate(-65.241 -496.29)"
     height="100%"
     width="100%"
     y="394.89999"
     x="294.63101"
     fill="#000000"
     id="use9219" />
  <use
     xlink:href="#a"
     transform="translate(-65.241 -496.29)"
     height="100%"
     width="100%"
     y="394.89999"
     x="315.51999"
     fill="#000000"
     id="use9221" />
  <use
     xlink:href="#a"
     transform="translate(-65.241 -496.29)"
     height="100%"
     width="100%"
     y="394.89999"
     x="358.54099"
     fill="#000000"
     id="use9223" />
  <use
     xlink:href="#a"
     transform="translate(-65.241 -496.29)"
     height="100%"
     width="100%"
     y="394.89999"
     x="409.59201"
     fill="#000000"
     id="use9225" />
  <use
     xlink:href="#a"
     transform="translate(-65.241 -496.29)"
     height="100%"
     width="100%"
     y="394.89999"
     x="439.336"
     fill="#000000"
     id="use9227" />
  <use
     xlink:href="#a"
     transform="translate(-65.241 -496.29)"
     height="100%"
     width="100%"
     y="394.89999"
     x="461.72101"
     fill="#000000"
     id="use9229" />
  <use
     xlink:href="#a"
     transform="translate(-65.241 -496.29)"
     height="100%"
     width="100%"
     y="394.89999"
     x="489.01199"
     fill="#000000"
     id="use9231" />
  <use
     xlink:href="#a"
     transform="translate(-65.241 -496.29)"
     height="100%"
     width="100%"
     y="410.70001"
     x="178.05299"
     fill="#000000"
     id="use9233" />
  <use
     xlink:href="#a"
     transform="translate(-65.241 -496.29)"
     height="100%"
     width="100%"
     y="410.70001"
     x="217.39999"
     fill="#000000"
     id="use9235" />
  <use
     xlink:href="#a"
     transform="translate(-65.241 -496.29)"
     height="100%"
     width="100%"
     y="410.70001"
     x="259.85999"
     fill="#000000"
     id="use9237" />
  <use
     xlink:href="#a"
     transform="translate(-65.241 -496.29)"
     height="100%"
     width="100%"
     y="410.70001"
     x="280.73801"
     fill="#000000"
     id="use9239" />
  <use
     xlink:href="#a"
     transform="translate(-65.241 -496.29)"
     height="100%"
     width="100%"
     y="410.70001"
     x="305.91699"
     fill="#000000"
     id="use9241" />
  <use
     xlink:href="#a"
     transform="translate(-65.241 -496.29)"
     height="100%"
     width="100%"
     y="410.70001"
     x="361.26901"
     fill="#000000"
     id="use9243" />
  <use
     xlink:href="#a"
     transform="translate(-65.241 -496.29)"
     height="100%"
     width="100%"
     y="410.70001"
     x="441.55801"
     fill="#000000"
     id="use9245" />
  <use
     xlink:href="#a"
     transform="translate(-65.241 -496.29)"
     height="100%"
     width="100%"
     y="410.70001"
     x="462.216"
     fill="#000000"
     id="use9247" />
  <use
     xlink:href="#a"
     transform="translate(-65.241 -496.29)"
     height="100%"
     width="100%"
     y="410.70001"
     x="488.50601"
     fill="#000000"
     id="use9249" />
  <use
     xlink:href="#a"
     transform="translate(-65.241 -496.29)"
     height="100%"
     width="100%"
     y="410.70001"
     x="520.07599"
     fill="#000000"
     id="use9251" />
  <use
     xlink:href="#a"
     transform="translate(-65.241 -496.29)"
     height="100%"
     width="100%"
     y="426.5"
     x="112.427"
     fill="#000000"
     id="use9253" />
  <use
     xlink:href="#a"
     transform="translate(-65.241 -496.29)"
     height="100%"
     width="100%"
     y="426.5"
     x="125.187"
     fill="#000000"
     id="use9255" />
  <use
     xlink:href="#a"
     transform="translate(-65.241 -496.29)"
     height="100%"
     width="100%"
     y="426.5"
     x="158.847"
     fill="#000000"
     id="use9257" />
  <use
     xlink:href="#a"
     transform="translate(-65.241 -496.29)"
     height="100%"
     width="100%"
     y="447.89999"
     x="73.674004"
     fill="#000000"
     id="use9259" />
  <use
     xlink:href="#a"
     transform="translate(-65.241 -496.29)"
     height="100%"
     width="100%"
     y="447.89999"
     x="102.142"
     fill="#000000"
     id="use9261" />
  <use
     xlink:href="#a"
     transform="translate(-65.241 -496.29)"
     height="100%"
     width="100%"
     y="447.89999"
     x="127.684"
     fill="#000000"
     id="use9263" />
  <use
     xlink:href="#a"
     transform="translate(-65.241 -496.29)"
     height="100%"
     width="100%"
     y="447.89999"
     x="197.996"
     fill="#000000"
     id="use9265" />
  <use
     xlink:href="#a"
     transform="translate(-65.241 -496.29)"
     height="100%"
     width="100%"
     y="447.89999"
     x="214.782"
     fill="#000000"
     id="use9267" />
  <use
     xlink:href="#a"
     transform="translate(-65.241 -496.29)"
     height="100%"
     width="100%"
     y="447.89999"
     x="281.10101"
     fill="#000000"
     id="use9269" />
  <use
     xlink:href="#a"
     transform="translate(-65.241 -496.29)"
     height="100%"
     width="100%"
     y="447.89999"
     x="301.66"
     fill="#000000"
     id="use9271" />
  <use
     xlink:href="#a"
     transform="translate(-65.241 -496.29)"
     height="100%"
     width="100%"
     y="447.89999"
     x="341.70001"
     fill="#000000"
     id="use9273" />
  <use
     xlink:href="#a"
     transform="translate(-65.241 -496.29)"
     height="100%"
     width="100%"
     y="447.89999"
     x="358.48599"
     fill="#000000"
     id="use9275" />
  <use
     xlink:href="#a"
     transform="translate(-65.241 -496.29)"
     height="100%"
     width="100%"
     y="447.89999"
     x="437.85101"
     fill="#000000"
     id="use9277" />
  <use
     xlink:href="#a"
     transform="translate(-65.241 -496.29)"
     height="100%"
     width="100%"
     y="447.89999"
     x="476.27399"
     fill="#000000"
     id="use9279" />
  <use
     xlink:href="#a"
     transform="translate(-65.241 -496.29)"
     height="100%"
     width="100%"
     y="447.89999"
     x="494.24799"
     fill="#000000"
     id="use9281" />
  <use
     xlink:href="#a"
     transform="translate(-65.241 -496.29)"
     height="100%"
     width="100%"
     y="463.70001"
     x="67.975998"
     fill="#000000"
     id="use9283" />
  <use
     xlink:href="#a"
     transform="translate(-65.241 -496.29)"
     height="100%"
     width="100%"
     y="463.70001"
     x="97.433998"
     fill="#000000"
     id="use9285" />
  <use
     xlink:href="#a"
     transform="translate(-65.241 -496.29)"
     height="100%"
     width="100%"
     y="463.70001"
     x="119.907"
     fill="#000000"
     id="use9287" />
  <use
     xlink:href="#a"
     transform="translate(-65.241 -496.29)"
     height="100%"
     width="100%"
     y="463.70001"
     x="152.87399"
     fill="#000000"
     id="use9289" />
  <use
     xlink:href="#a"
     transform="translate(-65.241 -496.29)"
     height="100%"
     width="100%"
     y="463.70001"
     x="183.12399"
     fill="#000000"
     id="use9291" />
  <use
     xlink:href="#a"
     transform="translate(-65.241 -496.29)"
     height="100%"
     width="100%"
     y="463.70001"
     x="207.797"
     fill="#000000"
     id="use9293" />
  <use
     xlink:href="#a"
     transform="translate(-65.241 -496.29)"
     height="100%"
     width="100%"
     y="463.70001"
     x="253.623"
     fill="#000000"
     id="use9295" />
  <use
     xlink:href="#a"
     transform="translate(-65.241 -496.29)"
     height="100%"
     width="100%"
     y="463.70001"
     x="305.05899"
     fill="#000000"
     id="use9297" />
  <use
     xlink:href="#a"
     transform="translate(-65.241 -496.29)"
     height="100%"
     width="100%"
     y="463.70001"
     x="326.34399"
     fill="#000000"
     id="use9299" />
  <use
     xlink:href="#a"
     transform="translate(-65.241 -496.29)"
     height="100%"
     width="100%"
     y="463.70001"
     x="369.76099"
     fill="#000000"
     id="use9301" />
  <use
     xlink:href="#a"
     transform="translate(-65.241 -496.29)"
     height="100%"
     width="100%"
     y="463.70001"
     x="392.54199"
     fill="#000000"
     id="use9303" />
  <use
     xlink:href="#a"
     transform="translate(-65.241 -496.29)"
     height="100%"
     width="100%"
     y="463.70001"
     x="420.229"
     fill="#000000"
     id="use9305" />
  <use
     xlink:href="#a"
     transform="translate(-65.241 -496.29)"
     height="100%"
     width="100%"
     y="463.70001"
     x="500.353"
     fill="#000000"
     id="use9307" />
  <use
     xlink:href="#a"
     transform="translate(-65.241 -496.29)"
     height="100%"
     width="100%"
     y="479.5"
     x="178.05299"
     fill="#000000"
     id="use9309" />
  <use
     xlink:href="#a"
     transform="translate(-65.241 -496.29)"
     height="100%"
     width="100%"
     y="479.5"
     x="220.81"
     fill="#000000"
     id="use9311" />
  <use
     xlink:href="#a"
     transform="translate(-65.241 -496.29)"
     height="100%"
     width="100%"
     y="479.5"
     x="240.67599"
     fill="#000000"
     id="use9313" />
  <use
     xlink:href="#a"
     transform="translate(-65.241 -496.29)"
     height="100%"
     width="100%"
     y="479.5"
     x="265.73401"
     fill="#000000"
     id="use9315" />
  <use
     xlink:href="#a"
     transform="translate(-65.241 -496.29)"
     height="100%"
     width="100%"
     y="479.5"
     x="279.20901"
     fill="#000000"
     id="use9317" />
  <use
     xlink:href="#a"
     transform="translate(-65.241 -496.29)"
     height="100%"
     width="100%"
     y="479.5"
     x="298.69"
     fill="#000000"
     id="use9319" />
  <use
     xlink:href="#a"
     transform="translate(-65.241 -496.29)"
     height="100%"
     width="100%"
     y="479.5"
     x="318.952"
     fill="#000000"
     id="use9321" />
  <use
     xlink:href="#a"
     transform="translate(-65.241 -496.29)"
     height="100%"
     width="100%"
     y="479.5"
     x="336.233"
     fill="#000000"
     id="use9323" />
  <use
     xlink:href="#a"
     transform="translate(-65.241 -496.29)"
     height="100%"
     width="100%"
     y="479.5"
     x="374.76599"
     fill="#000000"
     id="use9325" />
  <use
     xlink:href="#g"
     transform="translate(-65.241 -496.29)"
     height="100%"
     width="100%"
     y="606"
     x="171.1544"
     fill="#000000"
     id="use9327" />
  <use
     xlink:href="#e"
     transform="translate(-65.241 -496.29)"
     height="100%"
     width="100%"
     y="538.70001"
     x="372.44559"
     fill="#000000"
     id="use9329" />
  <use
     xlink:href="#e"
     transform="translate(-65.241 -496.29)"
     height="100%"
     width="100%"
     y="715.40002"
     x="407.88239"
     fill="#000000"
     id="use9331" />
  <use
     xlink:href="#e"
     transform="translate(-65.241 -496.29)"
     height="100%"
     width="100%"
     y="715.40002"
     x="448.70639"
     fill="#000000"
     id="use9333" />
  <use
     xlink:href="#e"
     transform="translate(-65.241 -496.29)"
     height="100%"
     width="100%"
     y="729.40002"
     x="412.5336"
     fill="#000000"
     id="use9335" />
  <use
     xlink:href="#g"
     transform="translate(-65.241 -496.29)"
     height="100%"
     width="100%"
     y="666.29999"
     x="142.2552"
     fill="#000000"
     id="use9337" />
  <use
     xlink:href="#g"
     transform="translate(-65.241 -496.29)"
     height="100%"
     width="100%"
     y="665.90002"
     x="501.86401"
     fill="#000000"
     id="use9339" />
  <use
     xlink:href="#e"
     transform="translate(-65.241 -496.29)"
     height="100%"
     width="100%"
     y="722.59998"
     x="198.74719"
     fill="#000000"
     id="use9341" />
  <path
     style="fill-rule:evenodd"
     inkscape:connector-curvature="0"
     id="path9345"
     d="m 247.6468,54.905009 12.098,0 c 1.8008,0 3.2031,-1.3984 3.2031,-3.1992 l 0,-24.199 c 0,-1.8008 -1.4023,-3.1992 -3.2031,-3.1992 l -24.297,0 c -1.7031,0 -3.2031,1.3984 -3.2031,3.1992 l 0,24.199 c 0,1.8008 1.5,3.1992 3.2031,3.1992 z" />
  <use
     style="fill:#fffaf5"
     id="use9347"
     x="294"
     y="544.79999"
     width="100%"
     height="100%"
     transform="translate(-56.6542,-496.28999)"
     xlink:href="#ah" />
  <path
     style="fill-rule:evenodd"
     inkscape:connector-curvature="0"
     id="path9349"
     d="m 422.1468,238.91001 12.199,0 c 1.8008,0 3.1992,-1.5 3.1992,-3.1992 l 0,-24.301 c 0,-1.8008 -1.3984,-3.1992 -3.1992,-3.1992 l -24.301,0 c -1.8008,0 -3.1992,1.3984 -3.1992,3.1992 l 0,24.301 c 0,1.6992 1.3984,3.1992 3.1992,3.1992 z" />
  <use
     style="fill:#fffaf5"
     id="use9351"
     x="470.10001"
     y="728.79999"
     width="100%"
     height="100%"
     transform="translate(-56.6542,-496.28999)"
     xlink:href="#ag" />
  <path
     style="fill-rule:evenodd"
     inkscape:connector-curvature="0"
     id="path9353"
     d="m 63.4478,238.91001 12.199,0 c 1.8008,0 3.1992,-1.5 3.1992,-3.1992 l 0,-24.301 c 0,-1.8008 -1.3984,-3.1992 -3.1992,-3.1992 l -24.301,0 c -1.8008,0 -3.1992,1.3984 -3.1992,3.1992 l 0,24.301 c 0,1.6992 1.3984,3.1992 3.1992,3.1992 z" />
  <use
     style="fill:#fffaf5"
     id="use9355"
     x="112.4"
     y="728.79999"
     width="100%"
     height="100%"
     transform="translate(-56.6542,-496.28999)"
     xlink:href="#af" />
  <use
     style="fill:#000000"
     id="use9357"
     x="285.29999"
     y="507.70001"
     width="100%"
     height="100%"
     transform="translate(-56.6542,-496.28999)"
     xlink:href="#bf" />
  <use
     xlink:href="#ae"
     height="100%"
     width="100%"
     y="507.70001"
     x="297.20401"
     id="use9361"
     transform="translate(-56.6542,-496.28999)" />
  <use
     xlink:href="#ad"
     height="100%"
     width="100%"
     y="507.70001"
     x="305.58801"
     id="use9363"
     transform="translate(-56.6542,-496.28999)" />
  <use
     xlink:href="#ac"
     height="100%"
     width="100%"
     y="507.70001"
     x="314.06799"
     id="use9365"
     transform="translate(-56.6542,-496.28999)" />
  <use
     xlink:href="#be"
     height="100%"
     width="100%"
     y="724.90002"
     x="63.599998"
     id="use9369"
     transform="translate(-56.6542,-496.28999)" />
  <use
     style="fill:#000000"
     id="use9371"
     x="71.792"
     y="724.90002"
     width="100%"
     height="100%"
     transform="translate(-56.6542,-496.28999)"
     xlink:href="#ac" />
  <use
     style="fill:#000000"
     id="use9373"
     x="79.584"
     y="724.90002"
     width="100%"
     height="100%"
     transform="translate(-56.6542,-496.28999)"
     xlink:href="#bd" />
  <use
     style="fill:#000000"
     id="use9375"
     x="86.975998"
     y="724.90002"
     width="100%"
     height="100%"
     transform="translate(-56.6542,-496.28999)"
     xlink:href="#bc" />
  <use
     style="fill:#000000"
     id="use9377"
     x="505.39999"
     y="725.20001"
     width="100%"
     height="100%"
     transform="translate(-56.6542,-496.28999)"
     xlink:href="#bb" />
  <use
     style="fill:#000000"
     id="use9379"
     x="514.104"
     y="725.20001"
     width="100%"
     height="100%"
     transform="translate(-56.6542,-496.28999)"
     xlink:href="#ae" />
  <use
     style="fill:#000000"
     id="use9381"
     x="522.48798"
     y="725.20001"
     width="100%"
     height="100%"
     transform="translate(-56.6542,-496.28999)"
     xlink:href="#ad" />
  <path
     style="fill:none;stroke:#000000;stroke-width:1.59990001;stroke-miterlimit:7.66130018"
     inkscape:connector-curvature="0"
     id="path9383"
     stroke-miterlimit="7.6613"
     d="m 83.6468,193.81001 134.3,-134.100001" />
  <use
     style="fill:#000000"
     id="use9385"
     x="117.5"
     y="606"
     width="100%"
     height="100%"
     transform="translate(-56.6542,-496.28999)"
     xlink:href="#ap" />
  <use
     style="fill:#000000"
     id="use9387"
     x="126.1976"
     y="606"
     width="100%"
     height="100%"
     transform="translate(-56.6542,-496.28999)"
     xlink:href="#b" />
  <use
     style="fill:#000000"
     id="use9389"
     x="130.892"
     y="606"
     width="100%"
     height="100%"
     transform="translate(-56.6542,-496.28999)"
     xlink:href="#w" />
  <use
     style="fill:#000000"
     id="use9391"
     x="132.9944"
     y="606"
     width="100%"
     height="100%"
     transform="translate(-56.6542,-496.28999)"
     xlink:href="#i" />
  <use
     style="fill:#000000"
     id="use9393"
     x="136.38319"
     y="606"
     width="100%"
     height="100%"
     transform="translate(-56.6542,-496.28999)"
     xlink:href="#b" />
  <use
     style="fill:#000000"
     id="use9395"
     x="141.07761"
     y="606"
     width="100%"
     height="100%"
     transform="translate(-56.6542,-496.28999)"
     xlink:href="#n" />
  <use
     style="fill:#000000"
     id="use9397"
     x="144.17841"
     y="606"
     width="100%"
     height="100%"
     transform="translate(-56.6542,-496.28999)"
     xlink:href="#m" />
  <use
     style="fill:#000000"
     id="use9399"
     x="146.28081"
     y="606"
     width="100%"
     height="100%"
     transform="translate(-56.6542,-496.28999)"
     xlink:href="#b" />
  <use
     style="fill:#000000"
     id="use9401"
     x="150.9752"
     y="606"
     width="100%"
     height="100%"
     transform="translate(-56.6542,-496.28999)"
     xlink:href="#w" />
  <use
     style="fill:#000000"
     id="use9403"
     x="153.07761"
     y="606"
     width="100%"
     height="100%"
     transform="translate(-56.6542,-496.28999)"
     xlink:href="#i" />
  <use
     style="fill:#000000"
     id="use9405"
     x="156.4664"
     y="606"
     width="100%"
     height="100%"
     transform="translate(-56.6542,-496.28999)"
     xlink:href="#ai" />
  <use
     style="fill:#000000"
     id="use9407"
     x="161.3624"
     y="606"
     width="100%"
     height="100%"
     transform="translate(-56.6542,-496.28999)"
     xlink:href="#h" />
  <use
     style="fill:#000000"
     id="use9409"
     x="166.364"
     y="606"
     width="100%"
     height="100%"
     transform="translate(-56.6542,-496.28999)"
     xlink:href="#ao" />
  <use
     style="fill:#000000"
     id="use9411"
     x="173.4584"
     y="606"
     width="100%"
     height="100%"
     transform="translate(-56.6542,-496.28999)"
     xlink:href="#an" />
  <use
     style="fill:#000000"
     id="use9413"
     x="177.85519"
     y="606"
     width="100%"
     height="100%"
     transform="translate(-56.6542,-496.28999)"
     xlink:href="#h" />
  <use
     style="fill:#000000"
     id="use9415"
     x="185.24719"
     y="606"
     width="100%"
     height="100%"
     transform="translate(-56.6542,-496.28999)"
     xlink:href="#al" />
  <use
     style="fill:#000000"
     id="use9417"
     x="190.8344"
     y="606"
     width="100%"
     height="100%"
     transform="translate(-56.6542,-496.28999)"
     xlink:href="#n" />
  <use
     style="fill:#000000"
     id="use9419"
     x="193.82961"
     y="606"
     width="100%"
     height="100%"
     transform="translate(-56.6542,-496.28999)"
     xlink:href="#l" />
  <use
     style="fill:#000000"
     id="use9421"
     x="198.83121"
     y="606"
     width="100%"
     height="100%"
     transform="translate(-56.6542,-496.28999)"
     xlink:href="#ak" />
  <use
     style="fill:#000000"
     id="use9423"
     x="205.82961"
     y="606"
     width="100%"
     height="100%"
     transform="translate(-56.6542,-496.28999)"
     xlink:href="#c" />
  <use
     style="fill:#000000"
     id="use9425"
     x="209.5256"
     y="606"
     width="100%"
     height="100%"
     transform="translate(-56.6542,-496.28999)"
     xlink:href="#b" />
  <use
     style="fill:#000000"
     id="use9427"
     x="214.22"
     y="606"
     width="100%"
     height="100%"
     transform="translate(-56.6542,-496.28999)"
     xlink:href="#n" />
  <path
     style="fill:none;stroke:#000000;stroke-width:1.59990001;stroke-miterlimit:7.66130018"
     inkscape:connector-curvature="0"
     id="path9429"
     stroke-miterlimit="7.6613"
     d="m 277.3468,59.706009 124.7,134.100001" />
  <use
     style="fill:#000000"
     id="use9431"
     x="384.70001"
     y="606"
     width="100%"
     height="100%"
     transform="translate(-56.6542,-496.28999)"
     xlink:href="#c" />
  <use
     style="fill:#000000"
     id="use9433"
     x="388.396"
     y="606"
     width="100%"
     height="100%"
     transform="translate(-56.6542,-496.28999)"
     xlink:href="#b" />
  <use
     style="fill:#000000"
     id="use9435"
     x="393.09039"
     y="606"
     width="100%"
     height="100%"
     transform="translate(-56.6542,-496.28999)"
     xlink:href="#h" />
  <use
     style="fill:#000000"
     id="use9437"
     x="398.09201"
     y="606"
     width="100%"
     height="100%"
     transform="translate(-56.6542,-496.28999)"
     xlink:href="#aj" />
  <use
     style="fill:#000000"
     id="use9439"
     x="403.17999"
     y="606"
     width="100%"
     height="100%"
     transform="translate(-56.6542,-496.28999)"
     xlink:href="#b" />
  <use
     style="fill:#000000"
     id="use9441"
     x="407.87439"
     y="606"
     width="100%"
     height="100%"
     transform="translate(-56.6542,-496.28999)"
     xlink:href="#i" />
  <use
     style="fill:#000000"
     id="use9443"
     x="413.65359"
     y="606"
     width="100%"
     height="100%"
     transform="translate(-56.6542,-496.28999)"
     xlink:href="#p" />
  <use
     style="fill:#000000"
     id="use9445"
     x="419.15439"
     y="606"
     width="100%"
     height="100%"
     transform="translate(-56.6542,-496.28999)"
     xlink:href="#b" />
  <use
     style="fill:#000000"
     id="use9447"
     x="423.84879"
     y="606"
     width="100%"
     height="100%"
     transform="translate(-56.6542,-496.28999)"
     xlink:href="#c" />
  <use
     style="fill:#000000"
     id="use9449"
     x="427.5448"
     y="606"
     width="100%"
     height="100%"
     transform="translate(-56.6542,-496.28999)"
     xlink:href="#q" />
  <use
     style="fill:#000000"
     id="use9451"
     x="432.5368"
     y="606"
     width="100%"
     height="100%"
     transform="translate(-56.6542,-496.28999)"
     xlink:href="#l" />
  <use
     style="fill:#000000"
     id="use9453"
     x="437.53839"
     y="606"
     width="100%"
     height="100%"
     transform="translate(-56.6542,-496.28999)"
     xlink:href="#h" />
  <use
     style="fill:#000000"
     id="use9455"
     x="442.54001"
     y="606"
     width="100%"
     height="100%"
     transform="translate(-56.6542,-496.28999)"
     xlink:href="#c" />
  <use
     style="fill:#000000"
     id="use9457"
     x="446.23599"
     y="606"
     width="100%"
     height="100%"
     transform="translate(-56.6542,-496.28999)"
     xlink:href="#b" />
  <use
     style="fill:#000000"
     id="use9459"
     x="331.70001"
     y="538.70001"
     width="100%"
     height="100%"
     transform="translate(-56.6542,-496.28999)"
     xlink:href="#aa" />
  <use
     style="fill:#000000"
     id="use9461"
     x="337.49039"
     y="538.70001"
     width="100%"
     height="100%"
     transform="translate(-56.6542,-496.28999)"
     xlink:href="#k" />
  <use
     style="fill:#000000"
     id="use9463"
     x="342.67599"
     y="538.70001"
     width="100%"
     height="100%"
     transform="translate(-56.6542,-496.28999)"
     xlink:href="#ab" />
  <use
     style="fill:#000000"
     id="use9465"
     x="351.66959"
     y="538.70001"
     width="100%"
     height="100%"
     transform="translate(-56.6542,-496.28999)"
     xlink:href="#ab" />
  <use
     style="fill:#000000"
     id="use9467"
     x="360.66321"
     y="538.70001"
     width="100%"
     height="100%"
     transform="translate(-56.6542,-496.28999)"
     xlink:href="#d" />
  <use
     style="fill:#000000"
     id="use9469"
     x="366.06161"
     y="538.70001"
     width="100%"
     height="100%"
     transform="translate(-56.6542,-496.28999)"
     xlink:href="#az" />
  <use
     style="fill:#000000"
     id="use9471"
     x="368.548"
     y="538.70001"
     width="100%"
     height="100%"
     transform="translate(-56.6542,-496.28999)"
     xlink:href="#f" />
  <use
     style="fill:#000000"
     id="use9473"
     x="375.23441"
     y="538.70001"
     width="100%"
     height="100%"
     transform="translate(-56.6542,-496.28999)"
     xlink:href="#aw" />
  <use
     style="fill:#000000"
     id="use9475"
     x="381.62961"
     y="538.70001"
     width="100%"
     height="100%"
     transform="translate(-56.6542,-496.28999)"
     xlink:href="#d" />
  <use
     style="fill:#000000"
     id="use9477"
     x="387.02802"
     y="538.70001"
     width="100%"
     height="100%"
     transform="translate(-56.6542,-496.28999)"
     xlink:href="#s" />
  <use
     style="fill:#000000"
     id="use9479"
     x="391.3288"
     y="538.70001"
     width="100%"
     height="100%"
     transform="translate(-56.6542,-496.28999)"
     xlink:href="#av" />
  <use
     style="fill:#000000"
     id="use9481"
     x="397.1304"
     y="538.70001"
     width="100%"
     height="100%"
     transform="translate(-56.6542,-496.28999)"
     xlink:href="#aq" />
  <use
     style="fill:#000000"
     id="use9483"
     x="403.02161"
     y="538.70001"
     width="100%"
     height="100%"
     transform="translate(-56.6542,-496.28999)"
     xlink:href="#o" />
  <use
     style="fill:#000000"
     id="use9485"
     x="408.91281"
     y="538.70001"
     width="100%"
     height="100%"
     transform="translate(-56.6542,-496.28999)"
     xlink:href="#s" />
  <use
     style="fill:#000000"
     id="use9487"
     x="413.21359"
     y="538.70001"
     width="100%"
     height="100%"
     transform="translate(-56.6542,-496.28999)"
     xlink:href="#d" />
  <use
     style="fill:#000000"
     id="use9489"
     x="418.612"
     y="538.70001"
     width="100%"
     height="100%"
     transform="translate(-56.6542,-496.28999)"
     xlink:href="#s" />
  <use
     style="fill:#000000"
     id="use9517"
     x="364.89999"
     y="729.40002"
     width="100%"
     height="100%"
     transform="translate(-56.6542,-503.1053)"
     xlink:href="#au" />
  <use
     style="fill:#000000"
     id="use9519"
     x="371.4856"
     y="729.40002"
     width="100%"
     height="100%"
     transform="translate(-56.6542,-503.1053)"
     xlink:href="#d" />
  <use
     style="fill:#000000"
     id="use9521"
     x="376.884"
     y="729.40002"
     width="100%"
     height="100%"
     transform="translate(-56.6542,-503.1053)"
     xlink:href="#k" />
  <use
     style="fill:#000000"
     id="use9523"
     x="382.06961"
     y="729.40002"
     width="100%"
     height="100%"
     transform="translate(-56.6542,-503.1053)"
     xlink:href="#j" />
  <use
     style="fill:#000000"
     id="use9525"
     x="385.66479"
     y="729.40002"
     width="100%"
     height="100%"
     transform="translate(-56.6542,-503.1053)"
     xlink:href="#y" />
  <use
     style="fill:#000000"
     id="use9527"
     x="391.4552"
     y="729.40002"
     width="100%"
     height="100%"
     transform="translate(-56.6542,-503.1053)"
     xlink:href="#d" />
  <use
     style="fill:#000000"
     id="use9529"
     x="396.85361"
     y="729.40002"
     width="100%"
     height="100%"
     transform="translate(-56.6542,-503.1053)"
     xlink:href="#r" />
  <use
     style="fill:#000000"
     id="use9531"
     x="399.34"
     y="729.40002"
     width="100%"
     height="100%"
     transform="translate(-56.6542,-503.1053)"
     xlink:href="#f" />
  <use
     style="fill:#000000"
     id="use9533"
     x="403.23761"
     y="729.40002"
     width="100%"
     height="100%"
     transform="translate(-56.6542,-503.1053)"
     xlink:href="#d" />
  <use
     style="fill:#000000"
     id="use9535"
     x="408.63599"
     y="729.40002"
     width="100%"
     height="100%"
     transform="translate(-56.6542,-503.1053)"
     xlink:href="#f" />
  <use
     style="fill:#000000"
     id="use9537"
     x="415.32239"
     y="729.40002"
     width="100%"
     height="100%"
     transform="translate(-56.6542,-503.1053)"
     xlink:href="#at" />
  <use
     style="fill:#000000"
     id="use9539"
     x="422.31119"
     y="729.40002"
     width="100%"
     height="100%"
     transform="translate(-56.6542,-503.1053)"
     xlink:href="#o" />
  <use
     style="fill:#000000"
     id="use9541"
     x="428.20239"
     y="729.40002"
     width="100%"
     height="100%"
     transform="translate(-56.6542,-503.1053)"
     xlink:href="#z" />
  <use
     style="fill:#000000"
     id="use9543"
     x="431.69681"
     y="729.40002"
     width="100%"
     height="100%"
     transform="translate(-56.6542,-503.1053)"
     xlink:href="#j" />
  <use
     style="fill:#000000"
     id="use9545"
     x="435.29199"
     y="729.40002"
     width="100%"
     height="100%"
     transform="translate(-56.6542,-503.1053)"
     xlink:href="#k" />
  <use
     style="fill:#000000"
     id="use9547"
     x="440.4776"
     y="729.40002"
     width="100%"
     height="100%"
     transform="translate(-56.6542,-503.1053)"
     xlink:href="#x" />
  <use
     style="fill:#000000"
     id="use9549"
     x="446.06641"
     y="729.40002"
     width="100%"
     height="100%"
     transform="translate(-56.6542,-503.1053)"
     xlink:href="#d" />
  <path
     style="fill-rule:evenodd"
     inkscape:connector-curvature="0"
     id="path9551"
     d="m 93.9478,168.51001 0,2.5977 -1.6016,0 0,9.1016 0,0.19922 c 0,2.6992 1.8984,4.8008 4.3008,4.8008 l 7.1992,0 c 2.3984,0 4.3984,-2.1016 4.3984,-4.8008 l 0,-0.19922 0,-9.1016 -1.6992,0 0,-2.5977 c 0,-3.5 -2.8008,-6.3008 -6.3008,-6.3008 l -0.0977,0 c -3.4023,0.10156 -6.1992,2.8008 -6.1992,6.3008 z m 6.0977,-4.5 0.19922,0 c 1.9023,0 3.9023,1.3984 4.3008,3.3984 0.10156,1.1992 0.10156,2.5 0.10156,3.6992 l -8.8008,0 0,-1.7969 c -0.5,-2.5 1.6016,-5.2031 4.1992,-5.3008 z m 0.19922,10.5 0.30078,0 c 1,0.0977 1.6992,1.0977 1.6016,2.0977 -0.10156,0.5 -0.30078,0.90234 -0.69922,1.2031 l 0.69922,4.0977 -3.6992,0 0.59766,-4.0977 c -0.5,-0.40234 -0.69922,-1.1016 -0.59766,-1.8008 0.0977,-0.90234 0.89844,-1.5 1.7969,-1.5 z" />
  <use
     style="fill:#000000"
     id="use9553"
     x="91.5"
     y="666.29999"
     width="100%"
     height="100%"
     transform="translate(-56.6542,-496.28999)"
     xlink:href="#b" />
  <use
     style="fill:#000000"
     id="use9555"
     x="96.194397"
     y="666.29999"
     width="100%"
     height="100%"
     transform="translate(-56.6542,-496.28999)"
     xlink:href="#h" />
  <use
     style="fill:#000000"
     id="use9557"
     x="101.196"
     y="666.29999"
     width="100%"
     height="100%"
     transform="translate(-56.6542,-496.28999)"
     xlink:href="#i" />
  <use
     style="fill:#000000"
     id="use9559"
     x="104.5848"
     y="666.29999"
     width="100%"
     height="100%"
     transform="translate(-56.6542,-496.28999)"
     xlink:href="#c" />
  <use
     style="fill:#000000"
     id="use9561"
     x="108.2808"
     y="666.29999"
     width="100%"
     height="100%"
     transform="translate(-56.6542,-496.28999)"
     xlink:href="#v" />
  <use
     style="fill:#000000"
     id="use9563"
     x="112.5816"
     y="666.29999"
     width="100%"
     height="100%"
     transform="translate(-56.6542,-496.28999)"
     xlink:href="#u" />
  <use
     style="fill:#000000"
     id="use9565"
     x="117.5832"
     y="666.29999"
     width="100%"
     height="100%"
     transform="translate(-56.6542,-496.28999)"
     xlink:href="#m" />
  <use
     style="fill:#000000"
     id="use9567"
     x="119.6856"
     y="666.29999"
     width="100%"
     height="100%"
     transform="translate(-56.6542,-496.28999)"
     xlink:href="#t" />
  <use
     style="fill:#000000"
     id="use9569"
     x="124.6776"
     y="666.29999"
     width="100%"
     height="100%"
     transform="translate(-56.6542,-496.28999)"
     xlink:href="#c" />
  <use
     style="fill:#000000"
     id="use9571"
     x="128.3736"
     y="666.29999"
     width="100%"
     height="100%"
     transform="translate(-56.6542,-496.28999)"
     xlink:href="#c" />
  <use
     style="fill:#000000"
     id="use9573"
     x="132.0696"
     y="666.29999"
     width="100%"
     height="100%"
     transform="translate(-56.6542,-496.28999)"
     xlink:href="#b" />
  <use
     style="fill:#000000"
     id="use9575"
     x="136.76401"
     y="666.29999"
     width="100%"
     height="100%"
     transform="translate(-56.6542,-496.28999)"
     xlink:href="#m" />
  <use
     style="fill:#000000"
     id="use9577"
     x="138.86639"
     y="666.29999"
     width="100%"
     height="100%"
     transform="translate(-56.6542,-496.28999)"
     xlink:href="#i" />
  <use
     style="fill:#000000"
     id="use9579"
     x="106.8"
     y="678.29999"
     width="100%"
     height="100%"
     transform="translate(-56.6542,-496.28999)"
     xlink:href="#p" />
  <use
     style="fill:#000000"
     id="use9581"
     x="112.3008"
     y="678.29999"
     width="100%"
     height="100%"
     transform="translate(-56.6542,-496.28999)"
     xlink:href="#b" />
  <use
     style="fill:#000000"
     id="use9583"
     x="116.9952"
     y="678.29999"
     width="100%"
     height="100%"
     transform="translate(-56.6542,-496.28999)"
     xlink:href="#c" />
  <use
     style="fill:#000000"
     id="use9585"
     x="120.6912"
     y="678.29999"
     width="100%"
     height="100%"
     transform="translate(-56.6542,-496.28999)"
     xlink:href="#q" />
  <use
     style="fill:#000000"
     id="use9587"
     x="125.6832"
     y="678.29999"
     width="100%"
     height="100%"
     transform="translate(-56.6542,-496.28999)"
     xlink:href="#l" />
  <use
     style="fill:#000000"
     id="use9589"
     x="130.6848"
     y="678.29999"
     width="100%"
     height="100%"
     transform="translate(-56.6542,-496.28999)"
     xlink:href="#h" />
  <use
     style="fill:#000000"
     id="use9591"
     x="135.6864"
     y="678.29999"
     width="100%"
     height="100%"
     transform="translate(-56.6542,-496.28999)"
     xlink:href="#c" />
  <use
     style="fill:#000000"
     id="use9593"
     x="139.3824"
     y="678.29999"
     width="100%"
     height="100%"
     transform="translate(-56.6542,-496.28999)"
     xlink:href="#b" />
  <path
     style="fill-rule:evenodd"
     inkscape:connector-curvature="0"
     id="path9595"
     d="m 384.8468,161.81001 c -3.3984,0 -6.1016,2.7969 -6.1016,6.1992 l 0,2.6992 -1.6992,0 0,9.1016 0,0.19922 c 0,2.5977 2,4.6992 4.4023,4.6992 l 7.1992,0 c 2.3984,0 4.3008,-2.1016 4.3008,-4.6992 l 0,-0.19922 0,-9.1016 -1.7031,0 0,-2.6992 c 0,-3.4023 -2.7969,-6.1992 -6.1992,-6.1992 l -0.19922,0 z m 0,1.7969 0.10156,0 c 2,-0.0977 3.8984,1.4023 4.2969,3.4023 0.10156,1.1992 0.20312,2.5 0.20312,3.6992 l -8.8008,0 c 0,-0.60156 -0.10156,-1.1992 -0.10156,-1.8008 -0.5,-2.5 1.6992,-5.3008 4.3008,-5.3008 z m 0.19922,10.402 0.19922,0 c 1.1016,0.19922 1.8008,1.1992 1.6016,2.1992 -0.10156,0.39844 -0.30078,0.80078 -0.60156,1.1016 l 0.60156,4.0977 -3.6992,0 0.69922,-4.0977 c -0.5,-0.40234 -0.80078,-1 -0.69922,-1.7031 0.0977,-0.89844 0.89844,-1.5977 1.8984,-1.5977 z" />
  <use
     style="fill:#000000"
     id="use9597"
     x="454.20001"
     y="665.90002"
     width="100%"
     height="100%"
     transform="translate(-56.6542,-496.28999)"
     xlink:href="#am" />
  <use
     style="fill:#000000"
     id="use9599"
     x="458.50079"
     y="665.90002"
     width="100%"
     height="100%"
     transform="translate(-56.6542,-496.28999)"
     xlink:href="#b" />
  <use
     style="fill:#000000"
     id="use9601"
     x="463.19519"
     y="665.90002"
     width="100%"
     height="100%"
     transform="translate(-56.6542,-496.28999)"
     xlink:href="#n" />
  <use
     style="fill:#000000"
     id="use9603"
     x="466.29599"
     y="665.90002"
     width="100%"
     height="100%"
     transform="translate(-56.6542,-496.28999)"
     xlink:href="#c" />
  <use
     style="fill:#000000"
     id="use9605"
     x="469.992"
     y="665.90002"
     width="100%"
     height="100%"
     transform="translate(-56.6542,-496.28999)"
     xlink:href="#v" />
  <use
     style="fill:#000000"
     id="use9607"
     x="474.29279"
     y="665.90002"
     width="100%"
     height="100%"
     transform="translate(-56.6542,-496.28999)"
     xlink:href="#u" />
  <use
     style="fill:#000000"
     id="use9609"
     x="479.2944"
     y="665.90002"
     width="100%"
     height="100%"
     transform="translate(-56.6542,-496.28999)"
     xlink:href="#t" />
  <use
     style="fill:#000000"
     id="use9611"
     x="484.28641"
     y="665.90002"
     width="100%"
     height="100%"
     transform="translate(-56.6542,-496.28999)"
     xlink:href="#c" />
  <use
     style="fill:#000000"
     id="use9613"
     x="487.98239"
     y="665.90002"
     width="100%"
     height="100%"
     transform="translate(-56.6542,-496.28999)"
     xlink:href="#c" />
  <use
     style="fill:#000000"
     id="use9615"
     x="491.67841"
     y="665.90002"
     width="100%"
     height="100%"
     transform="translate(-56.6542,-496.28999)"
     xlink:href="#b" />
  <use
     style="fill:#000000"
     id="use9617"
     x="496.3728"
     y="665.90002"
     width="100%"
     height="100%"
     transform="translate(-56.6542,-496.28999)"
     xlink:href="#m" />
  <use
     style="fill:#000000"
     id="use9619"
     x="498.47519"
     y="665.90002"
     width="100%"
     height="100%"
     transform="translate(-56.6542,-496.28999)"
     xlink:href="#i" />
  <use
     style="fill:#000000"
     id="use9621"
     x="454.20001"
     y="677.90002"
     width="100%"
     height="100%"
     transform="translate(-56.6542,-496.28999)"
     xlink:href="#p" />
  <use
     style="fill:#000000"
     id="use9623"
     x="459.70081"
     y="677.90002"
     width="100%"
     height="100%"
     transform="translate(-56.6542,-496.28999)"
     xlink:href="#b" />
  <use
     style="fill:#000000"
     id="use9625"
     x="464.3952"
     y="677.90002"
     width="100%"
     height="100%"
     transform="translate(-56.6542,-496.28999)"
     xlink:href="#c" />
  <use
     style="fill:#000000"
     id="use9627"
     x="468.09119"
     y="677.90002"
     width="100%"
     height="100%"
     transform="translate(-56.6542,-496.28999)"
     xlink:href="#q" />
  <use
     style="fill:#000000"
     id="use9629"
     x="473.08319"
     y="677.90002"
     width="100%"
     height="100%"
     transform="translate(-56.6542,-496.28999)"
     xlink:href="#l" />
  <use
     style="fill:#000000"
     id="use9631"
     x="478.08481"
     y="677.90002"
     width="100%"
     height="100%"
     transform="translate(-56.6542,-496.28999)"
     xlink:href="#h" />
  <use
     style="fill:#000000"
     id="use9633"
     x="483.0864"
     y="677.90002"
     width="100%"
     height="100%"
     transform="translate(-56.6542,-496.28999)"
     xlink:href="#c" />
  <use
     style="fill:#000000"
     id="use9635"
     x="486.78241"
     y="677.90002"
     width="100%"
     height="100%"
     transform="translate(-56.6542,-496.28999)"
     xlink:href="#b" />
  <use
     style="fill:#000000"
     id="use9637"
     x="148"
     y="722.59998"
     width="100%"
     height="100%"
     transform="translate(-56.6542,-496.28999)"
     xlink:href="#as" />
  <use
     style="fill:#000000"
     id="use9639"
     x="154.104"
     y="722.59998"
     width="100%"
     height="100%"
     transform="translate(-56.6542,-496.28999)"
     xlink:href="#d" />
  <use
     style="fill:#000000"
     id="use9641"
     x="159.5024"
     y="722.59998"
     width="100%"
     height="100%"
     transform="translate(-56.6542,-496.28999)"
     xlink:href="#j" />
  <use
     style="fill:#000000"
     id="use9643"
     x="163.0976"
     y="722.59998"
     width="100%"
     height="100%"
     transform="translate(-56.6542,-496.28999)"
     xlink:href="#k" />
  <use
     style="fill:#000000"
     id="use9645"
     x="168.2832"
     y="722.59998"
     width="100%"
     height="100%"
     transform="translate(-56.6542,-496.28999)"
     xlink:href="#j" />
  <use
     style="fill:#000000"
     id="use9647"
     x="171.8784"
     y="722.59998"
     width="100%"
     height="100%"
     transform="translate(-56.6542,-496.28999)"
     xlink:href="#y" />
  <use
     style="fill:#000000"
     id="use9649"
     x="177.66879"
     y="722.59998"
     width="100%"
     height="100%"
     transform="translate(-56.6542,-496.28999)"
     xlink:href="#d" />
  <use
     style="fill:#000000"
     id="use9651"
     x="183.0672"
     y="722.59998"
     width="100%"
     height="100%"
     transform="translate(-56.6542,-496.28999)"
     xlink:href="#r" />
  <use
     style="fill:#000000"
     id="use9653"
     x="185.5536"
     y="722.59998"
     width="100%"
     height="100%"
     transform="translate(-56.6542,-496.28999)"
     xlink:href="#f" />
  <use
     style="fill:#000000"
     id="use9655"
     x="189.4512"
     y="722.59998"
     width="100%"
     height="100%"
     transform="translate(-56.6542,-496.28999)"
     xlink:href="#d" />
  <use
     style="fill:#000000"
     id="use9657"
     x="194.84959"
     y="722.59998"
     width="100%"
     height="100%"
     transform="translate(-56.6542,-496.28999)"
     xlink:href="#f" />
  <use
     style="fill:#000000"
     id="use9659"
     x="201.536"
     y="722.59998"
     width="100%"
     height="100%"
     transform="translate(-56.6542,-496.28999)"
     xlink:href="#ax" />
  <use
     style="fill:#000000"
     id="use9661"
     x="209.62241"
     y="722.59998"
     width="100%"
     height="100%"
     transform="translate(-56.6542,-496.28999)"
     xlink:href="#k" />
  <use
     style="fill:#000000"
     id="use9663"
     x="214.7184"
     y="722.59998"
     width="100%"
     height="100%"
     transform="translate(-56.6542,-496.28999)"
     xlink:href="#f" />
  <use
     style="fill:#000000"
     id="use9665"
     x="218.616"
     y="722.59998"
     width="100%"
     height="100%"
     transform="translate(-56.6542,-496.28999)"
     xlink:href="#d" />
  <use
     style="fill:#000000"
     id="use9667"
     x="224.0144"
     y="722.59998"
     width="100%"
     height="100%"
     transform="translate(-56.6542,-496.28999)"
     xlink:href="#o" />
  <use
     xlink:href="#a"
     transform="translate(-65.241 -496.29)"
     height="100%"
     width="100%"
     y="759.5"
     x="73.674004"
     fill="#000000"
     id="use9669" />
  <use
     xlink:href="#a"
     transform="translate(-65.241 -496.29)"
     height="100%"
     width="100%"
     y="759.5"
     x="96.641998"
     fill="#000000"
     id="use9671" />
  <use
     xlink:href="#a"
     transform="translate(-65.241 -496.29)"
     height="100%"
     width="100%"
     y="759.5"
     x="124.186"
     fill="#000000"
     id="use9673" />
  <use
     xlink:href="#a"
     transform="translate(-65.241 -496.29)"
     height="100%"
     width="100%"
     y="759.5"
     x="169.517"
     fill="#000000"
     id="use9675" />
  <use
     xlink:href="#a"
     transform="translate(-65.241 -496.29)"
     height="100%"
     width="100%"
     y="759.5"
     x="188.30499"
     fill="#000000"
     id="use9677" />
  <use
     xlink:href="#a"
     transform="translate(-65.241 -496.29)"
     height="100%"
     width="100%"
     y="759.5"
     x="256.923"
     fill="#000000"
     id="use9679" />
  <use
     xlink:href="#a"
     transform="translate(-65.241 -496.29)"
     height="100%"
     width="100%"
     y="759.5"
     x="276.70099"
     fill="#000000"
     id="use9681" />
  <use
     xlink:href="#a"
     transform="translate(-65.241 -496.29)"
     height="100%"
     width="100%"
     y="759.5"
     x="350.31299"
     fill="#000000"
     id="use9683" />
  <use
     xlink:href="#a"
     transform="translate(-65.241 -496.29)"
     height="100%"
     width="100%"
     y="759.5"
     x="374.89801"
     fill="#000000"
     id="use9685" />
  <use
     xlink:href="#a"
     transform="translate(-65.241 -496.29)"
     height="100%"
     width="100%"
     y="759.5"
     x="398.97699"
     fill="#000000"
     id="use9687" />
  <use
     xlink:href="#a"
     transform="translate(-65.241 -496.29)"
     height="100%"
     width="100%"
     y="759.5"
     x="434.82599"
     fill="#000000"
     id="use9689" />
  <use
     xlink:href="#a"
     transform="translate(-65.241 -496.29)"
     height="100%"
     width="100%"
     y="759.5"
     x="475.746"
     fill="#000000"
     id="use9691" />
  <use
     xlink:href="#a"
     transform="translate(-65.241 -496.29)"
     height="100%"
     width="100%"
     y="759.5"
     x="514.68597"
     fill="#000000"
     id="use9693" />
  <use
     xlink:href="#a"
     transform="translate(-65.241 -496.29)"
     height="100%"
     width="100%"
     y="775.29999"
     x="99.315002"
     fill="#000000"
     id="use9695" />
  <use
     xlink:href="#a"
     transform="translate(-65.241 -496.29)"
     height="100%"
     width="100%"
     y="775.29999"
     x="125.671"
     fill="#000000"
     id="use9697" />
  <use
     xlink:href="#a"
     transform="translate(-65.241 -496.29)"
     height="100%"
     width="100%"
     y="775.29999"
     x="143.062"
     fill="#000000"
     id="use9699" />
  <use
     xlink:href="#a"
     transform="translate(-65.241 -496.29)"
     height="100%"
     width="100%"
     y="775.29999"
     x="210.877"
     fill="#000000"
     id="use9701" />
  <use
     xlink:href="#a"
     transform="translate(-65.241 -496.29)"
     height="100%"
     width="100%"
     y="775.29999"
     x="232.041"
     fill="#000000"
     id="use9703" />
  <use
     xlink:href="#a"
     transform="translate(-65.241 -496.29)"
     height="100%"
     width="100%"
     y="775.29999"
     x="303.629"
     fill="#000000"
     id="use9705" />
  <use
     xlink:href="#a"
     transform="translate(-65.241 -496.29)"
     height="100%"
     width="100%"
     y="775.29999"
     x="318.52301"
     fill="#000000"
     id="use9707" />
  <use
     xlink:href="#a"
     transform="translate(-65.241 -496.29)"
     height="100%"
     width="100%"
     y="775.29999"
     x="340.116"
     fill="#000000"
     id="use9709" />
  <use
     xlink:href="#a"
     transform="translate(-65.241 -496.29)"
     height="100%"
     width="100%"
     y="775.29999"
     x="394.53299"
     fill="#000000"
     id="use9711" />
  <use
     xlink:href="#a"
     transform="translate(-65.241 -496.29)"
     height="100%"
     width="100%"
     y="775.29999"
     x="418.10599"
     fill="#000000"
     id="use9713" />
  <use
     xlink:href="#a"
     transform="translate(-65.241 -496.29)"
     height="100%"
     width="100%"
     y="775.29999"
     x="435.49701"
     fill="#000000"
     id="use9715" />
  <use
     xlink:href="#a"
     transform="translate(-65.241 -496.29)"
     height="100%"
     width="100%"
     y="775.29999"
     x="475.01999"
     fill="#000000"
     id="use9717" />
</svg>
